<?xml version="1.0" encoding="utf-8" ?>
<svg baseProfile="full" height="200mm" version="1.1" viewBox="0,0,200,200" width="200mm" xmlns="http://www.w3.org/2000/svg" xmlns:ev="http://www.w3.org/2001/xml-events" xmlns:xlink="http://www.w3.org/1999/xlink"><defs /><rect fill="#1a1a1a" height="200" width="200" x="0" y="0" /><text alignment-baseline="middle" fill="#e1ed5e" style="dominant-baseline: central; font-size:9.0px; font-family:Arial;" text-anchor="middle" x="100.0" y="100.0">2024</text><line stroke="#e1ed5e" stroke-width="0.3" x1="100.0" x2="100.0" y1="15.0" y2="10.0" /><path d="M 100.0 14.0 a86.0,86.0 0 0,1 42.35913384403234,11.155469271406648" fill="none" id="id37" stroke="none" /><text fill="#e1ed5e" style="font-size:6.75px; font-family:Arial;" text-anchor="middle"><textPath startOffset="22.145653131862478" xlink:href="#id37">January</textPath></text><path d="M 100.72087961077811 79.0123766808444 l 0.11352059007576566 -3.305028118227338 a24.30697713730296,24.30697713730296 0 0,0 0.4168927144057598,0.017903166935529798 l -0.17023906508236175 3.3025923828659773" fill="#ff0500" stroke="none" /><path d="M 101.44090949804482 79.04949213459386 l 0.407921765093277 -5.93109293793499 a26.945104171068756,26.945104171068756 0 0,0 0.4611859941949187,0.03569871269476318 l -0.5096767540634292 5.9232164582451725" fill="#ff2c04" stroke="none" /><path d="M 102.51750503828377 79.15144685158666 l 0.7097272581832834 -5.877559821369452 a26.920255250813504,26.920255250813504 0 0,0 0.45831372821555694,0.059337887878001795 l -0.8105188082896321 5.864510337291054" fill="#ff2c04" stroke="none" /><path d="M 102.87502721639298 79.19773525538626 l 1.6235485927504512 -11.747188847315435 a32.85885137133922,32.85885137133922 0 0,0 0.5580917782250138,0.08202027245319751 l -1.824965476583147 11.717587501563356" fill="#ff810b" stroke="none" /><path d="M 103.58742460773223 79.30868818359171 l 1.0107492650868768 -5.829733164856277 a26.916705405062757,26.916705405062757 0 0,0 0.4545914521149703,0.08284170581336563 l -1.1106754507529006 5.811523285111545" fill="#ff2c04" stroke="none" /><path d="M 104.29559338865022 79.4440306129975 l 0.6239862376390853 -2.9860000326637914 a24.050500781811266,24.050500781811266 0 0,0 0.40340429878499173,0.0879200893415956 l -0.6751529530432111 2.974848485188477" fill="#ff0100" stroke="none" /><path d="M 104.9986988182912 79.60360301121754 l 1.4149213829571252 -5.773362085570931 a26.94421670963107,26.94421670963107 0 0,0 0.448293652215856,0.1139544933545805 l -1.5138203283983755 5.748222360381083" fill="#ff2c04" stroke="none" /><path d="M 105.69591212413111 79.78721728523813 l 1.6113905420406693 -5.718256564546093 a26.940962684359548,26.940962684359548 0 0,0 0.4440640233329462,0.12926056533380198 l -1.7093145777552199 5.689752304909774" fill="#ff2c04" stroke="none" /><path d="M 106.72888874123014 80.10723608172694 l 1.8858026103589787 -5.575040332361951 a26.885348434264465,26.885348434264465 0 0,0 0.43591933135359784,0.15163537188066076 l -1.9812277137575949 5.541846527912699" fill="#ff2c04" stroke="none" /><path d="M 107.74402155503746 80.48000691201159 l 3.28037403233644 -8.268685460407939 a29.89561763090056,29.89561763090056 0 0,0 0.4754051494188418,0.1933431355575735 l -3.4218336429457215 8.211155068271072" fill="#ff5708" stroke="none" /><path d="M 108.07796709384702 80.6158196554323 l 2.236236731441234 -5.366154082061227 a26.813464057811775,26.813464057811775 0 0,0 0.42335258070232085,0.18070404260127884 l -2.328024387313985 5.326975389800547" fill="#ff2a04" stroke="none" /><path d="M 109.06512990194946 81.05736502329252 l 3.899376053838323 -8.148196222636464 a30.03317415374213,30.03317415374213 0 0,0 0.4631397919912753,0.22654488049387403 l -4.038676095091666 8.08005759204537" fill="#ff5908" stroke="none" /><path d="M 109.71004243097381 81.37971332152246 l 2.7442643408503797 -5.262488718397145 a26.935046274774965,26.935046274774965 0 0,0 0.4081444272352362,0.21731391867647482 l -2.8341975838721756 5.214604331998097" fill="#ff2c04" stroke="none" /><path d="M 110.02825361518725 81.54914285379988 l 5.662179512374246 -10.417772558199056 a32.85707644846384,32.85707644846384 0 0,0 0.4932563957417879,0.27360100790157676 l -5.840180096272134 10.319038634864333" fill="#ff810b" stroke="none" /><path d="M 110.34350942703115 81.72400993836675 l 2.373547571684874 -4.193831130231527 a25.818915606643284,25.818915606643284 0 0,0 0.3838504725747986,0.22161617366962505 l -2.4451905121200697 4.15246805928573" fill="#ff1c02" stroke="none" /><line stroke="#e1ed5e" stroke-width="0.3" x1="143.13028292997686" x2="145.6673583964461" y1="26.7553504044142" y2="22.446841604673864" /><path d="M 143.63769802327073 25.89364864446614 a86.0,86.0 0 0,1 29.32050498858742,28.57503671076993" fill="none" id="id38" stroke="none" /><text fill="#e1ed5e" style="font-size:6.75px; font-family:Arial;" text-anchor="middle"><textPath startOffset="20.669276256404974" xlink:href="#id38">February</textPath></text><path d="M 110.65571695917076 81.90426304109057 l 1.681312395718656 -2.855236017928758 a24.313485187846005,24.313485187846005 0 0,0 0.35783342121377226,0.2148686880495943 l -1.7300785734898625 2.825953329343243" fill="#ff0500" stroke="none" /><path d="M 111.27062007382361 82.28071324371311 l 1.943292477758539 -3.0551785473376376 a24.620842665765117,24.620842665765117 0 0,0 0.3546742215396968,0.22989554534965345 l -1.995452331555243 3.0213691602840895" fill="#ff0a01" stroke="none" /><path d="M 111.8722381534696 82.67804972795209 l 3.3518347500575825 -4.890427071129108 a26.928834044711152,26.928834044711152 0 0,0 0.37906169202779844,0.26461450044997836 l -3.4352915332591416 4.8321677548740025" fill="#ff2c04" stroke="none" /><path d="M 115.6541949942343 86.00192230759917 l 4.559825382675864 -4.077423974467373 a27.11697586950091,27.11697586950091 0 0,0 0.3073114398020526,0.3496640061118168 l -4.629147886436507 3.998547690544258" fill="#ff2f04" stroke="none" /><path d="M 116.1254893667686 86.54754324733833 l 4.78228919464395 -3.9895557341811596 a27.22790854921185,27.22790854921185 0 0,0 0.296334528781054,0.36147994179249043 l -4.850070542663632 3.9068735106901737" fill="#ff3104" stroke="none" /><path d="M 116.57777611688842 87.10902102172516 l 11.765272627378256 -9.148747156664626 a35.90373156404513,35.90373156404513 0 0,0 0.37416479325681146,0.489793725224389 l -11.920589397989374 8.945432518199356" fill="#ffaa0f" stroke="none" /><path d="M 116.7966241395341 87.39550010848427 l 14.050068856156232 -10.543433603207479 a38.56611587710772,38.56611587710772 0 0,0 0.392819728505214,0.5329354049305774 l -14.22899060424527 10.300691889008025" fill="#ffce13" stroke="none" /><path d="M 117.21940702142032 87.97951657250589 l 2.701197602312143 -1.885645711991639 a24.29425685669611,24.29425685669611 0 0,0 0.23578185161139661,0.3440127679270345 l -2.733169190738865 1.8389982089945558" fill="#ff0500" stroke="none" /><line stroke="#e1ed5e" stroke-width="0.3" x1="172.87174338648825" x2="177.1583165268699" y1="56.24261187166439" y2="53.66864786411523" /><path d="M 173.72905801456457 55.72781907015455 a86.0,86.0 0 0,1 12.242430191666344,42.057860355516425" fill="none" id="id39" stroke="none" /><text fill="#e1ed5e" style="font-size:6.75px; font-family:Arial;" text-anchor="middle"><textPath startOffset="22.145653131862474" xlink:href="#id39">March</textPath></text><path d="M 118.18653347947321 89.5 l 6.559951207586965 -3.7873895955711463 a28.57477919114229,28.57477919114229 0 0,0 0.24161558982039735,0.42691159605397583 l -6.624000162428739 3.6742212294180523" fill="#ff4406" stroke="none" /><path d="M 118.53625476483649 90.13048839642627 l 5.227511591824461 -2.7833554818851654 a26.922325994168112,26.922325994168112 0 0,0 0.21370164322161558,0.40980107849529823 l -5.274521304021022 2.693208160285369" fill="#ff2c04" stroke="none" /><path d="M 119.16976305983485 91.42560881287824 l 12.7922638108791 -5.721816891579428 a35.01360774204454,35.01360774204454 0 0,0 0.24070374410950113,0.5507772719612996 l -12.88860143700557 5.501377549842279" fill="#ff9e0e" stroke="none" /><path d="M 119.58574465831526 92.42381321644754 l 14.016185608076352 -5.421761695164485 a36.028271985800615,36.028271985800615 0 0,0 0.21817574818007665,0.5787370928858462 l -14.10719204007087 5.1803563220844815" fill="#ffac0f" stroke="none" /><path d="M 119.71291397450082 92.76114493625339 l 27.154720192402863 -9.971589386717003 a49.92769302286269,49.92769302286269 0 0,0 0.28853411120727707,0.8070812614193467 l -27.321894473654083 9.50397316891674" fill="#a5ff21" stroke="none" /><path d="M 119.94978838288452 93.4421083053983 l 15.962022712807022 -5.247033911756486 a37.802307399737984,37.802307399737984 0 0,0 0.19735555790694134,0.618213474237488 l -16.04974298649122 4.972251403827612" fill="#ffc412" stroke="none" /><path d="M 120.05942366710727 93.78553927170692 l 39.14199982802075 -12.126291602133923 a61.97734860330473,61.97734860330473 0 0,0 0.3061199368358483,1.0189737096128628 l -39.34439608486023 11.452580288930337" fill="#31ff3d" stroke="none" /><path d="M 120.26092885502905 94.47779374421319 l 35.60282646836677 -9.703708672690336 a57.90153404048514,57.90153404048514 0 0,0 0.253141423926644,0.961219218725484 l -35.76415737309815 9.091108949592053" fill="#4eff2c" stroke="none" /><path d="M 120.43855184770803 95.1765574152323 l 8.291852163208262 -1.9568545329742624 a29.519629801800278,29.519629801800278 0 0,0 0.1121593251915371,0.49419468157825164 l -8.324222349957465 1.8142255174569846" fill="#ff5207" stroke="none" /><path d="M 120.592083275326 95.88100663000786 l 34.29171151247678 -6.859302697887848 a55.97100959303555,55.97100959303555 0 0,0 0.18036979732722283,0.9437709966376016 l -34.40440760208616 6.269629136216933" fill="#62ff29" stroke="none" /><path d="M 120.65975698304385 96.23510406497455 l 34.57436770968166 -6.3006015294899 a56.14376875290537,56.14376875290537 0 0,0 0.16464877358673663,0.9496503723393865 l -34.67743130076063 5.706158124229921" fill="#60ff29" stroke="none" /><path d="M 120.82617615685814 97.30363454192243 l 37.135892271529 -4.807984741013862 a58.44584372226682,58.44584372226682 0 0,0 0.12028130630810029,0.9961017631307307 l -37.21295566409677 4.169789300959718" fill="#48ff2c" stroke="none" /><path d="M 120.86939407059847 97.66154086499901 l 19.392729144812563 -2.1729957500383854 a40.51409373283185,40.51409373283185 0 0,0 0.07151240597379065,0.6918176569713778 l -19.427173943268016 1.839773570784076" fill="#ffe715" stroke="none" /><path d="M 120.9064616781168 98.02013634271609 l 8.313815001947303 -0.7873269245252772 a29.351012128639645,29.351012128639645 0 0,0 0.04319683119290109,0.5020126568966204 l -8.326105455837945 0.6444932202529947" fill="#ff4f07" stroke="none" /><path d="M 120.98066250479742 99.09900007780936 l 18.218765716459345 -0.7823921903889325 a39.23555762160335,39.23555762160335 0 0,0 0.023121538400978203,0.6731583627331992 l -18.22951194185717 0.46952756309161336" fill="#ffd614" stroke="none" /><line stroke="#e1ed5e" stroke-width="0.3" x1="184.99686870605535" x2="189.99668451229388" y1="99.2704041080226" y2="99.22748670261217" /><path d="M 185.99683186730306 99.26182062694052 a86.0,86.0 0 0,1 -10.086455211305974,41.156179273409016" fill="none" id="id40" stroke="none" /><text fill="#e1ed5e" style="font-size:6.75px; font-family:Arial;" text-anchor="middle"><textPath startOffset="21.40746469413373" xlink:href="#id40">April</textPath></text><path d="M 120.99922638620191 99.81974689727618 l 42.65396680516697 -0.36613300503119744 a63.655538181971856,63.655538181971856 0 0,0 0.0,1.0927722155100434 l -42.65396680516697 -0.3661330050311923" fill="#33ff52" stroke="none" /><path d="M 120.99303781780057 100.54070618675476 l 23.06457326573889 0.594061591651528 a44.07222245700038,44.07222245700038 0 0,0 -0.025971787983334344,0.756140269428293 l -23.05097679075871 -0.9899081256439318" fill="#eaff1a" stroke="none" /><path d="M 120.93736805541906 101.62068470465957 l 16.467284658724772 1.2746719789722039 a37.51654481680261,37.51654481680261 0 0,0 -0.05521430900881991,0.6416739653992082 l -16.44297672701821 -1.5571669917470694" fill="#ffc011" stroke="none" /><path d="M 120.9064616781168 101.97986365728391 l 18.955674906140214 1.79512212175237 a40.04048514558593,40.04048514558593 0 0,0 -0.07067642801048854,0.6837303285145037 l -18.922066085648062 -2.120256972549805" fill="#ffe115" stroke="none" /><path d="M 119.58574465831526 107.57618678355244 l 15.959889155355949 6.1736279827601255 a38.112327261970165,38.112327261970165 0 0,0 -0.24127158506338156,0.6081620046242834 l -15.851558895326443 -6.446691004597973" fill="#ffc812" stroke="none" /><path d="M 119.4528033332814 107.91128576633889 l 5.3824108393175445 2.188979630962943 a26.81050585301948,26.81050585301948 0 0,0 -0.17704401222462324,0.42484117872948696 l -5.344040982556435 -2.281053319133708" fill="#ff2a04" stroke="none" /><path d="M 119.0197475246899 108.90220220490707 l 19.991244580917286 9.356911880983551 a43.072645057684994,43.072645057684994 0 0,0 -0.31919033264315566,0.6669850321784032 l -19.827674990314218 -9.698709415227057" fill="#f7ff19" stroke="none" /><path d="M 118.8641267826498 109.22738970284198 l 10.80895943049013 5.287203701317105 a33.03279381312598,33.03279381312598 0 0,0 -0.2535346939837427,0.5072392241259255 l -10.716604823294654 -5.471974781606776" fill="#ff830c" stroke="none" /><path d="M 118.70294669586154 109.54985784667822 l 3.0559027275394524 1.5603657068506498 a24.431221738579218,24.431221738579218 0 0,0 -0.19392797756690322,0.37188246734684693 l -3.0286666809976 -1.6125944173019995" fill="#ff0701" stroke="none" /><line stroke="#e1ed5e" stroke-width="0.3" x1="174.33088141563837" x2="178.70328620479359" y1="141.23008692659167" y2="143.65538615756765" /><path d="M 175.20536237346943 141.71514677278685 a86.0,86.0 0 0,1 -30.301960400862466,31.631185727798858" fill="none" id="id41" stroke="none" /><text fill="#e1ed5e" style="font-size:6.75px; font-family:Arial;" text-anchor="middle"><textPath startOffset="22.145653131862474" xlink:href="#id41">May</textPath></text><path d="M 117.81537515405839 111.11811171558189 l 6.572633440177901 4.101809376538473 a28.74753835101213,28.74753835101213 0 0,0 -0.2648638133441469,0.41640990728706334 l -6.501251935207865 -4.214032958504208" fill="#ff4706" stroke="none" /><path d="M 116.1254893667686 113.45245675266167 l 10.063410245623725 8.395254744487422 a34.10543887081097,34.10543887081097 0 0,0 -0.3789040144064751,0.44634797623023514 l -9.917811667710136 -8.566769503167215" fill="#ff920d" stroke="none" /><path d="M 115.89218393027572 113.72728997021213 l 8.653627601808841 7.474797416480715 a32.43494062460381,32.43494062460381 0 0,0 -0.3675789052293292,0.4182373186220199 l -8.524037632620926 -7.622247012914029" fill="#ff7b0b" stroke="none" /><path d="M 114.65682725009322 115.03919595460226 l 10.348704056352704 10.618682032885784 a35.827409880404005,35.827409880404005 0 0,0 -0.44413621676429194,0.42547244889251257 l -10.1648953537231 -10.794766612083878" fill="#ffa90f" stroke="none" /><path d="M 114.39649973595853 115.28858382429668 l 10.153133010477168 10.782275411168115 a35.810252292608716,35.810252292608716 0 0,0 -0.45115841135047696,0.41758549014200685 l -9.966544827812724 -10.954978647442502" fill="#ffa90f" stroke="none" /><path d="M 113.31354834802062 116.24036423190432 l 7.525383383519637 9.179744117671653 a32.87009254954993,32.87009254954993 0 0,0 -0.4394406267446522,0.3539822625356881 l -7.366691986419732 -9.307574674000744" fill="#ff810b" stroke="none" /><path d="M 112.45986205192187 116.90419585922612 l 8.838745907262837 11.991456353504184 a35.89692769302286,35.89692769302286 0 0,0 -0.4991706931235842,0.3613610868753077 l -8.631594203765285 -12.141418211752567" fill="#ffaa0f" stroke="none" /><path d="M 111.8722381534696 117.32195027204791 l 2.9992917077902748 4.3760562365846445 a26.30524447449605,26.30524447449605 0 0,0 -0.37466648880178866,0.2520923344999735 l -2.9237289308914827 -4.426898245141739" fill="#ff2303" stroke="none" /><path d="M 111.5731344415666 117.5232005979908 l 4.2362605257731225 6.41423836846259 a28.68689515277015,28.68689515277015 0 0,0 -0.41324752141189125,0.2678620506642792 l -4.125527372104221 -6.486014260830764" fill="#ff4606" stroke="none" /><path d="M 110.96478420261333 117.91015095944535 l 1.6045046175709925 2.620837709598927 a24.072983138232683,24.072983138232683 0 0,0 -0.354293835236804,0.21274326837098934 l -1.5592780257767518 -2.6479949785058396" fill="#ff0200" stroke="none" /><line stroke="#e1ed5e" stroke-width="0.3" x1="143.1302829299769" x2="145.66735839644613" y1="173.24464959558577" y2="177.55315839532614" /><path d="M 143.63769802327073 174.10635135553383 a86.0,86.0 0 0,1 -40.68552437913181,11.842963189579606" fill="none" id="id42" stroke="none" /><text fill="#e1ed5e" style="font-size:6.75px; font-family:Arial;" text-anchor="middle"><textPath startOffset="21.407464694133747" xlink:href="#id42">June</textPath></text><path d="M 110.65571695917076 118.09573695890943 l 2.99982396468506 5.094356916195537 a26.91197227739509,26.91197227739509 0 0,0 -0.4001009737968996,0.23099840492467227 l -2.911930523027762 -5.145102218396381" fill="#ff2c04" stroke="none" /><path d="M 110.34350942703117 118.27599006163325 l 7.303066383547532 12.903818533423232 a35.827114059924774,35.827114059924774 0 0,0 -0.5378431394755137,0.2983325230525367 l -7.080479055915924 -13.027283971908913" fill="#ffa90f" stroke="none" /><path d="M 110.02825361518725 118.45085714620011 l 2.8228963922901715 5.193811412366943 a26.911380636436633,26.911380636436633 0 0,0 -0.4077858238637766,0.2171229825795898 l -2.7333217526398412 -5.241504862669101" fill="#ff2c04" stroke="none" /><path d="M 109.71004243097381 118.62028667847754 l 2.0061867660495696 3.847127649540495 a25.33879896885433,25.33879896885433 0 0,0 -0.3874094563510036,0.1978140288144859 l -1.9398500879849836 -3.880999630027817" fill="#ff1502" stroke="none" /><path d="M 109.3889696526874 118.78422872680471 l 3.9827303265488365 7.968128578375101 a29.908042091028186,29.908042091028186 0 0,0 -0.4612101378961002,0.22560098997972236 l -3.8453599393906672 -8.035323318452047" fill="#ff5708" stroke="none" /><path d="M 108.07796709384702 119.3841803445677 l 5.736131558885667 13.764627575952794 a35.91201453746355,35.91201453746355 0 0,0 -0.5710789068785708,0.23225281981415705 l -5.498998190816655 -13.861067652346241" fill="#ffaa0f" stroke="none" /><path d="M 106.72888874123015 119.89276391827305 l 0.9619062523208313 2.843704915446547 a24.00198622321768,24.00198622321768 0 0,0 -0.3914349777497329,0.12867245207291786 l -0.9129485369233642 -2.8597982889214837" fill="#ff0100" stroke="none" /><path d="M 106.38641147887787 120.00534299687104 l 1.2968223452651064 4.062277526094127 a25.26425220808858,25.26425220808858 0 0,0 -0.41428485244519286,0.12834650628916233 l -1.2268968599482892 -4.083940620189934" fill="#ff1402" stroke="none" /><path d="M 106.0420521117495 120.11202640906438 l 5.571465033105444 18.545595074410887 a40.36440857034188,40.36440857034188 0 0,0 -0.6653207563219954,0.1936651756767342 l -5.252284264401841 -18.63850394439014" fill="#ffe515" stroke="none" /><path d="M 105.69591212413111 120.21278271476187 l 5.7685261977529185 20.470464445126566 a42.2677175337024,42.2677175337024 0 0,0 -0.7000713475362091,0.1908075588499986 l -5.416273449282015 -20.566472498120707" fill="#fffd17" stroke="none" /><path d="M 104.29559338865022 120.5559693870025 l 2.6665245863112474 12.760285438265646 a34.035921058192116,34.035921058192116 0 0,0 -0.5729437005838935,0.11460478634095156 l -2.447084400196395 -12.804179621269459" fill="#ff910d" stroke="none" /><path d="M 103.58742460773223 120.69131181640829 l 1.5444992644792888 8.908261322808979 a30.041161306681317,30.041161306681317 0 0,0 -0.5088722338665765,0.08373473243414684 l -1.39134952755964 -8.933462053738795" fill="#ff5908" stroke="none" /><path d="M 103.2317021107853 120.74984581791261 l 3.2140388049353183 20.63643472355504 a41.88522165405908,41.88522165405908 0 0,0 -0.7114003338123909,0.10455135065448505 l -2.8593133655152423 -20.688567147508408" fill="#fff817" stroke="none" /><path d="M 102.51750503828377 120.84855314841334 l 1.4325759417164767 11.863783867688023 a32.949964078941804,32.949964078941804 0 0,0 -0.5621328177632445,0.06298815472722606 l -1.228707222352433 -11.88662778292222" fill="#ff820c" stroke="none" /><path d="M 101.80034050326958 120.92268563240118 l 1.1617546114789081 13.50134959127 a34.55124033300934,34.55124033300934 0 0,0 -0.5913708116502839,0.045775840912137426 l -0.9298148050533883 -13.51930319917719" fill="#ff980e" stroke="none" /><path d="M 101.08105385017728 120.97215588758144 l 0.40401130661374685 7.837711415818445 a28.84811731395005,28.84811731395005 0 0,0 -0.4947785100785714,0.0212479181236726 l -0.26940703593434595 -7.843491902367949" fill="#ff4806" stroke="none" /><path d="M 100.72087961077811 120.9876233191556 l 0.6098672580892956 17.755619795722275 a38.766090521066644,38.766090521066644 0 0,0 -0.665275375681941,0.01713513378334657 l -0.3049785683366109 -17.763472646855664" fill="#ffd013" stroke="none" /><line stroke="#e1ed5e" stroke-width="0.3" x1="101.45913802915013" x2="101.54496967792366" y1="184.9874750549273" y2="189.98673829345242" /><path d="M 101.47630435890484 185.9873277026323 a86.0,86.0 0 0,1 -42.54439059252881,-10.42667462771756" fill="none" id="id43" stroke="none" /><text fill="#e1ed5e" style="font-size:6.75px; font-family:Arial;" text-anchor="middle"><textPath startOffset="22.145653131862474" xlink:href="#id43">July</textPath></text><path d="M 99.63950707515114 120.99690560180557 l -0.42125809042015405 24.536171860397815 a45.53978785445632,45.53978785445632 0 0,0 -0.7815206296566144,-0.02012919917542574 l 0.8423920341475123 -24.52532494387234" fill="#d9ff1c" stroke="none" /><path d="M 99.27912038922189 120.98762331915562 l -0.413056939075212 12.025702096521625 a33.03279381312598,33.03279381312598 0 0,0 -0.5665505422319985,-0.02433011800039232 l 0.6194332419080493 -12.016839410095404" fill="#ff830c" stroke="none" /><path d="M 98.91894614982273 120.97215588758144 l -0.5865397469104736 11.378714394710261 a32.393821577990956,32.393821577990956 0 0,0 -0.555099983373994,-0.033393436564920345 l 0.781784082416914 -11.36696898032065" fill="#ff7a0b" stroke="none" /><path d="M 98.19965949673042 120.92268563240118 l -2.0323921676812073 23.619477720421454 a44.70675738494696,44.70675738494696 0 0,0 -0.7640607021475075,-0.07235734288428626 l 2.43755243321373 -23.581108622031984" fill="#e3ff1b" stroke="none" /><path d="M 97.48249496171623 120.84855314841334 l -1.3636352636618 11.292856156063472 a32.37488906732029,32.37488906732029 0 0,0 -0.5511781359710605,-0.07136104467216539 l 1.5572912215236545 -11.26778351519091" fill="#ff7a0b" stroke="none" /><path d="M 97.12497278360702 120.80226474461374 l -1.6054452645485071 11.616202182609042 a32.72661961712378,32.72661961712378 0 0,0 -0.5558458855121472,-0.08169020356596993 l 1.8046162556683392 -11.58693090574419" fill="#ff7f0b" stroke="none" /><path d="M 96.05791012581884 120.62667999033965 l -5.553932563724376 29.06052204191946 a50.58648523010607,50.58648523010607 0 0,0 -0.8515476339751799,-0.1703333757774308 l 6.051976683230514 -28.960899269479167" fill="#9dff22" stroke="none" /><path d="M 95.70440661134978 120.55596938700252 l -3.0311014949395885 14.50491792437885 a35.8182394455479,35.8182394455479 0 0,0 -0.6007871477741388,-0.1309387625929538 l 3.279651059332864 -14.450747703652176" fill="#ffa90f" stroke="none" /><path d="M 95.00130118170881 120.39639698878247 l -2.116326374279701 8.635333805207244 a29.890884503232897,29.890884503232897 0 0,0 -0.49731984886862524,-0.12641676082826472 l 2.264251516373705 -8.597731812543715" fill="#ff5708" stroke="none" /><path d="M 94.6519064749342 120.30758222061772 l -2.280448956933356 8.659236132613481 a29.954485906267166,29.954485906267166 0 0,0 -0.49612987255425073,-0.13522240295620566 l 2.4287602304223017 -8.618813235513132" fill="#ff5808" stroke="none" /><path d="M 94.30408787586889 120.21278271476187 l -4.013030820104773 14.240830656563906 a35.79546126864726,35.79546126864726 0 0,0 -0.5900114533487731,-0.17174373515077496 l 4.256902285835153 -14.169843227110615" fill="#ffa90f" stroke="none" /><path d="M 89.97174638481275 118.45085714620012 l -1.8601761343980858 3.42251457128799 a24.895364070489794,24.895364070489794 0 0,0 -0.3737337243424597,-0.20730379686842373 l 1.9186540468966482 -3.390077858986418" fill="#ff0e01" stroke="none" /><line stroke="#e1ed5e" stroke-width="0.3" x1="58.13341422392154" x2="55.67067388415222" y1="173.97424548756322" y2="178.32567169271397" /><path d="M 57.64086615596768 174.84453072859336 a86.0,86.0 0 0,1 -31.369924170532247,-30.572349798747897" fill="none" id="id44" stroke="none" /><text fill="#e1ed5e" style="font-size:6.75px; font-family:Arial;" text-anchor="middle"><textPath startOffset="22.145653131862474" xlink:href="#id44">August</textPath></text><path d="M 89.65649057296885 118.27599006163327 l -16.519249993382484 29.187931894344324 a54.538351012128636,54.538351012128636 0 0,0 -0.810823046498093,-0.46812890416083 l 17.01786550774098 -28.900056092907324" fill="#71ff27" stroke="none" /><path d="M 89.03521579738668 117.91015095944536 l -3.8575763211239433 6.301061012440625 a28.388116468748677,28.388116468748677 0 0,0 -0.4134335396304219,-0.2580131061417645 l 3.965173989544078 -6.2339121094573136" fill="#ff4106" stroke="none" /><path d="M 88.72937992617639 117.7192867562869 l -17.451846057203774 27.43720067650719 a53.51717871782952,53.51717871782952 0 0,0 -0.7709388325339437,-0.49971323702977516 l 17.920270521994727 -27.133573597773516" fill="#7cff26" stroke="none" /><path d="M 88.1277618465304 117.32195027204791 l -10.55856377158643 15.40526008924584 a39.676330135654815,39.676330135654815 0 0,0 -0.5585008548718965,-0.38987697206283617 l 10.821459717632093 -15.221738301377874" fill="#ffdc14" stroke="none" /><path d="M 87.83215693770417 117.11559508785305 l -8.571259775080158 12.056550281919447 a35.792798884334196,35.792798884334196 0 0,0 -0.49772271267102586,-0.36031286069272644 l 8.776963498125138 -11.907636649853655" fill="#ffa90f" stroke="none" /><path d="M 87.54013794807813 116.9041958592261 l -8.770644842645142 11.899064180162119 a35.78214934708194,35.78214934708194 0 0,0 -0.49131789593236436,-0.3686941086812326 l 8.973615727488273 -11.746751044216872" fill="#ffa90f" stroke="none" /><path d="M 86.96720088162412 116.46651593811092 l -13.451014847455879 16.994917849773522 a42.67387905168406,42.67387905168406 0 0,0 -0.5705075557006204,-0.45956050276152305 l 13.740773173511762 -16.76150905321859" fill="#fcff18" stroke="none" /><path d="M 86.68645165197938 116.24036423190432 l -5.639630257833296 6.879431923503571 a29.89561763090056,29.89561763090056 0 0,0 -0.39408925030073844,-0.3287632688707602 l 5.756893842295928 -6.7816064707209405" fill="#ff5708" stroke="none" /><path d="M 85.86807049272751 115.53346607816431 l -13.942412865385391 15.325154090301222 a41.718378903773825,41.718378903773825 0 0,0 -0.5255924308086669,-0.4864805073171247 l 14.203435067508025 -15.083555836851719" fill="#fff617" stroke="none" /><path d="M 85.34317274990678 115.03919595460226 l -16.75658824311252 17.193735712287328 a45.008494273760725,45.008494273760725 0 0,0 -0.5486922950889076,-0.544002645532828 l 17.049272458331394 -16.90355305652584" fill="#dfff1b" stroke="none" /><path d="M 85.08716467003676 114.78537596483092 l -10.072555302949443 9.986465603990947 a35.18400033808055,35.18400033808055 0 0,0 -0.42155994635121186,-0.4325576423606408 l 10.242502050451463 -9.81208526956257" fill="#ffa10e" stroke="none" /><path d="M 84.83555147118756 114.52719865689866 l -21.373009461371062 20.47485958695969 a50.597726408316774,50.597726408316774 0 0,0 -0.5954729956202202,-0.6323716858692826 l 21.721338290727537 -20.104946441145916" fill="#9dff22" stroke="none" /><path d="M 84.3458050057657 113.99807769240083 l -13.217716096217782 11.819363237720005 a38.73147952499683,38.73147952499683 0 0,0 -0.438936362069693,-0.49942900559867415 l 13.418663522246067 -11.59072195431003" fill="#ffd013" stroke="none" /><path d="M 83.8745106332314 113.45245675266167 l -11.340020005463126 9.460248010344928 a35.76794996407894,35.76794996407894 0 0,0 -0.38927993969541785,-0.47485823039559993 l 11.500746764397173 -9.264187498250834" fill="#ffa90f" stroke="none" /><path d="M 83.64595745247003 113.17365903436017 l -2.3085810529631043 1.8596294803888394 a23.964417022355576,23.964417022355576 0 0,0 -0.25531640752408247,-0.32258394037768845 l 2.3401638911287486 -1.8197255960964702" fill="#ff0000" stroke="none" /><path d="M 82.78059297857968 112.02048342749411 l -12.148354841648622 8.48049516825406 a35.81557706123484,35.81557706123484 0 0,0 -0.347599151760061,-0.5071575505444335 l 12.292143730224009 -8.270702882639577" fill="#ffa90f" stroke="none" /><path d="M 82.576782715395 111.72311816256416 l -19.668460797255783 13.233818199909905 a44.70616574398851,44.70616574398851 0 0,0 -0.4229534553757098,-0.6404054389571774 l 19.892738691552218 -12.894232882613666" fill="#e3ff1b" stroke="none" /><line stroke="#e1ed5e" stroke-width="0.3" x1="26.387840678322732" x2="22.057713659400548" y1="142.50000000000003" y2="145.00000000000006" /><path d="M 25.521815274538298 143.00000000000003 a86.0,86.0 0 0,1 -11.493303480769221,-40.785679425670985" fill="none" id="id45" stroke="none" /><text fill="#e1ed5e" style="font-size:6.75px; font-family:Arial;" text-anchor="middle"><textPath startOffset="21.40746469413373" xlink:href="#id45">September</textPath></text><path d="M 80.68587082218212 108.24405325689762 l -18.53246591832879 7.910407691992252 a41.150107763174574,41.150107763174574 0 0,0 -0.27173602101384975,-0.652067528408212 l 18.665527783879124 -7.591107654142759" fill="#ffef16" stroke="none" /><path d="M 80.41425534168474 107.57618678355246 l -16.59086857517545 6.417704377328089 a38.78886869796729,38.78886869796729 0 0,0 -0.23489304323486332,-0.6230817041528002 l 16.69859230222475 -6.131954392981145" fill="#ffd113" stroke="none" /><path d="M 79.83685265289637 105.86919833188381 l -17.52420607448478 5.1010409877666545 a39.25153192748172,39.25153192748172 0 0,0 -0.18276542763105355,-0.6485700263573683 l 17.60918999419041 -4.799463037506291" fill="#ffd714" stroke="none" /><path d="M 79.73907114497094 105.5222062557868 l -23.313667941836744 6.354243868823971 a45.16409584583527,45.16409584583527 0 0,0 -0.19745424231385503,-0.7497659197254043 l 23.419311664955334 -5.953097444725764" fill="#ddff1b" stroke="none" /><path d="M 79.22317932658666 103.0534771498775 l -17.592791709685674 2.5855345402687226 a38.781769006465794,38.781769006465794 0 0,0 -0.09114728372181877,-0.6594963400424992 l 17.634583509962702 -2.2831498920261377" fill="#ffd013" stroke="none" /><path d="M 79.13060592940153 102.33845913500099 l -20.610691077428726 2.3094709250135064 a41.73967797827832,41.73967797827832 0 0,0 -0.07367571434478414,-0.7127457030655868 l 20.647299184255175 -1.9553206996649881" fill="#fff617" stroke="none" /><path d="M 79.0935383218832 101.97986365728391 l -5.892118198510794 0.5579897194111657 a26.91848032793813,26.91848032793813 0 0,0 -0.03961679568660466,-0.46040721763941256 l 5.90082861689514 -0.4567614543960911" fill="#ff2c04" stroke="none" /><path d="M 79.03789590574601 101.26102812881392 l -33.20409808683851 1.997476087855001 a54.264125427883194,54.264125427883194 0 0,0 -0.0479550436890805,-0.9303150362752822 l 33.233494719984165 -1.4271892582029881" fill="#74ff27" stroke="none" /><path d="M 79.00696218219943 100.54070618675478 l -20.721860372296014 0.533721617691194 a41.72873262054684,41.72873262054684 0 0,0 -0.012297196005868111,-0.7162500174180436 l 20.727968999900547 -0.177924684304098" fill="#fff617" stroke="none" /><line stroke="#e1ed5e" stroke-width="0.3" x1="15.003131293944662" x2="10.003315487706104" y1="100.72959589197737" y2="100.7725132973878" /><path d="M 14.003168132696942 100.73817937305945 a86.0,86.0 0 0,1 10.791469493833604,-42.45332614584628" fill="none" id="id46" stroke="none" /><text fill="#e1ed5e" style="font-size:6.75px; font-family:Arial;" text-anchor="middle"><textPath startOffset="22.145653131862435" xlink:href="#id46">October</textPath></text><path d="M 79.00077361379809 100.18025310272382 l -14.846091279926485 0.12743583822145893 a35.8466382115539,35.8466382115539 0 0,0 0.0,-0.6153778818905475 l 14.846091279926485 0.12743583822145346" fill="#ffaa0f" stroke="none" /><path d="M 79.00077361379809 99.81974689727619 l -44.425570389200594 -0.3813400910897535 a65.42720703207539,65.42720703207539 0 0,0 0.01928098790601131,-1.123020883535375 l 44.412477969695914 1.1439078905941809" fill="#35ff67" stroke="none" /><path d="M 79.01933749520258 99.09900007780938 l -32.552847496491104 -1.397959337781402 a53.58285086421839,53.58285086421839 0 0,0 0.0473529783059776,-0.9186351286860784 l 32.52405292872856 1.9565662598441922" fill="#7cff26" stroke="none" /><path d="M 79.03789590574601 98.7389718711861 l -29.54549647633819 -1.7773837000765396 a50.5989096902337,50.5989096902337 0 0,0 0.05960079024300251,-0.8665824095578094 l 29.510631724930125 2.284309533788674" fill="#9dff22" stroke="none" /><path d="M 79.22317932658666 96.9465228501225 l -29.31156362876426 -4.307790454298983 a50.62642099480201,50.62642099480201 0 0,0 0.1337465854843572,-0.8587490221362969 l 29.233295551141637 4.81032765836673" fill="#9dff22" stroke="none" /><path d="M 79.48165901384962 95.52812308129327 l -14.515651758236595 -3.163618740007189 a35.856400287368466,35.856400287368466 0 0,0 0.13623577555108285,-0.6002799642656301 l 14.459205121127852 3.4123330382118273" fill="#ffaa0f" stroke="none" /><path d="M 79.94057633289273 93.78553927170692 l -8.606826205136292 -2.6664167592595867 a30.010395976841483,30.010395976841483 0 0,0 0.1566761091694321,-0.490785680458602 l 8.559785380189604 2.8137714734095804" fill="#ff5908" stroke="none" /><path d="M 80.05021161711548 93.44210830539832 l -59.84936514865357 -19.67367508380505 a84.0,84.0 0 0,0 0.46205831371054007,-1.3659933021033535 l 59.50282141337067 20.698170060382566" fill="#4dd2ff" stroke="none" /><path d="M 80.68587082218212 91.75594674310238 l -3.786972122808421 -1.6164332119449183 a25.117525250390905,25.117525250390905 0 0,0 0.17267236255902307,-0.39510815731269205 l 3.7586658782324207 1.6812034390334774" fill="#ff1101" stroke="none" /><path d="M 80.9802524753101 91.09779779509293 l -26.832716541966978 -12.559066204925315 a50.62642099480201,50.62642099480201 0 0,0 0.37516767628787306,-0.7839561510809145 l 26.613169607719197 13.017834858071316" fill="#9dff22" stroke="none" /><line stroke="#e1ed5e" stroke-width="0.3" x1="26.387840678322718" x2="22.05771365940052" y1="57.49999999999999" y2="54.99999999999999" /><path d="M 25.521815274538284 56.99999999999999 a86.0,86.0 0 0,1 29.574782752854787,-30.34633250058573" fill="none" id="id47" stroke="none" /><text fill="#e1ed5e" style="font-size:6.75px; font-family:Arial;" text-anchor="middle"><textPath startOffset="21.40746469413373" xlink:href="#id47">November</textPath></text><path d="M 81.99639281039701 89.18935116829357 l -29.301987224493086 -17.59500141383213 a55.178802349659804,55.178802349659804 0 0,0 0.4945913469138099,-0.8078777952009639 l 28.995627913123883 18.095416325157636" fill="#6aff28" stroke="none" /><path d="M 83.2033758604659 87.39550010848427 l -7.631581160412641 -5.726880777316887 a30.541393737057852,30.541393737057852 0 0,0 0.31828207753327004,-0.4166414564829957 l 7.532147105525064 5.857043147040766" fill="#ff6008" stroke="none" /><path d="M 85.34317274990677 84.96080404539775 l -20.66602525420602 -21.205162488272222 a50.60985504796517,50.60985504796517 0 0,0 0.6273875121597261,-0.6010230445693335 l 20.298965256180992 21.556797663147123" fill="#9dff22" stroke="none" /><path d="M 85.86807049272753 84.46653392183569 l -9.986252965992149 -10.976641343659361 a35.8395385200524,35.8395385200524 0 0,0 0.4586351153737283,-0.41011434825164916 l 9.79635282379503 11.146451221794411" fill="#ffaa0f" stroke="none" /><path d="M 86.40962598614128 83.9905735841838 l -9.60069400077478 -11.309593392311012 a35.83510121286396,35.83510121286396 0 0,0 0.4723845596964975,-0.39408000063787985 l 9.405135106916374 11.472735576860773" fill="#ffa90f" stroke="none" /><path d="M 86.96720088162412 83.53348406188908 l -9.631629409448697 -12.169249118329784 a36.51962980180028,36.51962980180028 0 0,0 0.4949106412949862,-0.38484550811123414 l 9.421308823518466 12.332795678061824" fill="#ffb310" stroke="none" /><path d="M 88.4268655584334 82.4767994020092 l -6.533965195784524 -9.89325609273089 a32.85618898702616,32.85618898702616 0 0,0 0.47330805894542305,-0.3067925654626848 l 6.363171504582075 10.003962499897481" fill="#ff810b" stroke="none" /><path d="M 88.72937992617638 82.28071324371311 l -9.533564273238966 -14.988346520468175 a38.76342813675358,38.76342813675358 0 0,0 0.5645355626334259,-0.35231194395294546 l 9.27486458181584 15.149794261262656" fill="#ffd013" stroke="none" /><path d="M 89.03521579738668 82.08984904055464 l -8.043838224283993 -13.139005221456776 a36.40573891729704,36.40573891729704 0 0,0 0.535801017745654,-0.32173311634260965 l 7.8171044499809055 13.275152338335308" fill="#ffb110" stroke="none" /><line stroke="#e1ed5e" stroke-width="0.3" x1="56.869717070023135" x2="54.33264160355391" y1="26.7553504044142" y2="22.446841604673864" /><path d="M 56.362301976729285 25.89364864446614 a86.0,86.0 0 0,1 42.16139366436587,-11.88097634709845" fill="none" id="id48" stroke="none" /><text fill="#e1ed5e" style="font-size:6.75px; font-family:Arial;" text-anchor="middle"><textPath startOffset="22.145653131862474" xlink:href="#id48">December</textPath></text><path d="M 89.34428304082924 81.90426304109057 l -15.020584663402765 -25.50823657192169 a50.60216371550521,50.60216371550521 0 0,0 0.7523036502162814,-0.4343427149647058 l 14.580488545326084 25.762326184162568" fill="#9dff22" stroke="none" /><path d="M 90.28995756902619 81.37971332152246 l -8.227321728445876 -15.776974227327408 a38.79330600515573,38.79330600515573 0 0,0 0.5931178351424057,-0.3028501927556087 l 7.955276671589887 15.915882371755849" fill="#ffd113" stroke="none" /><path d="M 90.93487009805054 81.0573650232925 l -6.400590317871959 -13.374772048310433 a35.827409880404005,35.827409880404005 0 0,0 0.5570501751763254,-0.26072760909476694 l 6.170051428824111 13.482675888975743" fill="#ffa90f" stroke="none" /><path d="M 91.5904679813234 80.7573450057729 l -11.846246627895304 -27.106530581114118 a50.58204792291764,50.58204792291764 0 0,0 0.7986301389184683,-0.34088771682074953 l 11.379181413806403 27.305892947594273" fill="#9dff22" stroke="none" /><path d="M 92.25597844496254 80.48000691201159 l -8.817334717358586 -22.22544339708866 a44.91057769513587,44.91057769513587 0 0,0 0.7190562823116237,-0.2781464170864091 l 8.434506172553432 22.373529702313114" fill="#e0ff1b" stroke="none" /><path d="M 92.592206182469 80.34994680014964 l -6.791808145034056 -18.016078020051854 a40.253771711110176,40.253771711110176 0 0,0 0.6486815730418046,-0.23820485879697095 l 6.481537420338125 18.130013727857545" fill="#ffe415" stroke="none" /><path d="M 92.93061703081487 80.22567764915836 l -8.55816680033245 -23.938715695515917 a46.42251616447618,46.42251616447618 0 0,0 0.7526951810072202,-0.26182645612527244 l 8.145965847280225 24.082100584209773" fill="#ceff1d" stroke="none" /><path d="M 93.61358852112211 79.99465700312896 l -10.799205988596851 -33.82835894778625 a56.51029032667033,56.51029032667033 0 0,0 0.9266594196730202,-0.2870814569565 l 10.216905936052216 34.008756992549394" fill="#5cff2a" stroke="none" /><path d="M 93.95794788825049 79.88797359093562 l -1.295412432078597 -4.312006676329573 a25.502387693868066,25.502387693868066 0 0,0 0.42035219812354807,-0.12235839859519083 l 1.2212002215734246 4.333608769227284" fill="#ff1702" stroke="none" /><path d="M 94.6519064749342 79.69241777938228 l -8.489342276578633 -32.23541538168319 a54.334530701939734,54.334530701939734 0 0,0 0.9040094010638535,-0.2297956546491696 l 7.9347275822894 32.376396268167625" fill="#74ff27" stroke="none" /><path d="M 95.00130118170881 79.60360301121753 l -5.803121127383561 -23.67871451966543 a45.37945315471411,45.37945315471411 0 0,0 0.758199571088351,-0.17893303430645166 l 5.3957894025553035 23.774843697618113" fill="#dbff1b" stroke="none" /><path d="M 95.35216902796891 79.52079915486377 l -3.3309160673073555 -14.676630787816507 a36.04986688078435,36.04986688078435 0 0,0 0.6046722852995219,-0.13178551023388224 l 3.0784813653887153 14.731647756184103" fill="#ffac10" stroke="none" /><path d="M 96.41257539226777 79.30868818359171 l -8.284141606740988 -47.78072736271809 a69.49355533955965,69.49355533955965 0 0,0 1.1771629060527438,-0.19370170822795896 l 7.462701197635171 47.91589506944172" fill="#3aff96" stroke="none" /><path d="M 97.12497278360702 79.19773525538626 l -2.9891551333349797 -21.62803749884779 a42.833622110467815,42.833622110467815 0 0,0 0.7292366606305284,-0.0944142855451922 l 2.6174406508136574 21.676163380593376" fill="#faff18" stroke="none" /><path d="M 97.84075906011542 79.11130261209362 l -2.97388757658785 -28.769664610156248 a49.922959895195035,49.922959895195035 0 0,0 0.8532081954046599,-0.08079970318203798 l 2.4795798177981747 28.81647606884347" fill="#a5ff21" stroke="none" /></svg>