<?xml version="1.0" encoding="utf-8" ?>
<svg baseProfile="full" height="200mm" version="1.1" viewBox="0,0,200,200" width="200mm" xmlns="http://www.w3.org/2000/svg" xmlns:ev="http://www.w3.org/2001/xml-events" xmlns:xlink="http://www.w3.org/1999/xlink"><defs /><rect fill="#1a1a1a" height="200" width="200" x="0" y="0" /><text alignment-baseline="middle" fill="#e1ed5e" style="dominant-baseline: central; font-size:9.0px; font-family:Arial;" text-anchor="middle" x="100.0" y="100.0">2025</text><line stroke="#e1ed5e" stroke-width="0.3" x1="100.0" x2="100.0" y1="15.0" y2="10.0" /><path d="M 100.0 14.0 a86.0,86.0 0 0,1 42.46469731375804,11.215312516191453" fill="none" id="id49" stroke="none" /><text fill="#e1ed5e" style="font-size:6.75px; font-family:Arial;" text-anchor="middle"><textPath startOffset="22.20632615414155" xlink:href="#id49">January</textPath></text><path d="M 102.16513564639614 79.11191278185805 l 1.1222276962611242 -10.826661154988015 a31.884667508343192,31.884667508343192 0 0,0 0.5454302007865942,0.06128543823243746 l -1.3084246005574438 10.805739763284977" fill="#ff850c" stroke="none" /><path d="M 102.88285421437855 79.19881850522331 l 1.5544215740613656 -11.215900242259362 a32.32310225486907,32.32310225486907 0 0,0 0.5504640007198877,0.08112408466002961 l -1.747254555209909 11.187481673438363" fill="#ff8a0c" stroke="none" /><path d="M 103.2404852339499 79.25152402106235 l 1.427714891250853 -9.141503814162373 a30.252321967757318,30.252321967757318 0 0,0 0.5138152234467785,0.08478391440743836 l -1.5848593208365067 9.11557363681531" fill="#ff6e0a" stroke="none" /><path d="M 103.59715602781102 79.31037775812273 l 1.5152606112948266 -8.715265449512197 a29.84600851093885,29.84600851093885 0 0,0 0.5053993448616286,0.09235849984214868 l -1.665055077259356 8.68789146831931" fill="#ff6909" stroke="none" /><path d="M 104.66035177308747 79.52364482259891 l 2.539748942502464 -11.158986261171478 a32.444356647184506,32.444356647184506 0 0,0 0.5434836266771194,0.1286250151827472 l -2.731456256142107 11.113615333847862" fill="#ff8c0c" stroke="none" /><path d="M 105.01212808612495 79.60689891045804 l 1.9070610603683718 -7.759356568656481 a28.99027510462098,28.99027510462098 0 0,0 0.48357312779640643,0.1232735574801388 l -2.040343076849803 7.725380015007475" fill="#ff5d08" stroke="none" /><path d="M 105.36241919743992 79.69619591428918 l 3.280342744973934 -12.42040839696583 a33.846291031730615,33.846291031730615 0 0,0 0.5620130059387167,0.15361938468734476 l -3.4936536401363614 12.362102471452191" fill="#ff9f0e" stroke="none" /><path d="M 106.0581310904928 79.89281104454417 l 3.074648882010053 -10.20488746756853 a31.658010788762738,31.658010788762738 0 0,0 0.5204194473887043,0.16169685557573332 l -3.2498537021094753 10.150450477110276" fill="#ff820b" stroke="none" /><path d="M 106.40334571778207 80.00007090966166 l 0.5714284752609945 -1.7847746301879437 a22.87402000600357,22.87402000600357 0 0,0 0.37395447583007746,0.12328691122377464 l -0.6020657733334893 1.774673994704933" fill="#ff0600" stroke="none" /><path d="M 107.08798089147638 80.2323363322302 l 9.054203161225562 -25.251259224752857 a47.82544850175693,47.82544850175693 0 0,0 0.7725351147452097,0.2845312024526864 l -9.487520601743348 25.091664754493845" fill="#b3ff20" stroke="none" /><path d="M 107.4271985657038 80.35727306442388 l 7.530804005410442 -19.916732449659868 a42.29293874596084,42.29293874596084 0 0,0 0.6787348742393654,0.2633385864259318 l -7.872522044649474 19.78415115934339" fill="#f4ff19" stroke="none" /><path d="M 108.09893153111575 80.62456947434976 l 18.854437878818498 -45.10630196313178 a69.88832482828033,69.88832482828033 0 0,0 1.1059535943459016,0.4735116117360729 l -19.628075230954718 44.77507082343291" fill="#3bff9e" stroke="none" /><path d="M 108.43124777332544 80.76684994638697 l 11.173844852522596 -25.489493429938076 a48.83108126004274,48.83108126004274 0 0,0 0.7669220844839907,0.3440955840657871 l -11.610949055473366 25.293377515355758" fill="#a8ff21" stroke="none" /><path d="M 108.76106565485865 80.91482961587045 l 6.869793637422275 -14.965209397934661 a37.466680204121275,37.466680204121275 0 0,0 0.583805433955167,0.2741044792181729 l -7.12637728267704 14.844739936076484" fill="#ffce13" stroke="none" /><path d="M 109.08828744355905 81.06846463323043 l 11.257232846051467 -23.449599617144695 a47.01170916250243,47.01170916250243 0 0,0 0.7265071623895708,0.35649390939859765 l -11.65921127545147 23.252350547611268" fill="#bcff1f" stroke="none" /><path d="M 109.73455568895987 81.39251694778311 l 0.9510155384332932 -1.8178544639548144 a23.051590945208623,23.051590945208623 0 0,0 0.35000542658489997,0.18696077742612222 l -0.9821660115465043 1.8012149600269383" fill="#ff0801" stroke="none" /><path d="M 110.36928655335952 81.73862282372117 l 7.0233409951561745 -12.368823861716416 a35.22375205269013,35.22375205269013 0 0,0 0.5246716541386939,0.3039236872891029 l -7.235209381760197 12.246096017037264" fill="#ffb110" stroke="none" /><line stroke="#e1ed5e" stroke-width="0.3" x1="143.23703022742887" x2="145.7803849466894" y1="26.81831364943548" y2="22.513508569990506" /><path d="M 143.74570117128098 25.957352633546492 a86.0,86.0 0 0,1 28.547481713284135,27.462654790039103" fill="none" id="id50" stroke="none" /><text fill="#e1ed5e" style="font-size:6.75px; font-family:Arial;" text-anchor="middle"><textPath startOffset="19.985693538727396" xlink:href="#id50">February</textPath></text><path d="M 113.06298171725822 83.55741782278167 l 36.85619158539505 -46.39147263610775 a80.24987418995993,80.24987418995993 0 0,0 1.0741889000202332,0.8685860523189802 l -37.64928388397977 45.75018048652464" fill="#48f5ff" stroke="none" /><path d="M 113.6212207817346 84.01681056812373 l 12.991365892850608 -15.244115441010056 a41.028945137993745,41.028945137993745 0 0,0 0.5335837786746565,0.46271859484479505 l -13.251843470172028 15.01823185274559" fill="#fffa17" stroke="none" /><path d="M 113.89432698308785 84.25364557470407 l 3.1490585699402134 -3.5688085078644276 a25.759513004785198,25.759513004785198 0 0,0 0.3299536172935915,0.2962356154417047 l -3.210023174829795 3.5140738836534253" fill="#ff2f04" stroke="none" /><path d="M 114.16331599549186 84.49514656593476 l 15.661945781808761 -17.14543217961918 a44.22202382003425,44.22202382003425 0 0,0 0.5576020604848363,0.5182303455527827 l -15.954755726088445 16.873297247991758" fill="#ddff1b" stroke="none" /><path d="M 114.42810811169701 84.74124197986012 l 3.345510721589483 -3.5381172749275485 a25.86936503452051,25.86936503452051 0 0,0 0.32092395564760023,0.3087285910652746 l -3.405917920849501 3.480005597099972" fill="#ff3104" stroke="none" /><path d="M 114.68862486808459 84.99185889309783 l 16.047633258114193 -16.396711505166284 a43.94294404322569,43.94294404322569 0 0,0 0.5360290047202395,0.533727125824514 l -16.327498063001755 16.11804852869165" fill="#e0ff1b" stroke="none" /><path d="M 114.94478906791727 85.2469230424477 l 44.0635823121029 -43.498333627969345 a82.9169146080907,82.9169146080907 0 0,0 0.9939595500159117,1.0243626878024996 l -44.805806125821924 42.73340674461674" fill="#4cdcff" stroke="none" /><path d="M 115.19652480421416 85.50635884689758 l 2.501336766438003 -2.385642636253289 a24.456584500203064,24.456584500203064 0 0,0 0.28792699435432717,0.30714044244808003 l -2.542031082762793 2.342232776927154" fill="#ff1d02" stroke="none" /><path d="M 115.4437574822437 85.77008943001954 l 11.25465905847713 -10.370066486856208 a36.303778274151114,36.303778274151114 0 0,0 0.41949250799467475,0.4632141047687187 l -11.431495207087842 10.17479959481794" fill="#ffbf11" stroke="none" /><path d="M 115.68641384162765 86.03803664274999 l 1.2371820003418532 -1.1011751908000085 a22.656262691363693,22.656262691363693 0 0,0 0.25677975530772373,0.29354364918569503 l -1.2559536192274252 1.0797159854113658" fill="#ff0200" stroke="none" /><path d="M 115.9244219780498 86.31012108654704 l 4.389669143517562 -3.7737030033309655 a26.788784807444422,26.788784807444422 0 0,0 0.2975971034835402,0.3522611035660731 l -4.453976860488219 3.6975829501357858" fill="#ff3e05" stroke="none" /><path d="M 116.38621287248628 86.86637796730983 l 1.1933119989997272 -0.9564448407875695 a22.529307117758197,22.529307117758197 0 0,0 0.2399327430443801,0.3046902181148228 l -1.2095988226380712 0.9357622287197084" fill="#ff0100" stroke="none" /><path d="M 116.60985879189232 87.15038557335679 l 10.998352633552203 -8.50847634769693 a34.90532021965991,34.90532021965991 0 0,0 0.36355396886768354,0.4783944077126528 l -11.143182542644 8.317897164103245" fill="#ffad10" stroke="none" /><path d="M 116.82858285166822 87.43820079747576 l 4.411808832283613 -3.2932218452117574 a26.505394381367754,26.505394381367754 0 0,0 0.2697711309223595,0.36796751940320366 l -4.467842575719599 3.21679188213706" fill="#ff3a05" stroke="none" /><path d="M 117.04232023915458 87.72973835380427 l 15.591745937549256 -11.22586593198705 a40.21256378789752,40.21256378789752 0 0,0 0.3996121232316943,0.5652230087573674 l -15.782670680584832 10.95581642289789" fill="#fff016" stroke="none" /><path d="M 117.2510076193507 88.02491185347247 l 23.260668582431762 -16.146799234459333 a49.31568166969788,49.31568166969788 0 0,0 0.47806982127711417,0.7015084720066445 l -23.53516286937761 15.744012739182281" fill="#a2ff22" stroke="none" /><path d="M 117.45458315368197 88.32363383020206 l 29.70569996783562 -19.871836932492776 a56.739593081772114,56.739593081772114 0 0,0 0.5360631512307521,0.8164609565032797 l -30.043359754424298 19.357557912011824" fill="#53ff2b" stroke="none" /><line stroke="#e1ed5e" stroke-width="0.3" x1="172.23445277983987" x2="176.4835382374775" y1="55.19839476539836" y2="52.563006222186495" /><path d="M 173.08426987136738 54.67131705675599 a86.0,86.0 0 0,1 12.851231095245387,41.99856678651699" fill="none" id="id51" stroke="none" /><text fill="#e1ed5e" style="font-size:6.75px; font-family:Arial;" text-anchor="middle"><textPath startOffset="22.20632615414155" xlink:href="#id51">March</textPath></text><path d="M 117.84615892207809 88.93136811851018 l 18.08352263595613 -11.215850763850495 a42.27931153214557,42.27931153214557 0 0,0 0.3782673664869151,0.6217720917973352 l -18.27390580072927 10.902910898846079" fill="#f4ff19" stroke="none" /><path d="M 118.03404312379186 89.2402003453031 l 53.04077882078498 -31.646156645140536 a82.76409513887664,82.76409513887664 0 0,0 0.7194183270866354,1.2297191238681147 l -53.57765682234194 30.728458108918527" fill="#4bddff" stroke="none" /><path d="M 118.3937258080291 89.86733742301442 l 12.055323180469339 -6.6409885261466375 a34.763485953419384,34.763485953419384 0 0,0 0.28421947529213204,0.526615522258936 l -12.167850754979936 6.432492020555243" fill="#ffab0f" stroke="none" /><path d="M 118.56541770881063 90.18545643968196 l 3.5543450078676 -1.8789921377077574 a25.020445235110273,25.020445235110273 0 0,0 0.19800771315282106,0.38248787722197986 l -3.5861621541805375 1.8175315382254327" fill="#ff2503" stroke="none" /><path d="M 118.73160827565052 90.50648371742162 l 1.6056054053839812 -0.8137497237342448 a22.800043702434976,22.800043702434976 0 0,0 0.17440946309623254,0.3515988349923081 l -1.619374881433622 0.7859913002429869" fill="#ff0500" stroke="none" /><path d="M 118.89224826269711 90.83032412892265 l 7.892591735759759 -3.830804412122869 a29.773144632987837,29.773144632987837 0 0,0 0.21981343423376462,0.4629831519111104 l -7.95736336383528 3.694378844571218" fill="#ff6809" stroke="none" /><path d="M 119.196687751892 91.48605970444005 l 31.382913467539048 -13.918664251702346 a55.33098414352057,55.33098414352057 0 0,0 0.37864649785577276,0.8739683224414709 l -31.617850675237502 13.376396784674272" fill="#61ff29" stroke="none" /><path d="M 119.34039704204932 91.81776055985345 l 7.0798905457462205 -2.9952518311478853 a28.68741723023679,28.68741723023679 0 0,0 0.18848768747713845,0.45643788593515144 l -7.130399920109556 2.8729393747594307" fill="#ff5908" stroke="none" /><path d="M 119.47837535516314 92.15188598940014 l 3.385405128120896 -1.3640277966262486 a24.649868451256335,24.649868451256335 0 0,0 0.15518436208684128,0.39492727474348593 l -3.4083830400894377 1.3055515169869782" fill="#ff2003" stroke="none" /><path d="M 119.61058180528143 92.48833698450437 l 16.17956104892197 -6.19744031793129 a38.32588994049406,38.32588994049406 0 0,0 0.23067698238429368,0.6180996274097886 l -16.283842619807885 5.9180175534921675" fill="#ffd914" stroke="none" /><path d="M 119.7369772167798 92.82701384747503 l 3.0899035390341645 -1.1229599677141495 a24.287634859534194,24.287634859534194 0 0,0 0.139419026511101,0.3941563623149024 l -3.108775646355075 1.0696059789726324" fill="#ff1a02" stroke="none" /><path d="M 119.85752413597 93.16781622104841 l 1.6272980332145004 -0.5598884911290999 a22.720922430385112,22.720922430385112 0 0,0 0.12405916446998325,0.37092111121674876 l -1.6366944914562538 0.5317942769900371" fill="#ff0300" stroke="none" /><path d="M 119.97218684219823 93.5106431181261 l 4.809575409282565 -1.5627257809933475 a26.05708685748592,26.05708685748592 0 0,0 0.1349316811774828,0.42777030273955297 l -4.835762574228254 1.4797053118273753" fill="#ff3404" stroke="none" /><path d="M 120.08093135843002 93.85539295169968 l 60.24279407529006 -18.433821144900946 a84.0,84.0 0 0,0 0.41117641155319085,1.3862824530138804 l -60.551176383954946 17.394109305140535" fill="#4dd2ff" stroke="none" /><path d="M 120.18372546131832 94.20196356495316 l 1.6982673492286187 -0.4878492816476715 a22.766949040312184,22.766949040312184 0 0,0 0.10495913623541253,0.3775938574465464 l -1.7064132560303944 0.45854412078217316" fill="#ff0400" stroke="none" /><path d="M 120.28053869075195 94.5502522615342 l 5.3641833251069615 -1.4414531285625185 a26.554480161743154,26.554480161743154 0 0,0 0.11482115256969316,0.4424527393469557 l -5.388200809546958 1.3489039636667124" fill="#ff3b05" stroke="none" /><path d="M 120.37134235888165 94.90015583598534 l 5.7418836865686655 -1.4374463642859168 a26.919077657902637,26.919077657902637 0 0,0 0.10865975393437836,0.45046483043306246 l -5.765776240763864 1.3383963021934482" fill="#ff4006" stroke="none" /><path d="M 120.6074358757038 95.95851677861258 l 24.910597649520984 -4.885409472702478 a46.38513543340456,46.38513543340456 0 0,0 0.14691779546171616,0.7848407380646052 l -24.99100116889256 4.45589065717531" fill="#c4ff1e" stroke="none" /><path d="M 120.67395015179393 96.31383870115 l 18.69934205024851 -3.334089057654189 a39.99425026044886,39.99425026044886 0 0,0 0.11500849157727819,0.6787866275465226 l -18.75396240334601 3.0117166417918284" fill="#ffee16" stroke="none" /><path d="M 120.73433829027371 96.67025291283417 l 5.93591048492035 -0.9532535048930045 a27.011965196969967,27.011965196969967 0 0,0 0.06977332945516009,0.4597190636872025 l -5.95143970781481 0.8509353288137199" fill="#ff4106" stroke="none" /><path d="M 120.78858239683441 97.02765380044208 l 9.578741378697842 -1.3695659949307621 a30.67615612805255,30.67615612805255 0 0,0 0.07023963429348776,0.5233668607924702 l -9.600897012049167 1.2044807920736276" fill="#ff740a" stroke="none" /><path d="M 120.94382443527127 98.46500227214037 l 1.5804113100865516 -0.1158302189537573 a22.584650292232443,22.584650292232443 0 0,0 0.025079080818419766,0.38796227999704247 l -1.5821709819093868 0.08860887470367956" fill="#ff0100" stroke="none" /><path d="M 120.96714384426684 98.82574320788733 l 36.33231579227918 -2.034777312024398 a57.38924964243463,57.38924964243463 0 0,0 0.046748713693769484,0.9867914592915774 l -36.36195811420645 1.4090747461098208" fill="#4cff2c" stroke="none" /><line stroke="#e1ed5e" stroke-width="0.3" x1="184.98032266829074" x2="189.97916517819016" y1="98.17113171792111" y2="98.06355123074" /><path d="M 185.9800911702706 98.14961562048488 a86.0,86.0 0 0,1 -9.607161424134198,41.387399972396054" fill="none" id="id52" stroke="none" /><text fill="#e1ed5e" style="font-size:6.75px; font-family:Arial;" text-anchor="middle"><textPath startOffset="21.466115282336823" xlink:href="#id52">April</textPath></text><path d="M 120.99980553446 99.90962569577887 l 13.377350385180835 -0.057570472802669824 a34.37747426412163,34.37747426412163 0 0,0 -0.0025467204710825915,0.5917681480846061 l -13.37635936742025 -0.172707153485621" fill="#ffa60f" stroke="none" /><path d="M 120.95626037817324 101.35467743843564 l 11.125369765552149 0.7191782858045058 a32.14859048611234,32.14859048611234 0 0,0 -0.040451256892096256,0.5519252616194216 l -11.111341949995715 -0.9105766839206977" fill="#ff880c" stroke="none" /><path d="M 120.89721153311464 102.0752229133903 l 2.567364849902504 0.2549552774114274 a23.5799931135557,23.5799931135557 0 0,0 -0.04358671729948943,0.40355886928300994 l -2.5625958311019628 -0.2991104685792287" fill="#ff1001" stroke="none" /><path d="M 120.8583938346157 102.4346265915055 l 15.714096188618395 1.8341755719845714 a36.82077807991807,36.82077807991807 0 0,0 -0.07889902104538336,0.6289028271709751 l -15.680195658326165 -2.1043961534429414" fill="#ffc612" stroke="none" /><path d="M 120.81339534386255 102.79330883721812 l 1.8022405504190855 0.2418737727846484 a22.81839872512493,22.81839872512493 0 0,0 -0.0555964297644091,0.3888413002829719 l -1.797810069638075 -0.2728605450480297" fill="#ff0500" stroke="none" /><path d="M 120.76222939487914 103.15116336523771 l 1.789011427406915 0.2715251412946397 a22.809499320184344,22.809499320184344 0 0,0 -0.06225716594906432,0.38767543179392927 l -1.7840725070965624 -0.30227980278177397" fill="#ff0500" stroke="none" /><path d="M 120.64145759157962 103.86396538481128 l 1.596821745111673 0.2989160974437402 a22.62455856126287,22.62455856126287 0 0,0 -0.07495200264300333,0.3821786467026385 l -1.5914398094930056 -0.32635847121432365" fill="#ff0200" stroke="none" /><path d="M 120.49622156327973 104.57218783832717 l 16.279844093119237 3.631620830337638 a37.67998781629086,37.67998781629086 0 0,0 -0.14666385142129904,0.6318240333733437 l -16.214919675767387 -3.9113135210595464" fill="#ffd113" stroke="none" /><path d="M 120.41448212921028 104.9243191809786 l 7.684899198751619 1.8537279706033671 a28.905313598078862,28.905313598078862 0 0,0 -0.12083616622211661,0.48268041773019743 l -7.651851718234442 -1.9857362277309605" fill="#ff5c08" stroke="none" /><path d="M 120.32669344350535 105.2749913415812 l 2.7843636258837288 0.7225717286075948 a23.876593593841047,23.876593593841047 0 0,0 -0.1066623416878013,0.3969302527853586 l -2.77151320785415 -0.7703929145685016" fill="#ff1402" stroke="none" /><path d="M 120.23288151984713 105.62410040840565 l 2.626285754994193 0.7300242811565877 a23.725859922659932,23.725859922659932 0 0,0 -0.11276264364240292,0.3925415555882681 l -2.613330474465691 -0.7751233122494378" fill="#ff1202" stroke="none" /><path d="M 120.13307415673323 105.97154293290107 l 8.01436454284824 2.3770896374279182 a29.359461356452954,29.359461356452954 0 0,0 -0.14787833262635736,0.48327494720599906 l -7.972259437715749 -2.5146915571859743" fill="#ff6209" stroke="none" /><path d="M 120.02730092923936 106.31721596034902 l 29.906880261042517 9.43353385345473 a52.35941721257924,52.35941721257924 0 0,0 -0.2785215540437333,0.8572012016288716 l -29.74006645598254 -9.946933955061397" fill="#81ff25" stroke="none" /><path d="M 119.26925614724726 108.34839909993367 l 27.101889108253893 11.741884840228833 a50.53615162537744,50.53615162537744 0 0,0 -0.35269159828910657,0.7952264462792258 l -26.89575642523351 -12.206659623000746" fill="#95ff23" stroke="none" /><path d="M 119.12269723197855 108.67885076344098 l 4.431787141237765 2.01136998340478 a25.86686207688097,25.86686207688097 0 0,0 -0.18750442813354484,0.4038678570226429 l -4.396508096264389 -2.0873579077062536" fill="#ff3104" stroke="none" /><path d="M 118.97047184881838 109.00673069616215 l 7.7663687447925245 3.687287924564415 a29.597242332209134,29.597242332209134 0 0,0 -0.2224680150154443,0.4583500037812609 l -7.701747473162365 -3.820426884310951" fill="#ff6509" stroke="none" /><line stroke="#e1ed5e" stroke-width="0.3" x1="174.80103733775053" x2="179.2010983576182" y1="140.37084112569926" y2="142.7455964860345" /><path d="M 175.68104954172406 140.8457921977663 a86.0,86.0 0 0,1 -30.038265399797805,32.042727171017184" fill="none" id="id53" stroke="none" /><text fill="#e1ed5e" style="font-size:6.75px; font-family:Arial;" text-anchor="middle"><textPath startOffset="22.206326154141568" xlink:href="#id53">May</textPath></text><path d="M 118.12598468904814 110.60418214915192 l 1.9154418999469336 1.120584351780205 a23.219150053855525,23.219150053855525 0 0,0 -0.2047919352384086,0.34324306306967917 l -1.8958690890102978 -1.1533895087359882" fill="#ff0b01" stroke="none" /><path d="M 117.75023020441432 111.22182372390056 l 1.8277803792103153 1.1555359556070064 a23.162416347359315,23.162416347359315 0 0,0 -0.21595659396423142,0.33516942959946344 l -1.8076189218690335 -1.186826985127923" fill="#ff0a01" stroke="none" /><path d="M 117.55443506779139 111.5257021239791 l 2.5897851957586036 1.7003733025946952 a24.09810534494023,24.09810534494023 0 0,0 -0.23064973046753764,0.3447900520825848 l -2.560132359880345 -1.7447002688830868" fill="#ff1802" stroke="none" /><path d="M 117.35343817320211 111.8261652097733 l 4.7146423126521775 3.212973610066115 a26.705352886126462,26.705352886126462 0 0,0 -0.2621436770410065,0.37763751837687376 l -4.658637728449035 -3.293652390630008" fill="#ff3d05" stroke="none" /><path d="M 117.14729908036423 112.12312394758627 l 3.616887761144139 2.557136166305604 a25.429539755972666,25.429539755972666 0 0,0 -0.25577298414521,0.35524630444032484 l -3.5723349846233265 -2.6190160761970596" fill="#ff2b04" stroke="none" /><path d="M 116.71984013943494 112.70617746262583 l 13.222307496420246 10.048241138303215 a37.60712393833984,37.60712393833984 0 0,0 -0.3961161637712361,0.5120335386705542 l -13.047384515430942 -10.274352671087021" fill="#ffd013" stroke="none" /><path d="M 116.498646956653 112.99209946851258 l 5.46956671815763 4.307089850377987 a27.961837621174936,27.961837621174936 0 0,0 -0.30103193486563645,0.3755836245208571 l -5.394616871237139 -4.4006013084770945" fill="#ff4f07" stroke="none" /><path d="M 115.80600337817218 113.82643327865902 l 4.683986424788006 4.0973561899848985 a27.2231870111066,27.2231870111066 0 0,0 -0.31156438488037025,0.3500458892844628 l -4.612763190259297 -4.177376249010228" fill="#ff4406" stroke="none" /><path d="M 115.56566222782051 114.09645910891815 l 2.8701706341142836 2.5992625554405824 a24.872214521568697,24.872214521568697 0 0,0 -0.29012087086472466,0.3148689057557646 l -2.825003355253837 -2.6482827159976816" fill="#ff2303" stroke="none" /><path d="M 115.32070863581623 114.36230785411682 l 3.1006357076158397 2.906672637330885 a25.250022071936858,25.250022071936858 0 0,0 -0.29998643259451385,0.31453457524539524 l -3.0501427236423613 -2.9596143291587875" fill="#ff2803" stroke="none" /><path d="M 115.07121518719521 114.62390073753431 l 8.684084860248484 8.426340770483854 a33.100270601945866,33.100270601945866 0 0,0 -0.4002916205982287,0.4054932982934724 l -8.53775261459472 -8.574574562757991" fill="#ff950d" stroke="none" /><path d="M 114.55890576462653 115.13401014063108 l 2.5839853317525745 2.686057650637495 a24.727182031677643,24.727182031677643 0 0,0 -0.30928307791510584,0.2924464546451115 l -2.537366419446661 -2.7301387420285277" fill="#ff2103" stroke="none" /><path d="M 114.0293411484842 115.62618273729858 l 1.9369832448862243 2.1574537124252595 a23.89939831900129,23.89939831900129 0 0,0 -0.3084816512046068,0.27219919064149384 l -1.89955924077503 -2.190476044839042" fill="#ff1502" stroke="none" /><path d="M 113.48314897796784 116.09983520530334 l 10.72865994340811 12.810780133399014 a37.709884254763125,37.709884254763125 0 0,0 -0.5012359592679336,0.4124830705071392 l -10.506553855595484 -12.993558322763333" fill="#ffd113" stroke="none" /><path d="M 113.20401910651253 116.32954008644616 l 1.6112747963681913 1.9926793626493142 a23.562611463281126,23.562611463281126 0 0,0 -0.317581934604475,0.2523062959793323 l -1.5767353690463652 -2.0201195726337726" fill="#ff1001" stroke="none" /><path d="M 112.92097659922987 116.55440617244103 l 4.158255597503469 5.327573469485409 a27.75826373315911,27.75826373315911 0 0,0 -0.3791927815211568,0.29074885526071825 l -4.065934087488818 -5.398361666573498" fill="#ff4c07" stroke="none" /><path d="M 112.34349029814194 116.9893568818739 l 2.189556629506589 3.013666158700668 a24.725096233644695,24.725096233644695 0 0,0 -0.34647238751752873,0.24719884908131362 l -2.1373569141401756 -3.050909269626201" fill="#ff2103" stroke="none" /><path d="M 112.04921762599082 117.19931262002967 l 1.0951271418674846 1.5632080568475577 a22.90864425335052,22.90864425335052 0 0,0 -0.32491342730876194,0.2234784180217743 l -1.0680568299358395 -1.5818272642344262" fill="#ff0601" stroke="none" /><path d="M 111.7513745106137 117.40417183066458 l 0.8531382109439419 1.2635257267278344 a22.524579308883514,22.524579308883514 0 0,0 -0.32320122123832834,0.2142001458128372 l -0.8312622909656495 -1.2780238936319899" fill="#ff0000" stroke="none" /><path d="M 111.1453310114006 117.79835938074945 l 1.611121527929077 2.5728549408547656 a24.035670457153955,24.035670457153955 0 0,0 -0.35254697354171105,0.2165631456193313 l -1.566595354455057 -2.600206553302475" fill="#ff1702" stroke="none" /><line stroke="#e1ed5e" stroke-width="0.3" x1="143.8653032363475" x2="146.44561519142675" y1="172.8068346515853" y2="177.08958963109032" /><path d="M 144.38136562736335 173.6633856474863 a86.0,86.0 0 0,1 -40.68145358897372,12.25698825130547" fill="none" id="id54" stroke="none" /><text fill="#e1ed5e" style="font-size:6.75px; font-family:Arial;" text-anchor="middle"><textPath startOffset="21.466115282336833" xlink:href="#id54">June</textPath></text><path d="M 110.8373102113329 117.98757091392108 l 3.395258696380678 5.635388798632831 a27.57916320872989,27.57916320872989 0 0,0 -0.40873912765279624,0.24149028122690233 l -3.2977516976995 -5.692997652153482" fill="#ff4906" stroke="none" /><path d="M 110.5260780823613 118.17145234162733 l 1.3853428740642364 2.3915547477322288 a23.763821446859605,23.763821446859605 0 0,0 -0.3557231702135606,0.2019888998517215 l -1.3439709369294768 -2.4150468133785785" fill="#ff1302" stroke="none" /><path d="M 110.21172684928248 118.3499491758327 l 2.589084683790986 4.652452328650922 a26.32434711210778,26.32434711210778 0 0,0 -0.3978451078968774,0.2169368740033781 l -2.50861676402546 -4.696329854414071" fill="#ff3805" stroke="none" /><path d="M 109.89434966115114 118.52300852407294 l 7.829518056538591 14.657479740186826 a37.61755292850458,37.61755292850458 0 0,0 -0.5737735441757659,0.3001712001003516 l -7.57605360983633 -14.790080359231895" fill="#ffd013" stroke="none" /><path d="M 109.57404056367764 118.69057910512821 l 6.673811904675956 13.028711180765823 a35.638547754842584,35.638547754842584 0 0,0 -0.5484027353732719,0.2749805161701947 l -6.448555261619923 -13.14165953784532" fill="#ffb610" stroke="none" /><path d="M 109.2508944713604 118.85261126421891 l 9.392313112233742 19.140811575027048 a42.32102749280455,42.32102749280455 0 0,0 -0.6567565112913749,0.31528303644732464 l -9.061443932942133 -19.299648887973934" fill="#f4ff19" stroke="none" /><path d="M 108.92500713936063 119.00905698771935 l 4.124602859269749 8.7848457238529 a30.704940140907247,30.704940140907247 0 0,0 -0.480359786873032,0.2205096179936715 l -3.972775076629297 -8.854542412180646" fill="#ff750a" stroke="none" /><path d="M 108.59647513512805 119.15986991738527 l 7.726456386405955 17.22076746095116 a39.87466450655978,39.87466450655978 0 0,0 -0.6286512868133439,0.2755822497806339 l -7.428884424934858 -17.351214264026247" fill="#ffec16" stroke="none" /><path d="M 108.2653958097858 119.30500536409082 l 1.542400530905458 3.6024954167897305 a24.918797344304558,24.918797344304558 0 0,0 -0.395768100444021,0.1654310980833441 l -1.4801609709639758 -3.6285115578930482" fill="#ff2303" stroke="none" /><path d="M 107.93186726928326 119.44442032107085 l 5.14989084117276 12.624598814352671 a34.63458363498314,34.63458363498314 0 0,0 -0.5539536515741011,0.22042959026178194 l -4.931816113556792 -12.711375249020524" fill="#ffa90f" stroke="none" /><path d="M 107.59598834532513 119.57807347666477 l 0.9637494880509687 2.48398989471492 a23.664398407289035,23.664398407289035 0 0,0 -0.3810303718713117,0.14407308316884573 l -0.9208488954193822 -2.500211227990397" fill="#ff1101" stroke="none" /><path d="M 107.2578585660854 119.70592522655815 l 1.3631312598337966 3.7010589880861997 a24.94410502710434,24.94410502710434 0 0,0 -0.4041900484914812,0.1449281709959282 l -1.2992216507125804 -3.723974700122088" fill="#ff2403" stroke="none" /><path d="M 106.91757812671514 119.82793768551818 l 2.6071005039348454 7.472763644297309 a28.914491109423835,28.914491109423835 0 0,0 -0.47134787921301136,0.15990679203853622 l -2.478082891784607 -7.516533423233969" fill="#ff5c08" stroke="none" /><path d="M 106.2309692047433 120.05430185196036 l 9.029214373732891 29.060421354523168 a51.430819928310356,51.430819928310356 0 0,0 -0.8476901839164541,0.25540209870541614 l -8.527649215376192 -29.211538822334308" fill="#8bff24" stroke="none" /><path d="M 105.88484417918355 120.15858648285463 l 0.4270780212322219 1.462959589718585 a22.52402309607473,22.52402309607473 0 0,0 -0.3731145525722094,0.10544589949743681 l -0.40183230055540675 -1.4700942825545407" fill="#ff0000" stroke="none" /><path d="M 105.53697534728816 120.25689768951611 l 1.070795088505584 3.9174793445518143 a25.061187823353876,25.061187823353876 0 0,0 -0.417101174226586,0.11016021108682132 l -1.0032034714675007 -3.9353309049422194" fill="#ff2503" stroke="none" /><path d="M 105.18746579009965 120.34920634021253 l 0.7542746363745413 2.958841722304534 a24.053469267035123,24.053469267035123 0 0,0 -0.4020900655582286,0.09882395531152108 l -0.7032312860731015 -2.9713869359300853" fill="#ff1702" stroke="none" /><path d="M 104.48393922423573 120.51570834832081 l 1.4856962913067355 6.797619299094335 a27.958083184715626,27.958083184715626 0 0,0 -0.47103850251524365,0.09871069802364382 l -1.368466327362114 -6.82218597784452" fill="#ff4f07" stroke="none" /><path d="M 104.13013068566511 120.58985236759428 l 0.9372431404509882 4.672418226717351 a25.76549229247965,25.76549229247965 0 0,0 -0.43559924715873405,0.08348363245291743 l -0.8566762787205497 -4.687859057518736" fill="#ff3004" stroke="none" /><path d="M 103.7750983002368 120.6578951692458 l 2.497587184160478 13.667165759154523 a34.89350069747321,34.89350069747321 0 0,0 -0.5917788648736108,0.1028883411221811 l -2.2619593478148174 -13.70813267879771" fill="#ffad10" stroke="none" /><path d="M 103.41894727170886 120.7198165907248 l 0.39780963478758924 2.4108422902650593 a23.44344286899864,23.44344286899864 0 0,0 -0.3987217631594746,0.06227213927829368 l -0.3562520080195975 -2.4173327368904585" fill="#ff0e01" stroke="none" /><path d="M 103.06178313531738 120.77559828337769 l 2.022113321185673 13.72096330397532 a34.869166387088804,34.869166387088804 0 0,0 -0.5945548348745574,0.08239988251761995 l -1.7856298951242855 -13.753737751985543" fill="#ffac0f" stroke="none" /><path d="M 102.70371172650421 120.8252237178851 l 3.442269782284159 26.51393549491699 a47.73645445235111,47.73645445235111 0 0,0 -0.8157764011288406,0.09877916136920406 l -2.985365958103938 -26.569260185011544" fill="#b4ff20" stroke="none" /><path d="M 102.34483914955558 120.86867818915974 l 2.2478241365366336 20.005260719098555 a41.13114924160825,41.13114924160825 0 0,0 -0.7042581205444054,0.07299923373215206 l -1.9031334193866256 -20.040989321286467" fill="#fffc17" stroke="none" /><path d="M 101.62511606390274 120.93702456842531 l 1.7399306156867245 22.416226666607308 a43.48365131637031,43.48365131637031 0 0,0 -0.746753521999401,0.051500494986416456 l -1.3538143329083931 -22.44285550611001" fill="#e6ff1a" stroke="none" /><path d="M 101.26447882468166 120.96189622390904 l 0.2855727619503038 4.734082124217762 a25.742687567319408,25.742687567319408 0 0,0 -0.44254368394791826,0.022874453546021096 l -0.20404100958890592 -4.738296384525985" fill="#ff2f04" stroke="none" /><path d="M 100.90346689309514 120.98055641714683 l 0.06514212781580316 1.5127483898057141 a22.51415031871877,22.51415031871877 0 0,0 -0.38732877664241583,0.013340386222906786 l -0.039092999498735057 -1.5136455744547146" fill="#ff0000" stroke="none" /><line stroke="#e1ed5e" stroke-width="0.3" x1="102.19456741930631" x2="102.32365962044197" y1="184.97166512339345" y2="189.96999836594603" /><path d="M 102.22038585953345 185.97133177190398 a86.0,86.0 0 0,1 -42.740103519485714,-10.115201625700543" fill="none" id="id55" stroke="none" /><text fill="#e1ed5e" style="font-size:6.75px; font-family:Arial;" text-anchor="middle"><textPath startOffset="22.20632615414155" xlink:href="#id55">July</textPath></text><path d="M 100.54218724476979 120.99299961872073 l 0.6207669621018254 24.035535185360466 a45.04355013861177,45.04355013861177 0 0,0 -0.7752645109730951,0.013346881626896323 l -0.20694276123606223 -24.042659544266524" fill="#d3ff1c" stroke="none" /><path d="M 100.18074693466247 120.99922214144158 l 0.12725659113584611 14.784701224475128 a35.785248883159994,35.785248883159994 0 0,0 -0.616007051596593,0.0 l 0.12725659113583593 -14.784701224475128" fill="#ffb811" stroke="none" /><path d="M 99.81925306533755 120.99922214144158 l -0.09343535863915034 10.855342335918564 a31.8557444422863,31.8557444422863 0 0,0 -0.5482833404723753,-0.00943919493244809 l 0.28027838900419355 -10.852125663706955" fill="#ff840c" stroke="none" /><path d="M 99.45781275523022 120.99299961872073 l -0.442886454602151 17.148162857551878 a38.15388112937687,38.15388112937687 0 0,0 -0.6563914646032738,-0.02260744922474728 l 0.7379982708800678 -17.13799860990104" fill="#ffd714" stroke="none" /><path d="M 99.09653310690486 120.98055641714683 l -1.2400515035513688 28.79681671709867 a49.823503964119865,49.823503964119865 0 0,0 -0.8565180668807193,-0.044272200559746504 l 1.735557638845577 -28.771204709776725" fill="#9dff22" stroke="none" /><path d="M 98.73552117531835 120.96189622390904 l -0.38206147420043285 6.333623637674986 a27.345136669433018,27.345136669433018 0 0,0 -0.46960355212319843,-0.03238661039986836 l 0.49102778710256134 -6.326108682758832" fill="#ff4606" stroke="none" /><path d="M 98.01472825383883 120.90594882070398 l -1.6145077961277694 17.001610697246313 a38.07809713417972,38.07809713417972 0 0,0 -0.651982976797,-0.06758070134256025 l 1.906923369530363 -16.97130062744799" fill="#ffd614" stroke="none" /><path d="M 97.65516085044442 120.86867818915974 l -3.0707774683654296 27.32940841165436 a48.501386117634596,48.501386117634596 0 0,0 -0.8288484486483381,-0.10036200427759662 l 3.540753340065157 -27.272500878651414" fill="#abff21" stroke="none" /><path d="M 97.2962882734958 120.8252237178851 l -4.972927339666688 38.30375974114978 a59.62522513375594,59.62522513375594 0 0,0 -1.0166708744974458,-0.14090131927923302 l 5.631526805350965 -38.21248385637794" fill="#36ff2e" stroke="none" /><path d="M 96.93821686468263 120.77559828337769 l -2.3999975220436895 16.28508035854516 a37.46097902283121,37.46097902283121 0 0,0 -0.6371294390985222,-0.09950651515848041 l 2.679962824750729 -16.241355536039574" fill="#ffce13" stroke="none" /><path d="M 96.58105272829116 120.7198165907248 l -5.175147466076902 31.362901444652362 a52.78700580933378,52.78700580933378 0 0,0 -0.8952450672335761,-0.15564983025399295 l 5.714241504782528 -31.269173035877362" fill="#7cff26" stroke="none" /><path d="M 95.86986931433489 120.58985236759428 l -0.6405720894862561 3.1934303674944 a24.257043155050944,24.257043155050944 0 0,0 -0.40868328517775576,-0.08564355596215331 l 0.6954468360933986 -3.181930830805706" fill="#ff1a02" stroke="none" /><path d="M 95.51606077576429 120.51570834832081 l -3.1462415096404874 14.395238199546943 a35.735050677167024,35.735050677167024 0 0,0 -0.5998040630536341,-0.13651345195663028 l 3.393565722086984 -14.338948014012626" fill="#ffb811" stroke="none" /><path d="M 95.16358092515715 120.4354850818985 l -0.4974723256004157 2.1019866415928763 a23.160052442921973,23.160052442921973 0 0,0 -0.3871552540601305,-0.09515334200744688 l 0.5335808644037567 -2.0931120412713993" fill="#ff0a01" stroke="none" /><path d="M 94.81253420990036 120.34920634021253 l -10.10251932480479 39.62980357167589 a61.89721540444618,61.89721540444618 0 0,0 -1.030174683200469,-0.2720784969452375 l 10.783184450816748 -39.450033725427076" fill="#31ff43" stroke="none" /><path d="M 94.46302465271185 120.25689768951611 l -1.849675142611335 6.766994211211361 a28.015234050818428,28.015234050818428 0 0,0 -0.46407746402543104,-0.13115292687808114 l 1.9658837747413798 -6.7341524909947585" fill="#ff4f07" stroke="none" /><path d="M 94.11515582081647 120.15858648285463 l -3.70186241031578 12.680762867086266 a34.21005420867692,34.21005420867692 0 0,0 -0.5638550422561369,-0.16988489885833297 l 3.9195924270121627 -12.615162599122208" fill="#ffa40f" stroke="none" /><path d="M 93.76903079525671 120.05430185196036 l -1.1021893904758204 3.5473837228731657 a24.71466724347995,24.71466724347995 0 0,0 -0.4051777331004892,-0.12972511504768533 l 1.16308846866725 -3.5278857611657735" fill="#ff2003" stroke="none" /><path d="M 93.42475214034765 119.94407469862007 l -1.1994431467887277 3.6381569526973085 a24.83077666731411,24.83077666731411 0 0,0 -0.4047774479951306,-0.13732248738769715 l 1.261890327721084 -3.6169714784114886" fill="#ff2203" stroke="none" /><path d="M 93.08242187328487 119.8279376855182 l -4.428914871224058 12.694652156071243 a34.44505412038917,34.44505412038917 0 0,0 -0.5581418166770892,-0.2001297977257341 l 4.646776248530874 -12.616534817305551" fill="#ffa70f" stroke="none" /><path d="M 92.7421414339146 119.70592522655815 l -0.5152832240846832 1.399053535124109 a22.490928433951936,22.490928433951936 0 0,0 -0.3621358412508782,-0.13692878842891593 l 0.5392892860958444 -1.38997649658856" fill="#ff0000" stroke="none" /><path d="M 92.40401165467489 119.57807347666478 l -11.42436217931969 29.445411446478186 a52.58398813412674,52.58398813412674 0 0,0 -0.8410406358056282,-0.33466742608761857 l 11.929523891167175 -29.244397175984503" fill="#7eff26" stroke="none" /><path d="M 91.7346041902142 119.30500536409082 l -6.7710299652980765 15.814701776984426 a38.20324501615666,38.20324501615666 0 0,0 -0.6023002183730513,-0.26403071576292325 l 7.042250858328871 -15.69580650792705" fill="#ffd714" stroke="none" /><path d="M 91.07499286063937 119.00905698771935 l -0.7541452163847557 1.6062272188054216 a22.7744579132308,22.7744579132308 0 0,0 -0.3534241584325505,-0.16966507359836475 l 0.7816820428175483 -1.5930078687074944" fill="#ff0400" stroke="none" /><line stroke="#e1ed5e" stroke-width="0.3" x1="58.666819895761336" x2="56.23545636021788" y1="174.27360380694188" y2="178.64263932499728" /><path d="M 58.180547188652646 175.14741091055294 a86.0,86.0 0 0,1 -31.652253787137756,-30.449443065178592" fill="none" id="id56" stroke="none" /><text fill="#e1ed5e" style="font-size:6.75px; font-family:Arial;" text-anchor="middle"><textPath startOffset="22.20632615414155" xlink:href="#id56">August</textPath></text><line stroke="#e1ed5e" stroke-width="0.3" x1="26.63291911575756" x2="22.317208475507996" y1="142.92168965132927" y2="145.44649492493687" /><path d="M 25.769776987707644 143.4266507060508 a86.0,86.0 0 0,1 -11.730757126820373,-40.83630448921669" fill="none" id="id57" stroke="none" /><text fill="#e1ed5e" style="font-size:6.75px; font-family:Arial;" text-anchor="middle"><textPath startOffset="21.46611528233685" xlink:href="#id57">September</textPath></text><line stroke="#e1ed5e" stroke-width="0.3" x1="15.007084014347285" x2="10.007500721073583" y1="101.09737516637583" y2="101.16192664675087" /><path d="M 14.007167355692545 101.11028546245083 a86.0,86.0 0 0,1 10.666146001902534,-42.60595125391555" fill="none" id="id58" stroke="none" /><text fill="#e1ed5e" style="font-size:6.75px; font-family:Arial;" text-anchor="middle"><textPath startOffset="22.20632615414155" xlink:href="#id58">October</textPath></text><line stroke="#e1ed5e" stroke-width="0.3" x1="26.266209847984243" x2="21.928928074336255" y1="57.711370442889674" y2="55.22380399835377" /><path d="M 25.398753493254645 57.213857153982495 a86.0,86.0 0 0,1 29.58750427330803,-30.492523968695096" fill="none" id="id59" stroke="none" /><text fill="#e1ed5e" style="font-size:6.75px; font-family:Arial;" text-anchor="middle"><textPath startOffset="21.46611528233685" xlink:href="#id59">November</textPath></text><line stroke="#e1ed5e" stroke-width="0.3" x1="56.762969772571076" x2="54.21961505331055" y1="26.818313649435495" y2="22.513508569990535" /><path d="M 56.25429882871897 25.957352633546506 a86.0,86.0 0 0,1 42.265352541879196,-11.944610805530505" fill="none" id="id60" stroke="none" /><text fill="#e1ed5e" style="font-size:6.75px; font-family:Arial;" text-anchor="middle"><textPath startOffset="22.20632615414155" xlink:href="#id60">December</textPath></text></svg>