<?xml version="1.0" encoding="utf-8" ?>
<svg baseProfile="full" height="200mm" version="1.1" viewBox="0,0,200,200" width="200mm" xmlns="http://www.w3.org/2000/svg" xmlns:ev="http://www.w3.org/2001/xml-events" xmlns:xlink="http://www.w3.org/1999/xlink"><defs /><rect fill="#1a1a1a" height="200" width="200" x="0" y="0" /><rect fill="#1a1a1a" height="200" width="180" x="10" y="0" /><text alignment-baseline="middle" fill="#e1ed5e" style="dominant-baseline: central; font-size:9.0px; font-family:Arial;" text-anchor="middle" x="100.0" y="100.0">2026</text><line stroke="#e1ed5e" stroke-width="0.3" x1="100.0" x2="100.0" y1="15.0" y2="10.0" /><path d="M 100.0 14.0 a86.0,86.0 0 0,1 42.46469731375804,11.215312516191453" fill="none" id="id61" stroke="none" /><text fill="#e1ed5e" style="font-size:6.75px; font-family:Arial;" text-anchor="middle"><textPath startOffset="22.20632615414155" xlink:href="#id61">January</textPath></text><path d="M 100.0 79.0 l 0.0 -42.559180415114426 a63.559180415114426,63.559180415114426 0 0,0 1.0940668094583172,0.009416978438226668 l -0.7325863301857889 42.55287481328476" fill="red" stroke="none" /><path d="M 100.36148047927253 79.00311137660856 l 0.5290876335522176 -30.732486954943372 a51.737040979244284,51.737040979244284 0 0,0 0.8903042182728819,0.02299393130469257 l -1.0580184870199671 30.718826231496323" fill="red" stroke="none" /><path d="M 100.72285384407766 79.0124445844662 l 1.2397642300058225 -35.99568666975 a57.01703033528472,57.01703033528472 0 0,0 0.9805820578820792,0.042225926121553854 l -1.8591871202772334 35.96901301710425" fill="red" stroke="none" /><path d="M 101.08401301168833 79.027996857942 l 1.4380431615052909 -27.82129492572462 a48.858435337945714,48.858435337945714 0 0,0 0.8395227478212683,0.05064230478575695 l -1.916727958166171 27.792419351558557" fill="red" stroke="none" /><path d="M 101.80526077348638 79.07773832637324 l 1.5354164009939826 -17.794871628177425 a38.86098988823842,38.86098988823842 0 0,0 0.6659568474846241,0.06324062709674826 l -1.8414983755688508 17.7658054565655" fill="red" stroke="none" /><path d="M 102.52436894288641 79.15227682838746 l 5.114388495499113 -42.237627683824414 a63.54614156466206,63.54614156466206 0 0,0 1.0847788481469869,0.14083542785088202 l -5.840682072153945 42.1433339328094" fill="red" stroke="none" /><path d="M 103.59715602781102 79.31037775812273 l 3.4650624855444194 -19.929864958913182 a41.22884513038851,41.22884513038851 0 0,0 0.698151356174241,0.12758269786967832 l -3.8076089628215612 19.867266779692766" fill="red" stroke="none" /><path d="M 104.307194497241 79.44645832069477 l 7.197224965027883 -34.34450508069534 a56.09052687599787,56.09052687599787 0 0,0 0.9432751272533683,0.2061634075960873 l -7.787342816434779 34.215528175003385" fill="red" stroke="none" /><path d="M 104.66035177308747 79.52364482259891 l 8.241803588062629 -36.212308810273456 a58.138371474188396,58.138371474188396 0 0,0 0.9738905696758662,0.23048843269994745 l -8.86391784470102 36.06507446543264" fill="red" stroke="none" /><path d="M 105.36241919743992 79.69619591428918 l 15.228243128014611 -57.65891357176849 a80.635976583289,80.635976583289 0 0,0 1.338949297100014,0.36598542200015516 l -16.218490314338336 57.38824160894204" fill="red" stroke="none" /><path d="M 108.09893153111575 80.62456947434976 l 14.457964874510871 -34.588426003125484 a58.48855774348058,58.48855774348058 0 0,0 0.9255570343608392,0.39627521926276105 l -15.051205666662026 34.334431255899936" fill="red" stroke="none" /><path d="M 108.43124777332544 80.76684994638697 l 10.840816721848988 -24.7297980465828 a48.001596593932945,48.001596593932945 0 0,0 0.7538945189915801,0.3382504951737617 l -11.264893359307347 24.53952722089251" fill="red" stroke="none" /><path d="M 108.76106565485865 80.91482961587045 l 7.793571709471123 -16.9775743997193 a39.680947312400214,39.680947312400214 0 0,0 0.618308121756667,0.29030395377151125 l -8.084658042527387 16.840905463307784" fill="red" stroke="none" /><path d="M 109.41281617654863 81.2277094730956 l 16.61127444432997 -33.12841386066919 a58.05976583288983,58.05976583288983 0 0,0 0.8895295595135716,0.45565158989838744 l -17.179064491432296 32.8375697454583" fill="red" stroke="none" /><path d="M 110.05341064243156 81.56283822128135 l 5.669645632834828 -10.397682684858365 a32.843001596593936,32.843001596593936 0 0,0 0.49401490699679595,0.2749187608851258 l -5.84778462890366 10.298548526413061" fill="red" stroke="none" /><path d="M 110.36928655335952 81.73862282372117 l 17.79352649115605 -31.336225195342408 a57.0356572645024,57.0356572645024 0 0,0 0.8495685694439993,0.492124951278755 l -18.330291793065378 31.025296086673603" fill="red" stroke="none" /><line stroke="#e1ed5e" stroke-width="0.3" x1="143.23703022742887" x2="145.7803849466894" y1="26.81831364943548" y2="22.513508569990506" /><path d="M 143.74570117128098 25.957352633546492 a86.0,86.0 0 0,1 28.547481713284135,27.462654790039103" fill="none" id="id62" stroke="none" /><text fill="#e1ed5e" style="font-size:6.75px; font-family:Arial;" text-anchor="middle"><textPath startOffset="19.985693538727396" xlink:href="#id62">February</textPath></text><path d="M 110.68208982089419 81.91981866633111 l 21.49986132196863 -36.39001336513636 a63.266737626397024,63.266737626397024 0 0,0 0.9328467578946869,0.5620297339379337 l -22.123070146080956 36.01453702173981" fill="red" stroke="none" /><path d="M 111.2981086023043 82.29822771554956 l 14.837661519045357 -23.24751112680266 a48.57903139968068,48.57903139968068 0 0,0 0.7010023033125753,0.4559513977221491 l -15.235630848142211 22.988660804920983" fill="red" stroke="none" /><path d="M 111.60114157652 82.49532879139004 l 18.24036150305071 -27.522423438337793 a54.01809473124002,54.01809473124002 0 0,0 0.7706460761229631,0.5203436706881822 l -18.711412273580216 27.204367855350938" fill="red" stroke="none" /><path d="M 111.90073688211348 82.69761687909136 l 12.460622534257604 -18.116396249108913 a42.98797232570516,42.98797232570516 0 0,0 0.6060666656229085,0.42458843043789146 l -12.770620339464163 17.899222975907087" fill="red" stroke="none" /><path d="M 112.77801427241765 83.33499621200491 l 22.699846536099045 -29.60499342433615 a58.30601383714742,58.30601383714742 0 0,0 0.7912055134290857,0.6175484531253006 l -23.20608460468756 29.209866581987626" fill="red" stroke="none" /><path d="M 113.34407831869373 83.78471172551755 l 23.116005815512548 -28.089815504758047 a57.3783927621075,57.3783927621075 0 0,0 0.7572375759722679,0.634164692889905 l -23.59610092844393 27.687749654474324" fill="red" stroke="none" /><path d="M 113.89432698308785 84.25364557470407 l 41.68298094926353 -47.23906327588782 a84.0,84.0 0 0,0 1.0759560496160399,0.9660039649228103 l -42.48994798647556 46.51456030219571" fill="red" stroke="none" /><line stroke="#e1ed5e" stroke-width="0.3" x1="172.23445277983987" x2="176.4835382374775" y1="55.19839476539836" y2="52.563006222186495" /><path d="M 173.08426987136738 54.67131705675599 a86.0,86.0 0 0,1 12.851231095245387,41.99856678651699" fill="none" id="id63" stroke="none" /><text fill="#e1ed5e" style="font-size:6.75px; font-family:Arial;" text-anchor="middle"><textPath startOffset="22.20632615414155" xlink:href="#id63">March</textPath></text><line stroke="#e1ed5e" stroke-width="0.3" x1="184.98032266829074" x2="189.97916517819016" y1="98.17113171792111" y2="98.06355123074" /><path d="M 185.9800911702706 98.14961562048488 a86.0,86.0 0 0,1 -9.607161424134198,41.387399972396054" fill="none" id="id64" stroke="none" /><text fill="#e1ed5e" style="font-size:6.75px; font-family:Arial;" text-anchor="middle"><textPath startOffset="21.466115282336823" xlink:href="#id64">April</textPath></text><line stroke="#e1ed5e" stroke-width="0.3" x1="174.80103733775053" x2="179.2010983576182" y1="140.37084112569926" y2="142.7455964860345" /><path d="M 175.68104954172406 140.8457921977663 a86.0,86.0 0 0,1 -30.038265399797805,32.042727171017184" fill="none" id="id65" stroke="none" /><text fill="#e1ed5e" style="font-size:6.75px; font-family:Arial;" text-anchor="middle"><textPath startOffset="22.206326154141568" xlink:href="#id65">May</textPath></text><line stroke="#e1ed5e" stroke-width="0.3" x1="143.8653032363475" x2="146.44561519142675" y1="172.8068346515853" y2="177.08958963109032" /><path d="M 144.38136562736335 173.6633856474863 a86.0,86.0 0 0,1 -40.68145358897372,12.25698825130547" fill="none" id="id66" stroke="none" /><text fill="#e1ed5e" style="font-size:6.75px; font-family:Arial;" text-anchor="middle"><textPath startOffset="21.466115282336833" xlink:href="#id66">June</textPath></text><line stroke="#e1ed5e" stroke-width="0.3" x1="102.19456741930631" x2="102.32365962044197" y1="184.97166512339345" y2="189.96999836594603" /><path d="M 102.22038585953345 185.97133177190398 a86.0,86.0 0 0,1 -42.740103519485714,-10.115201625700543" fill="none" id="id67" stroke="none" /><text fill="#e1ed5e" style="font-size:6.75px; font-family:Arial;" text-anchor="middle"><textPath startOffset="22.20632615414155" xlink:href="#id67">July</textPath></text><line stroke="#e1ed5e" stroke-width="0.3" x1="58.666819895761336" x2="56.23545636021788" y1="174.27360380694188" y2="178.64263932499728" /><path d="M 58.180547188652646 175.14741091055294 a86.0,86.0 0 0,1 -31.652253787137756,-30.449443065178592" fill="none" id="id68" stroke="none" /><text fill="#e1ed5e" style="font-size:6.75px; font-family:Arial;" text-anchor="middle"><textPath startOffset="22.20632615414155" xlink:href="#id68">August</textPath></text><line stroke="#e1ed5e" stroke-width="0.3" x1="26.63291911575756" x2="22.317208475507996" y1="142.92168965132927" y2="145.44649492493687" /><path d="M 25.769776987707644 143.4266507060508 a86.0,86.0 0 0,1 -11.730757126820373,-40.83630448921669" fill="none" id="id69" stroke="none" /><text fill="#e1ed5e" style="font-size:6.75px; font-family:Arial;" text-anchor="middle"><textPath startOffset="21.46611528233685" xlink:href="#id69">September</textPath></text><line stroke="#e1ed5e" stroke-width="0.3" x1="15.007084014347285" x2="10.007500721073583" y1="101.09737516637583" y2="101.16192664675087" /><path d="M 14.007167355692545 101.11028546245083 a86.0,86.0 0 0,1 10.666146001902534,-42.60595125391555" fill="none" id="id70" stroke="none" /><text fill="#e1ed5e" style="font-size:6.75px; font-family:Arial;" text-anchor="middle"><textPath startOffset="22.20632615414155" xlink:href="#id70">October</textPath></text><line stroke="#e1ed5e" stroke-width="0.3" x1="26.266209847984243" x2="21.928928074336255" y1="57.711370442889674" y2="55.22380399835377" /><path d="M 25.398753493254645 57.213857153982495 a86.0,86.0 0 0,1 29.58750427330803,-30.492523968695096" fill="none" id="id71" stroke="none" /><text fill="#e1ed5e" style="font-size:6.75px; font-family:Arial;" text-anchor="middle"><textPath startOffset="21.46611528233685" xlink:href="#id71">November</textPath></text><line stroke="#e1ed5e" stroke-width="0.3" x1="56.762969772571076" x2="54.21961505331055" y1="26.818313649435495" y2="22.513508569990535" /><path d="M 56.25429882871897 25.957352633546506 a86.0,86.0 0 0,1 42.265352541879196,-11.944610805530505" fill="none" id="id72" stroke="none" /><text fill="#e1ed5e" style="font-size:6.75px; font-family:Arial;" text-anchor="middle"><textPath startOffset="22.20632615414155" xlink:href="#id72">December</textPath></text></svg>