<?xml version="1.0" encoding="utf-8" ?>
<svg baseProfile="full" height="200mm" version="1.1" viewBox="0,0,200,200" width="200mm" xmlns="http://www.w3.org/2000/svg" xmlns:ev="http://www.w3.org/2001/xml-events" xmlns:xlink="http://www.w3.org/1999/xlink"><defs /><rect fill="#1a1a1a" height="200" width="200" x="0" y="0" /><text alignment-baseline="middle" fill="#e1ed5e" style="dominant-baseline: central; font-size:9.0px; font-family:Arial;" text-anchor="middle" x="100.0" y="100.0">2025</text><line stroke="#e1ed5e" stroke-width="0.3" x1="100.0" x2="100.0" y1="15.0" y2="10.0" /><path d="M 100.0 14.0 a86.0,86.0 0 0,1 42.46469731375804,11.215312516191453" fill="none" id="id49" stroke="none" /><text fill="#e1ed5e" style="font-size:6.75px; font-family:Arial;" text-anchor="middle"><textPath startOffset="22.20632615414155" xlink:href="#id49">January</textPath></text><path d="M 102.16513564639614 79.11191278185805 l 1.1932572993788941 -11.511917317789436 a32.57359509029676,32.57359509029676 0 0,0 0.5572152353727017,0.06260962418354986 l -1.3912392382613212 11.489671740135286" fill="#ff880c" stroke="none" /><path d="M 102.88285421437855 79.19881850522331 l 1.6528061958730762 -11.92579266914419 a33.039779861298534,33.039779861298534 0 0,0 0.5626690551528076,0.08292279241894138 l -1.8578442314545396 11.89557539256428" fill="#ff8e0d" stroke="none" /><path d="M 103.2404852339499 79.25152402106235 l 1.518079816683313 -9.720100644362548 a30.83793285534916,30.83793285534916 0 0,0 0.5237614282168309,0.08642512341686805 l -1.685170451039019 9.692529258006054" fill="#ff700a" stroke="none" /><path d="M 103.59715602781102 79.31037775812273 l 1.6111666027427674 -9.266884205676655 a30.405902439596804,30.405902439596804 0 0,0 0.5148803454661826,0.09409109210160016 l -1.7704420693118506 9.237777632224317" fill="#ff6a09" stroke="none" /><path d="M 104.66035177308747 79.52364482259891 l 2.700498280632104 -11.865276408855758 a33.16870885600629,33.16870885600629 0 0,0 0.5556174337894946,0.1314966952986617 l -2.9043394013841217 11.817033801416228" fill="#ff900d" stroke="none" /><path d="M 105.01212808612495 79.60689891045804 l 2.027765433189162 -8.250472604517256 a29.49600675905608,29.49600675905608 0 0,0 0.4920089993801794,0.1254240489793586 l -2.1694833212543663 8.21434555936903" fill="#ff5e08" stroke="none" /><path d="M 105.36241919743992 79.69619591428918 l 3.487966780668327 -13.206538236691179 a34.65937643013882,34.65937643013882 0 0,0 0.5755141771133034,0.15730976477905512 l -3.7147788470053413 13.144541931085831" fill="#ffa40f" stroke="none" /><path d="M 106.0581310904928 79.89281104454417 l 3.269253854372858 -10.850789461520247 a32.33259249697838,32.33259249697838 0 0,0 0.5315087556257437,0.165142357624968 l -3.45554798270932 10.792906969012758" fill="#ff850c" stroke="none" /><path d="M 106.40334571778207 80.00007090966166 l 0.6075961246098808 -1.8977390794340943 a22.99263309825274,22.99263309825274 0 0,0 0.3758936145003672,0.12392621475547841 l -0.6401725613526654 1.8869991404193796" fill="#ff0000" stroke="none" /><path d="M 107.08798089147638 80.2323363322302 l 9.627274436539967 -26.849497199928248 a49.52332226381441,49.52332226381441 0 0,0 0.7999612475403003,0.2946324786197742 l -10.088018009852844 26.679801453502147" fill="#a3ff21" stroke="none" /><path d="M 107.4271985657038 80.35727306442388 l 8.00745417314748 -21.177330103786 a43.64064117156972,43.64064117156972 0 0,0 0.7003633697632214,0.27173010667034936 l -8.37080070791037 21.036357293225105" fill="#e8ff1a" stroke="none" /><path d="M 108.09893153111575 80.62456947434976 l 20.047799300928258 -47.96123304104563 a72.98263298090802,72.98263298090802 0 0,0 1.1549197304182837,0.494476355763904 l -20.870402789136858 47.60903715731894" fill="#3fffbf" stroke="none" /><path d="M 108.43124777332544 80.76684994638697 l 11.881075450928307 -27.102810057244188 a50.59260493551908,50.59260493551908 0 0,0 0.7945878943371438,0.3565084265078963 l -12.34584546373223 26.89428130021976" fill="#97ff23" stroke="none" /><path d="M 108.76106565485865 80.91482961587045 l 7.304606213508924 -15.912408337731886 a38.508912331757,38.508912331757 0 0,0 0.6000454844811665,0.28172940069543295 l -7.577429909289688 15.78431395439645" fill="#ffd614" stroke="none" /><path d="M 109.08828744355905 81.06846463323043 l 11.96974135383767 -24.933804435494533 a48.65807859749586,48.65807859749586 0 0,0 0.7519497427120074,0.3689784730669042 l -12.397162363560108 24.724070802292797" fill="#adff20" stroke="none" /><path d="M 109.73455568895987 81.39251694778311 l 1.011208542472316 -1.932912648252676 a23.181443105410764,23.181443105410764 0 0,0 0.35197704584677864,0.1880139481543187 l -1.0443306348474057 1.9152199735966031" fill="#ff0300" stroke="none" /><path d="M 110.36928655335952 81.73862282372117 l 7.467872105116082 -13.151688740972519 a36.12402163836703,36.12402163836703 0 0,0 0.5380815240463996,0.31169154948685707 l -7.69315036162781 13.021193034095614" fill="#ffb811" stroke="none" /><line stroke="#e1ed5e" stroke-width="0.3" x1="143.23703022742887" x2="145.7803849466894" y1="26.81831364943548" y2="22.513508569990506" /><path d="M 143.74570117128098 25.957352633546492 a86.0,86.0 0 0,1 28.547481713284135,27.462654790039103" fill="none" id="id50" stroke="none" /><text fill="#e1ed5e" style="font-size:6.75px; font-family:Arial;" text-anchor="middle"><textPath startOffset="19.985693538727396" xlink:href="#id50">February</textPath></text><path d="M 113.06298171725822 83.55741782278167 l 39.188945151774654 -49.32774653165496 a84.0,84.0 0 0,0 1.1243864057420354,0.9091756109434814 l -40.032234956081176 48.64586482344735" fill="#4dd2ff" stroke="none" /><path d="M 113.6212207817346 84.01681056812373 l 13.813633572040198 -16.208967291720814 a42.29664511435243,42.29664511435243 0 0,0 0.5500702893888901,0.4770155344754042 l -14.09059766007585 15.96878676382574" fill="#f8ff18" stroke="none" /><path d="M 113.89432698308785 84.25364557470407 l 3.34837318422275 -3.794690521613933 a26.060758750982764,26.060758750982764 0 0,0 0.3338122742345721,0.29969995574221636 l -3.413196446053312 3.7364915571024193" fill="#ff2d04" stroke="none" /><line stroke="#e1ed5e" stroke-width="0.3" x1="172.23445277983987" x2="176.4835382374775" y1="55.19839476539836" y2="52.563006222186495" /><path d="M 173.08426987136738 54.67131705675599 a86.0,86.0 0 0,1 12.851231095245387,41.99856678651699" fill="none" id="id51" stroke="none" /><text fill="#e1ed5e" style="font-size:6.75px; font-family:Arial;" text-anchor="middle"><textPath startOffset="22.20632615414155" xlink:href="#id51">March</textPath></text><line stroke="#e1ed5e" stroke-width="0.3" x1="184.98032266829074" x2="189.97916517819016" y1="98.17113171792111" y2="98.06355123074" /><path d="M 185.9800911702706 98.14961562048488 a86.0,86.0 0 0,1 -9.607161424134198,41.387399972396054" fill="none" id="id52" stroke="none" /><text fill="#e1ed5e" style="font-size:6.75px; font-family:Arial;" text-anchor="middle"><textPath startOffset="21.466115282336823" xlink:href="#id52">April</textPath></text><line stroke="#e1ed5e" stroke-width="0.3" x1="174.80103733775053" x2="179.2010983576182" y1="140.37084112569926" y2="142.7455964860345" /><path d="M 175.68104954172406 140.8457921977663 a86.0,86.0 0 0,1 -30.038265399797805,32.042727171017184" fill="none" id="id53" stroke="none" /><text fill="#e1ed5e" style="font-size:6.75px; font-family:Arial;" text-anchor="middle"><textPath startOffset="22.206326154141568" xlink:href="#id53">May</textPath></text><line stroke="#e1ed5e" stroke-width="0.3" x1="143.8653032363475" x2="146.44561519142675" y1="172.8068346515853" y2="177.08958963109032" /><path d="M 144.38136562736335 173.6633856474863 a86.0,86.0 0 0,1 -40.68145358897372,12.25698825130547" fill="none" id="id54" stroke="none" /><text fill="#e1ed5e" style="font-size:6.75px; font-family:Arial;" text-anchor="middle"><textPath startOffset="21.466115282336833" xlink:href="#id54">June</textPath></text><line stroke="#e1ed5e" stroke-width="0.3" x1="102.19456741930631" x2="102.32365962044197" y1="184.97166512339345" y2="189.96999836594603" /><path d="M 102.22038585953345 185.97133177190398 a86.0,86.0 0 0,1 -42.740103519485714,-10.115201625700543" fill="none" id="id55" stroke="none" /><text fill="#e1ed5e" style="font-size:6.75px; font-family:Arial;" text-anchor="middle"><textPath startOffset="22.20632615414155" xlink:href="#id55">July</textPath></text><line stroke="#e1ed5e" stroke-width="0.3" x1="58.666819895761336" x2="56.23545636021788" y1="174.27360380694188" y2="178.64263932499728" /><path d="M 58.180547188652646 175.14741091055294 a86.0,86.0 0 0,1 -31.652253787137756,-30.449443065178592" fill="none" id="id56" stroke="none" /><text fill="#e1ed5e" style="font-size:6.75px; font-family:Arial;" text-anchor="middle"><textPath startOffset="22.20632615414155" xlink:href="#id56">August</textPath></text><line stroke="#e1ed5e" stroke-width="0.3" x1="26.63291911575756" x2="22.317208475507996" y1="142.92168965132927" y2="145.44649492493687" /><path d="M 25.769776987707644 143.4266507060508 a86.0,86.0 0 0,1 -11.730757126820373,-40.83630448921669" fill="none" id="id57" stroke="none" /><text fill="#e1ed5e" style="font-size:6.75px; font-family:Arial;" text-anchor="middle"><textPath startOffset="21.46611528233685" xlink:href="#id57">September</textPath></text><line stroke="#e1ed5e" stroke-width="0.3" x1="15.007084014347285" x2="10.007500721073583" y1="101.09737516637583" y2="101.16192664675087" /><path d="M 14.007167355692545 101.11028546245083 a86.0,86.0 0 0,1 10.666146001902534,-42.60595125391555" fill="none" id="id58" stroke="none" /><text fill="#e1ed5e" style="font-size:6.75px; font-family:Arial;" text-anchor="middle"><textPath startOffset="22.20632615414155" xlink:href="#id58">October</textPath></text><line stroke="#e1ed5e" stroke-width="0.3" x1="26.266209847984243" x2="21.928928074336255" y1="57.711370442889674" y2="55.22380399835377" /><path d="M 25.398753493254645 57.213857153982495 a86.0,86.0 0 0,1 29.58750427330803,-30.492523968695096" fill="none" id="id59" stroke="none" /><text fill="#e1ed5e" style="font-size:6.75px; font-family:Arial;" text-anchor="middle"><textPath startOffset="21.46611528233685" xlink:href="#id59">November</textPath></text><line stroke="#e1ed5e" stroke-width="0.3" x1="56.762969772571076" x2="54.21961505331055" y1="26.818313649435495" y2="22.513508569990535" /><path d="M 56.25429882871897 25.957352633546506 a86.0,86.0 0 0,1 42.265352541879196,-11.944610805530505" fill="none" id="id60" stroke="none" /><text fill="#e1ed5e" style="font-size:6.75px; font-family:Arial;" text-anchor="middle"><textPath startOffset="22.20632615414155" xlink:href="#id60">December</textPath></text></svg>