<?xml version="1.0" encoding="utf-8" ?>
<svg baseProfile="full" height="200mm" version="1.1" viewBox="0,0,200,200" width="200mm" xmlns="http://www.w3.org/2000/svg" xmlns:ev="http://www.w3.org/2001/xml-events" xmlns:xlink="http://www.w3.org/1999/xlink"><defs /><rect fill="#1a1a1a" height="200" width="200" x="0" y="0" /><text alignment-baseline="middle" fill="#e1ed5e" style="dominant-baseline: central; font-size:9.0px; font-family:Arial;" text-anchor="middle" x="100.0" y="100.0">2025</text><line stroke="#e1ed5e" stroke-width="0.3" x1="100.0" x2="100.0" y1="15.0" y2="10.0" /><path d="M 100.0 14.0 a86.0,86.0 0 0,1 42.46469731375804,11.215312516191453" fill="none" id="id49" stroke="none" /><text fill="#e1ed5e" style="font-size:6.75px; font-family:Arial;" text-anchor="middle"><textPath startOffset="22.20632615414155" xlink:href="#id49">January</textPath></text><path d="M 102.16513564639614 79.11191278185805 l 1.1856220375918465 -11.438256337514753 a32.49953945420076,32.49953945420076 0 0,0 0.5559484139308706,0.06246728203397161 l -1.3823371550324424 11.416153102010181" fill="#ff8d0d" stroke="none" /><path d="M 102.88285421437855 79.19881850522331 l 1.6422304315384988 -11.84948343634556 a32.96274126187217,32.96274126187217 0 0,0 0.5613570840642743,0.08272944198454694 l -1.845956496031429 11.819459510200044" fill="#ff930d" stroke="none" /><path d="M 103.2404852339499 79.25152402106235 l 1.5083661222269347 -9.657904910839873 a30.77498315218532,30.77498315218532 0 0,0 0.5226922700929848,0.08624870316553312 l -1.6743875984587946 9.630509944734715" fill="#ff760a" stroke="none" /><path d="M 103.59715602781102 79.31037775812273 l 0.8111989934160582 -4.665741660080979 a25.73573532258027,25.73573532258027 0 0,0 0.43579776393875963,0.07963925581060355 l -0.8913918784577187 4.651086922919637" fill="#ff2f04" stroke="none" /><path d="M 104.66035177308747 79.52364482259891 l 2.6832186785388834 -11.789354399743013 a33.09084528226211,33.09084528226211 0 0,0 0.5543131213660827,0.13118800668868438 l -2.88575548686749 11.74142048091346" fill="#ff950d" stroke="none" /><path d="M 105.01212808612495 79.60689891045804 l 2.0147904277706457 -8.197680538434657 a29.44164360051208,29.44164360051208 0 0,0 0.4911021931315618,0.1251928838757026 l -2.1556015095872323 8.161784658390086" fill="#ff6309" stroke="none" /><path d="M 105.36241919743992 79.69619591428918 l 3.4656484261199902 -13.122033933394412 a34.571974563880616,34.571974563880616 0 0,0 0.5740628811490166,0.15691307076899286 l -3.6910091964927174 13.060434321799127" fill="#ffa80f" stroke="none" /><path d="M 106.0581310904928 79.89281104454417 l 2.3984372652971753 -7.960512998277523 a29.313980304962936,29.313980304962936 0 0,0 0.48188641834967266,0.14972445588413205 l -2.535109056357566 7.918048407510871" fill="#ff6209" stroke="none" /><path d="M 106.40334571778207 80.00007090966166 l 0.6037083164442759 -1.8855960699737417 a22.979882893113732,22.979882893113732 0 0,0 0.3756851685744551,0.12385749341097294 l -0.6360763072611485 1.8749248523035327" fill="#ff0701" stroke="none" /><path d="M 107.08798089147638 80.2323363322302 l 9.565672667452114 -26.67769608035516 a49.34081088706951,49.34081088706951 0 0,0 0.7970131006479456,0.29354665123888485 l -10.023468093872637 26.509086161309952" fill="#a2ff22" stroke="none" /><path d="M 107.4271985657038 80.35727306442388 l 7.956217102239479 -21.04182331964373 a43.495771140218125,43.495771140218125 0 0,0 0.698038434551197,0.27082806792811953 l -8.317238701790343 20.901752547825065" fill="#e6ff1a" stroke="none" /><path d="M 108.09893153111575 80.62456947434976 l 18.39176002397034 -43.999417357684024 a68.68863139779731,68.68863139779731 0 0,0 1.0869689461258174,0.4653833761365937 l -19.14641272788647 43.67631445358464" fill="#3aff91" stroke="none" /><path d="M 108.43124777332544 80.76684994638697 l 10.308799255016776 -23.516173201740745 a46.676482316207256,46.676482316207256 0 0,0 0.7330827864263939,0.3289128774192059 l -10.71206415990995 23.335239993805008" fill="#c0ff1e" stroke="none" /><path d="M 108.76106565485865 80.91482961587045 l 7.25786643599366 -15.81059005982634 a38.39687854882602,38.39687854882602 0 0,0 0.598299775202807,0.2809097667818373 l -7.528944422496065 15.6833153104045" fill="#ffda14" stroke="none" /><path d="M 109.08828744355905 81.06846463323043 l 11.893150907831291 -24.774261205119043 a48.4811036309664,48.4811036309664 0 0,0 0.7492148159663562,0.36763645639046955 l -12.317836990808079 24.565869588593742" fill="#acff21" stroke="none" /><path d="M 109.73455568895987 81.39251694778311 l 1.0047381509255031 -1.9205445746707381 a23.167484767010464,23.167484767010464 0 0,0 0.3517651084495801,0.18790073853659212 l -1.0376483059033943 1.9029651096323918" fill="#ff0a01" stroke="none" /><path d="M 110.36928655335952 81.73862282372117 l 7.420087642750395 -13.067535401595203 a36.02724798817272,36.02724798817272 0 0,0 0.5366400424277311,0.3108565502921237 l -7.643924417643454 12.93787469391303" fill="#ffbb11" stroke="none" /><line stroke="#e1ed5e" stroke-width="0.3" x1="143.23703022742887" x2="145.7803849466894" y1="26.81831364943548" y2="22.513508569990506" /><path d="M 143.74570117128098 25.957352633546492 a86.0,86.0 0 0,1 28.547481713284135,27.462654790039103" fill="none" id="id50" stroke="none" /><text fill="#e1ed5e" style="font-size:6.75px; font-family:Arial;" text-anchor="middle"><textPath startOffset="19.985693538727396" xlink:href="#id50">February</textPath></text><path d="M 113.06298171725822 83.55741782278167 l 38.93818795502605 -49.012114472810346 a83.59688367895643,83.59688367895643 0 0,0 1.1189904710835339,0.9048124737117424 l -39.77608182467408 48.334595901834476" fill="#4cd6ff" stroke="none" /><path d="M 113.6212207817346 84.01681056812373 l 13.725244664963933 -16.105251430410437 a42.16037487262119,42.16037487262119 0 0,0 0.5482980870995232,0.47547869811363647 l -14.00043655071022 15.866607738877128" fill="#f6ff19" stroke="none" /><path d="M 114.16331599549186 84.49514656593476 l 16.546684895005832 -18.11397304122756 a45.533829712316276,45.533829712316276 0 0,0 0.5741428156404432,0.5336031747933003 l -16.85603559444112 17.82646528035962" fill="#ceff1d" stroke="none" /><path d="M 114.68862486808459 84.99185889309783 l 12.929815155462194 -13.21107265534269 a39.48546890557995,39.48546890557995 0 0,0 0.48165540701028353,0.4795870256229971 l -13.1553063626398 12.986549779069573" fill="#ffe715" stroke="none" /><path d="M 114.94478906791727 85.2469230424477 l 44.8343672037518 -44.25923087265689 a84.0,84.0 0 0,0 1.0069429451875638,1.0377432177995427 l -45.58957441264248 43.480923459307235" fill="#4dd2ff" stroke="none" /><path d="M 115.4437574822437 85.77008943001954 l 11.890431727687742 -10.955868759140428 a37.16828460098079,37.16828460098079 0 0,0 0.42948193456290773,0.47424467908594975 l -12.077257302866686 10.749571292784928" fill="#ffca12" stroke="none" /><path d="M 115.9244219780498 86.31012108654704 l 4.637640375149278 -3.986878473042659 a27.11579170737736,27.11579170737736 0 0,0 0.30122982915357993,0.3565611049387403 l -4.705580817789976 3.9064584184748123" fill="#ff4306" stroke="none" /><path d="M 116.60985879189232 87.15038557335679 l 11.619646621617195 -8.989117892712564 a35.69082802636887,35.69082802636887 0 0,0 0.37173537155668523,0.48916017463813544 l -11.772657933397992 8.787772942193394" fill="#ffb711" stroke="none" /><path d="M 116.82858285166822 87.43820079747576 l 4.6610307289909345 -3.479255063273209 a26.816392632199964,26.816392632199964 0 0,0 0.2729364620483456,0.372285027501778 l -4.720229803552907 3.3985075920999375" fill="#ff3f05" stroke="none" /><path d="M 117.04232023915458 87.72973835380427 l 16.472519480387312 -11.860012085210956 a41.29787635919308,41.29787635919308 0 0,0 0.41039741071729346,0.5804780330384727 l -16.67422951090849 11.574707551840689" fill="#fffe18" stroke="none" /><path d="M 117.2510076193507 88.02491185347247 l 24.574657506968503 -17.0589275890511 a50.915226926655464,50.915226926655464 0 0,0 0.49357592986626575,0.7242617730079214 l -24.864657902503502 16.63338779277277" fill="#91ff24" stroke="none" /><path d="M 117.45458315368197 88.32363383020206 l 31.383766985342923 -20.99439166676283 a58.75851310165353,58.75851310165353 0 0,0 0.555137461939691,0.845512440326232 l -31.74050108264054 20.451061162458924" fill="#3fff2d" stroke="none" /><line stroke="#e1ed5e" stroke-width="0.3" x1="172.23445277983987" x2="176.4835382374775" y1="55.19839476539836" y2="52.563006222186495" /><path d="M 173.08426987136738 54.67131705675599 a86.0,86.0 0 0,1 12.851231095245387,41.99856678651699" fill="none" id="id51" stroke="none" /><text fill="#e1ed5e" style="font-size:6.75px; font-family:Arial;" text-anchor="middle"><textPath startOffset="22.20632615414155" xlink:href="#id51">March</textPath></text><path d="M 117.84615892207809 88.93136811851018 l 16.930627694074754 -10.500796630048654 a40.92267261139961,40.92267261139961 0 0,0 0.3661296988374773,0.601820957566482 l -17.10887319119846 10.20780789927509" fill="#fff917" stroke="none" /><path d="M 118.03404312379186 89.2402003453031 l 53.131836377978885 -31.700485065324912 a82.87012841649198,82.87012841649198 0 0,0 0.7203400103729631,1.2312945793724754 l -53.66963606282218 30.78121107359854" fill="#4cdcff" stroke="none" /><path d="M 118.3937258080291 89.86733742301442 l 12.736325151015093 -7.0161361853984845 a35.54098158049991,35.54098158049991 0 0,0 0.29057612777131236,0.5383934338946585 l -12.85520937800487 6.795861768171368" fill="#ffb510" stroke="none" /><path d="M 119.196687751892 91.48605970444005 l 31.35163405725775 -13.90479149224211 a55.29676638551997,55.29676638551997 0 0,0 0.37841233548848513,0.8734278434129411 l -31.586337102588917 13.363064504242566" fill="#62ff29" stroke="none" /><path d="M 119.34039704204932 91.81776055985345 l 4.799436881481974 -2.030472366041698 a26.21127742579383,26.21127742579383 0 0,0 0.17221846875090127,0.41704068232671443 l -4.833677037119072 1.9475571132616805" fill="#ff3605" stroke="none" /><path d="M 119.47837535516314 92.15188598940014 l 2.212238792817866 -0.8913424219491837 a23.385055930080988,23.385055930080988 0 0,0 0.1472216776349475,0.3746631113449279 l -2.227254020334514 0.8531303057084714" fill="#ff0d01" stroke="none" /><path d="M 119.61058180528143 92.48833698450437 l 15.282790136449938 -5.853940009604167 a37.365582421374924,37.365582421374924 0 0,0 0.2248970555250534,0.6026122970258643 l -15.381291780476616 5.59000457554897" fill="#ffcd13" stroke="none" /><path d="M 120.08093135843002 93.85539295169968 l 59.490108590398506 -18.203505306802313 a83.21286543434715,83.21286543434715 0 0,0 0.4073234214803978,1.3732920859123894 l -59.79463790899061 17.176783834143393" fill="#4cd9ff" stroke="none" /><path d="M 120.6074358757038 95.95851677861258 l 21.505517368014495 -4.2176129109084615 a42.915189616616026,42.915189616616026 0 0,0 0.13592727479144467,0.7261289371730795 l -21.5749303667158 3.846805896272819" fill="#edff1a" stroke="none" /><path d="M 120.67395015179393 96.31383870115 l 14.485152778452434 -2.5826999285488554 a35.71359880980974,35.71359880980974 0 0,0 0.10269894050180899,0.60613496029537 l -14.527463580474468 2.332979179937648" fill="#ffb711" stroke="none" /><path d="M 120.78858239683441 97.02765380044208 l 10.119841908031589 -1.4469324103621888 a31.222759590429042,31.222759590429042 0 0,0 0.07149120007443543,0.5326924795893009 l -10.14324910716386 1.2725215887082235" fill="#ff7c0b" stroke="none" /><path d="M 120.96714384426684 98.82574320788733 l 32.632430543144004 -1.827566667784819 a53.6835665599444,53.6835665599444 0 0,0 0.043730100999884614,0.9230733162695648 l -32.65905425237739 1.2655822448922545" fill="#73ff27" stroke="none" /><line stroke="#e1ed5e" stroke-width="0.3" x1="184.98032266829074" x2="189.97916517819016" y1="98.17113171792111" y2="98.06355123074" /><path d="M 185.9800911702706 98.14961562048488 a86.0,86.0 0 0,1 -9.607161424134198,41.387399972396054" fill="none" id="id52" stroke="none" /><text fill="#e1ed5e" style="font-size:6.75px; font-family:Arial;" text-anchor="middle"><textPath startOffset="21.466115282336823" xlink:href="#id52">April</textPath></text><path d="M 120.99980553446 99.90962569577887 l 14.133033317659002 -0.06082261335808729 a35.13316419448791,35.13316419448791 0 0,0 -0.002602702798366692,0.6047764693819551 l -14.131986317571132 -0.18246333422755248" fill="#ffb010" stroke="none" /><path d="M 120.95626037817324 101.35467743843564 l 11.753838917309569 0.75980447412603 a32.778371370141244,32.778371370141244 0 0,0 -0.041243684427499074,0.562737305753385 l -11.739018674217732 -0.9620149163761853" fill="#ff910d" stroke="none" /><path d="M 120.8583938346157 102.4346265915055 l 14.796050276420978 1.7270197186729184 a35.896499618738034,35.896499618738034 0 0,0 -0.07691849076972873,0.6131160522128871 l -14.764130276404401 -1.9814535251732006" fill="#ffba11" stroke="none" /><path d="M 120.64145759157962 103.86396538481128 l 1.6870257768702797 0.31580178755255583 a22.716329438320674,22.716329438320674 0 0,0 -0.0752560267414697,0.38372885903079046 l -1.681339817153146 -0.34479437365129123" fill="#ff0300" stroke="none" /><path d="M 120.49622156327973 104.57218783832717 l 12.917467398971676 2.8815597626724334 a34.23496696895572,34.23496696895572 0 0,0 -0.13325461073469796,0.5740573754479004 l -12.865952222306426 -3.103485795468899" fill="#ffa40f" stroke="none" /><path d="M 120.41448212921028 104.9243191809786 l 6.65719128474652 1.6058273987765868 a27.84812948449185,27.84812948449185 0 0,0 -0.11641669937069066,0.46502684452703996 l -6.628563271080768 -1.7201820827010226" fill="#ff4d07" stroke="none" /><path d="M 120.32669344350535 105.2749913415812 l 1.5065886057513818 0.3909756337277124 a22.55649322939378,22.55649322939378 0 0,0 -0.10076514384919563,0.37498458581646316 l -1.4996353855604088 -0.41685115271972384" fill="#ff0100" stroke="none" /><path d="M 120.23288151984713 105.62410040840565 l 2.774643932339852 0.7712631568442433 a23.87984301800909,23.87984301800909 0 0,0 -0.11349448396197034,0.3950891877491124 l -2.7609568114917824 -0.8189098200979377" fill="#ff1402" stroke="none" /><path d="M 120.13307415673323 105.97154293290107 l 8.46709384463865 2.51137079298208 a29.831685084612175,29.831685084612175 0 0,0 -0.1502568387133377,0.49104804271769203 l -8.42261023341918 -2.656745808251829" fill="#ff6909" stroke="none" /><path d="M 120.02730092923936 106.31721596034902 l 31.59631189931178 9.966431648664445 a54.13090227334733,54.13090227334733 0 0,0 -0.28794482111500713,0.886203035560537 l -31.420074827180525 -10.508833584202778" fill="#6eff28" stroke="none" /><path d="M 119.26925614724726 108.34839909993367 l 28.632867549224624 12.405180763068271 a52.20464090252986,52.20464090252986 0 0,0 -0.3643359782222952,0.8214814490020415 l -28.415090486271055 -12.896210548563001" fill="#83ff25" stroke="none" /><path d="M 119.12269723197855 108.67885076344098 l 4.682137607255278 2.124991733870527 a26.141789809229103,26.141789809229103 0 0,0 -0.1894973319144044,0.4081603944695709 l -4.644865658501042 -2.2052721956189285" fill="#ff3505" stroke="none" /><path d="M 118.97047184881838 109.00673069616215 l 6.635522369287205 3.150388850884185 a28.345414013184435,28.345414013184435 0 0,0 -0.21305863294708594,0.4389638897535344 l -6.580310479725405 -3.2641416966029944" fill="#ff5407" stroke="none" /><line stroke="#e1ed5e" stroke-width="0.3" x1="174.80103733775053" x2="179.2010983576182" y1="140.37084112569926" y2="142.7455964860345" /><path d="M 175.68104954172406 140.8457921977663 a86.0,86.0 0 0,1 -30.038265399797805,32.042727171017184" fill="none" id="id53" stroke="none" /><text fill="#e1ed5e" style="font-size:6.75px; font-family:Arial;" text-anchor="middle"><textPath startOffset="22.206326154141568" xlink:href="#id53">May</textPath></text><path d="M 118.12598468904814 110.60418214915192 l 2.023644698727396 1.183885861022311 a23.344509244728208,23.344509244728208 0 0,0 -0.205897598074438,0.3450962175804719 l -2.0029662249547306 -1.218544172488887" fill="#ff0d01" stroke="none" /><path d="M 117.55443506779139 111.5257021239791 l 1.2433942929261637 0.8163744482564903 a22.487446337669848,22.487446337669848 0 0,0 -0.21523366100546157,0.3217451199165528 l -1.229157526509981 -0.83765648237885" fill="#ff0000" stroke="none" /><path d="M 117.35343817320211 111.8261652097733 l 3.651660088634097 2.4885636533289692 a25.419001070331756,25.419001070331756 0 0,0 -0.2495166581658513,0.35944735591964366 l -3.6082825233061095 -2.5510522714356325" fill="#ff2b04" stroke="none" /><path d="M 117.14729908036423 112.12312394758627 l 2.3555799172261334 1.6653927345140134 a23.884837899538056,23.884837899538056 0 0,0 -0.24023621048645233,0.333667084712936 l -2.3265639143640784 -1.7056934246780806" fill="#ff1402" stroke="none" /><path d="M 116.71984013943494 112.70617746262583 l 13.969232097729314 10.615863583032809 a38.54525591189234,38.54525591189234 0 0,0 -0.4059975160140729,0.5248065184641078 l -13.784427764497172 -10.85474809561017" fill="#ffdc14" stroke="none" /><path d="M 116.498646956653 112.99209946851258 l 5.778541073912046 4.55039619990638 a28.35510995968184,28.35510995968184 0 0,0 -0.305265831599956,0.3808660616883042 l -5.699357330257236 -4.649190095172934" fill="#ff5407" stroke="none" /><path d="M 115.80600337817218 113.82643327865902 l 3.765784294691549 3.294151218788102 a26.003255300940445,26.003255300940445 0 0,0 -0.29760249009123674,0.3343595524798409 l -3.708522954951974 -3.3584849410088093" fill="#ff3304" stroke="none" /><path d="M 115.32070863581623 114.36230785411682 l 2.149991595222034 2.015496926960353 a23.946980102089597,23.946980102089597 0 0,0 -0.28450545951093575,0.29830283685937836 l -2.1149795843321333 -2.0522068804022386" fill="#ff1502" stroke="none" /><path d="M 115.07121518719521 114.62390073753431 l 3.352759261304178 3.2532491922627695 a25.6716833123853,25.6716833123853 0 0,0 -0.31045545941836233,0.31448974131566937 l -3.2962631768302804 -3.3104794275591036" fill="#ff2e04" stroke="none" /><path d="M 114.55890576462653 115.13401014063108 l 2.729953969543696 2.8377923263239277 a24.937729544187913,24.937729544187913 0 0,0 -0.3119165677577059,0.29493658366543796 l -2.6807015673951824 -2.884363546735287" fill="#ff2403" stroke="none" /><path d="M 114.0293411484842 115.62618273729858 l 2.0464029084601254 2.279327693531225 a24.06318455177817,24.06318455177817 0 0,0 -0.31059572315140654,0.27406461333561416 l -2.0068648324021314 -2.3142154486391284" fill="#ff1702" stroke="none" /><path d="M 113.48314897796784 116.09983520530334 l 11.33471906379842 13.534457664434182 a38.653821131007206,38.653821131007206 0 0,0 -0.5137826725502164,0.4228081613625665 l -11.100066262703512 -13.727560944653927" fill="#ffdd14" stroke="none" /><path d="M 113.20401910651253 116.32954008644616 l 1.7022952771127582 2.105245284965567 a23.70737269697952,23.70737269697952 0 0,0 -0.31953305758272843,0.25385638607578687 l -1.6658047268126788 -2.13423558504648" fill="#ff1202" stroke="none" /><path d="M 112.92097659922987 116.55440617244103 l 4.393154340037429 5.628526664736501 a28.140036237375796,28.140036237375796 0 0,0 -0.38440799884072174,0.2947476615130856 l -4.295617612703214 -5.703313668076959" fill="#ff5107" stroke="none" /><line stroke="#e1ed5e" stroke-width="0.3" x1="143.8653032363475" x2="146.44561519142675" y1="172.8068346515853" y2="177.08958963109032" /><path d="M 144.38136562736335 173.6633856474863 a86.0,86.0 0 0,1 -40.68145358897372,12.25698825130547" fill="none" id="id54" stroke="none" /><text fill="#e1ed5e" style="font-size:6.75px; font-family:Arial;" text-anchor="middle"><textPath startOffset="21.466115282336833" xlink:href="#id54">June</textPath></text><path d="M 110.8373102113329 117.98757091392108 l 3.5870559487756846 5.95373039920293 a27.950818372396167,27.950818372396167 0 0,0 -0.41424727183523197,0.24474458989877637 l -3.4840408059120707 -6.014593561395456" fill="#ff4f07" stroke="none" /><path d="M 110.21172684928248 118.3499491758327 l 2.7353413826099757 4.915268111873923 a26.62511805129664,26.62511805129664 0 0,0 -0.4023907190850386,0.21941550365602694 l -2.650327851656288 -4.961624267289721" fill="#ff3c05" stroke="none" /><path d="M 109.89434966115114 118.52300852407294 l 8.271805429934311 15.48547683631387 a38.556274032912114,38.556274032912114 0 0,0 -0.5880916827344378,0.3076617734772291 l -8.004022844673377 -15.625568028735817" fill="#ffdc14" stroke="none" /><path d="M 109.57404056367764 118.69057910512821 l 4.691701604697461 9.159207065921459 a31.290925032471392,31.290925032471392 0 0,0 -0.4815019118683248,0.2414350544265003 l -4.533345785146376 -9.238609961257263" fill="#ff7d0b" stroke="none" /><path d="M 109.2508944713604 118.85261126421891 l 8.961269439186351 18.262377729411195 a41.342536476393235,41.342536476393235 0 0,0 -0.6415718528759453,0.30799347763774615 l -8.645584918310172 -18.413925483548503" fill="#fffe18" stroke="none" /><path d="M 108.59647513512805 119.15986991738527 l 6.0212952150202925 13.42029509077906 a35.70919156140183,35.70919156140183 0 0,0 -0.5629797643174261,0.246793784226569 l -5.789394776045112 -13.521953428300083" fill="#ffb711" stroke="none" /><path d="M 107.93186726928326 119.44442032107085 l 3.8880186342059053 9.531206962126435 a31.2937162897964,31.2937162897964 0 0,0 -0.500519035907997,0.19916685392345213 l -3.723378522256042 -9.596720660455954" fill="#ff7d0b" stroke="none" /><path d="M 106.91757812671514 119.82793768551818 l 1.1157935649579747 3.1982125637942875 a24.38726421803987,24.38726421803987 0 0,0 -0.3975475558424761,0.13486971542902057 l -1.0605762761782715 -3.216945266121431" fill="#ff1c02" stroke="none" /><path d="M 106.2309692047433 120.05430185196036 l 8.846546823436244 28.472507970290984 a50.81518238779588,50.81518238779588 0 0,0 -0.8375431572761628,0.25234488281602513 l -8.355128691719834 -28.620568222212736" fill="#92ff23" stroke="none" /><path d="M 104.48393922423573 120.51570834832081 l 1.5696228760084663 7.181614988666785 a28.351143436114718,28.351143436114718 0 0,0 -0.47766079171132525,0.10009846311199452 l -1.445770622867763 -7.20756943250532" fill="#ff5407" stroke="none" /><path d="M 103.7750983002368 120.6578951692458 l 2.63867521378532 14.439220284315523 a35.67834082254646,35.67834082254646 0 0,0 -0.6050894181009843,0.10520255141638526 l -2.389736824212286 -14.482501414252916" fill="#ffb711" stroke="none" /><path d="M 103.06178313531738 120.77559828337769 l 2.1363419599189104 14.496056838002778 a35.65263187350031,35.65263187350031 0 0,0 -0.6079137201353128,0.08425130228832094 l -1.8864996485967673 -14.5306827057837" fill="#ffb710" stroke="none" /><path d="M 102.70371172650421 120.8252237178851 l 2.593946473907222 19.9797615632574 a41.14744228020305,41.14744228020305 0 0,0 -0.703175649806717,0.08514477850430306 l -2.249643401049125 -20.021451870487056" fill="#fffc17" stroke="none" /><path d="M 102.34483914955558 120.86867818915974 l 2.1332104160579357 18.985217681525775 a40.10468730689139,40.10468730689139 0 0,0 -0.6866827751849135,0.07117747732438913 l -1.8060950442674197 -19.019124527305923" fill="#ffef16" stroke="none" /><path d="M 101.62511606390274 120.93702456842531 l 1.8382188291304895 23.682513293986254 a44.753746744116086,44.753746744116086 0 0,0 -0.7685651271712838,0.053004750982146666 l -1.4302909411802753 -23.710646389484687" fill="#d7ff1c" stroke="none" /><path d="M 101.26447882468166 120.96189622390904 l 0.3017046906187459 5.0015091526810656 a26.01060071495363,26.01060071495363 0 0,0 -0.44714939075386373,0.02311251597963068 l -0.21556723145140258 -5.005961475422898" fill="#ff3304" stroke="none" /><line stroke="#e1ed5e" stroke-width="0.3" x1="102.19456741930631" x2="102.32365962044197" y1="184.97166512339345" y2="189.96999836594603" /><path d="M 102.22038585953345 185.97133177190398 a86.0,86.0 0 0,1 -42.740103519485714,-10.115201625700543" fill="none" id="id55" stroke="none" /><text fill="#e1ed5e" style="font-size:6.75px; font-family:Arial;" text-anchor="middle"><textPath startOffset="22.20632615414155" xlink:href="#id55">July</textPath></text><path d="M 100.54218724476979 120.99299961872073 l 0.5992090802986588 23.200833504640453 a44.208570116057544,44.208570116057544 0 0,0 -0.76089329962617,0.01309946819062054 l -0.19975609077982076 -23.20771045011023" fill="#ddff1b" stroke="none" /><path d="M 100.18074693466247 120.99922214144158 l 0.1179860779007207 13.707650777378376 a34.70815853968506,34.70815853968506 0 0,0 -0.5974660251263428,0.0 l 0.11798607790071126 -13.707650777378376" fill="#ffaa0f" stroke="none" /><path d="M 99.81925306533755 120.99922214144158 l -0.09871349696853128 11.468557710657391 a32.46898253190591,32.46898253190591 0 0,0 -0.558838053104839,-0.009620903882254887 l 0.2961112399660382 -11.465159329495977" fill="#ff8c0c" stroke="none" /><path d="M 99.45781275523022 120.99299961872073 l -0.4242899439767506 16.42812278978095 a37.43360095513701,37.43360095513701 0 0,0 -0.6439999137439831,-0.022180659158187524 l 0.7070102093953768 -16.41838533219667" fill="#ffcd13" stroke="none" /><path d="M 99.09653310690486 120.98055641714683 l -1.2310786908650837 28.588447595635724 a49.614941738041544,49.614941738041544 0 0,0 -0.8529326644001232,-0.04408687620542618 l 1.7229994236786959 -28.563020912668094" fill="#9fff22" stroke="none" /><path d="M 98.01472825383883 120.90594882070398 l -1.5635370839603575 16.464862465178218 a37.538934192086074,37.538934192086074 0 0,0 -0.6427512901734238,-0.06662379927793738 l 1.8467209707393746 -16.435509297444522" fill="#ffcf13" stroke="none" /><path d="M 97.65516085044442 120.86867818915974 l -3.2442448632878884 28.873239357002905 a50.05493203743129,50.05493203743129 0 0,0 -0.8553972594885971,-0.10357669554167555 l 3.740769545827875 -28.813117132735883" fill="#9aff23" stroke="none" /><path d="M 97.2962882734958 120.8252237178851 l -5.253846670239293 40.467528847339636 a61.807153733685595,61.807153733685595 0 0,0 -1.0538749815310913,-0.1460574695095007 l 5.9496502429572145 -40.37109681233753" fill="#31ff42" stroke="none" /><path d="M 96.93821686468263 120.77559828337769 l -2.5355727378508077 17.205020176718783 a38.39085530933521,38.39085530933521 0 0,0 -0.6529446038994802,-0.10197651864509855 l 2.831353205358805 -17.158825350726577" fill="#ffda14" stroke="none" /><path d="M 96.58105272829116 120.7198165907248 l -4.423960981106417 26.810492484498862 a48.17303696725344,48.17303696725344 0 0,0 -0.8169941268191558,-0.14204490123678334 l 4.884804079397623 -26.73036900474107" fill="#afff20" stroke="none" /><path d="M 95.51606077576429 120.51570834832081 l -2.917223115345769 13.347392912448512 a34.66247006452305,34.66247006452305 0 0,0 -0.5818010604770216,-0.13241602718293763 l 3.146544325215653 -13.295200151687888" fill="#ffaa0f" stroke="none" /><path d="M 94.81253420990036 120.34920634021253 l -10.673207929720379 41.86848053791229 a64.20748812491402,64.20748812491402 0 0,0 -1.0686252734631076,-0.28223364730557704 l 11.392323645994976 -41.67855554130313" fill="#34ff5e" stroke="none" /><path d="M 94.46302465271185 120.25689768951611 l -1.9541627949231803 7.149259897789762 a28.411522739303095,28.411522739303095 0 0,0 -0.4706420584614556,-0.13300814683766315 l 2.07693602148925 -7.114562957613577" fill="#ff5507" stroke="none" /><path d="M 94.11515582081647 120.15858648285463 l -3.910979624211669 13.397095757646973 a34.956286625050424,34.956286625050424 0 0,0 -0.5761545524556986,-0.17359064038704025 l 4.141009151107613 -13.327789748154206" fill="#ffad10" stroke="none" /><path d="M 93.08242187328487 119.8279376855182 l -4.67910308347948 13.41176964883852 a35.20456161869606,35.20456161869606 0 0,0 -0.5704487474022741,-0.20454262522416333 l 4.9092713915114805 -13.329239482574398" fill="#ffb110" stroke="none" /><path d="M 92.40401165467489 119.57807347666478 l -12.069721332274574 31.10877483528129 a54.368159145973195,54.368159145973195 0 0,0 -0.8695770853111661,-0.346022668271071 l 12.603419493627598 -30.896405322604156" fill="#6bff28" stroke="none" /><path d="M 91.7346041902142 119.30500536409082 l -7.153523630541551 16.708070035345838 a39.17505170938278,39.17505170938278 0 0,0 -0.6176214138185938,-0.2707470775978192 l 7.4400657190178885 -16.582458404453565" fill="#ffe315" stroke="none" /><line stroke="#e1ed5e" stroke-width="0.3" x1="58.666819895761336" x2="56.23545636021788" y1="174.27360380694188" y2="178.64263932499728" /><path d="M 58.180547188652646 175.14741091055294 a86.0,86.0 0 0,1 -31.652253787137756,-30.449443065178592" fill="none" id="id56" stroke="none" /><text fill="#e1ed5e" style="font-size:6.75px; font-family:Arial;" text-anchor="middle"><textPath startOffset="22.20632615414155" xlink:href="#id56">August</textPath></text><path d="M 88.54995079064634 117.60387380957326 l -20.896815736561837 32.127801420087025 a59.325872880031895,59.325872880031895 0 0,0 -0.8512565008614448,-0.5641663911727264 l 21.446746936163244 -31.763337007822983" fill="#39ff2e" stroke="none" /><path d="M 88.24862548938628 117.40417183066458 l -7.1414346904340285 10.576699462477746 a33.761922306506634,33.761922306506634 0 0,0 -0.47884552956618426,-0.329354321582273 l 7.322437104623103 -10.452204351530373" fill="#ff9e0e" stroke="none" /><path d="M 87.36589467227662 116.77436683061367 l -15.404370061274083 20.452461610821228 a46.6046441671583,46.6046441671583 0 0,0 -0.6366444538257765,-0.4881518192814053 l 15.754143243593347 -20.184270449712457" fill="#c1ff1e" stroke="none" /><path d="M 87.07902340077011 116.55440617244103 l -22.351105985845763 28.636325130023234 a57.326451185643094,57.326451185643094 0 0,0 -0.7726582132000192,-0.6138464143853095 l 22.84072169176314 -28.247344801632792" fill="#4dff2c" stroke="none" /><path d="M 86.24171649860922 115.8653595955263 l -26.72457516781475 30.817434095771702 a61.79114073113686,61.79114073113686 0 0,0 -0.7975695817999938,-0.7037624241133177 l 27.25108710252133 -30.352848529886096" fill="#31ff41" stroke="none" /><path d="M 85.70375840098266 115.38237550388516 l -42.49888094129516 45.72766489752422 a83.42735152353214,83.42735152353214 0 0,0 -1.0434940798529797,-0.9866887841174754 l 43.27971085553896 -44.98934147666082" fill="#4cd7ff" stroke="none" /><path d="M 85.44109423537348 115.13401014063109 l -13.540791682242721 14.075678622025304 a40.53145586105741,40.53145586105741 0 0,0 -0.49863350247536076,-0.48801783061270365 l 13.781075137093877 -13.840510688490031" fill="#fff417" stroke="none" /><path d="M 85.18274418774928 114.88116024355367 l -11.896607698264496 11.947915845942093 a37.860663325863555,37.860663325863555 0 0,0 -0.4578604949152002,-0.4638102640369535 l 12.10050881823523 -11.741365087924477" fill="#ffd313" stroke="none" /><path d="M 84.67929136418377 114.36230785411682 l -16.438004035433615 15.409709829752554 a43.5314698523222,43.5314698523222 0 0,0 -0.5077709478834266,-0.5510850779472846 l 16.700821391312772 -15.124473497003926" fill="#e5ff1a" stroke="none" /><path d="M 84.43433777217949 114.09645910891817 l -17.670719325944628 16.00282524171325 a44.839981904630875,44.839981904630875 0 0,0 -0.5131853729860324,-0.576569206790599 l 17.943563548578997 -15.696281865181785" fill="#d6ff1c" stroke="none" /><path d="M 83.95833913139862 113.55231037782056 l -11.223278457431517 9.481646218411813 a35.692297109171506,35.692297109171506 0 0,0 -0.3924521035950509,-0.47273384041271904 l 11.384826560920104 -9.287051120885332" fill="#ffb711" stroke="none" /><path d="M 83.50135304334701 112.99209946851258 l -11.545309463975979 9.091521828718799 a35.69523527477678,35.69523527477678 0 0,0 -0.3759782238370358,-0.48600253668397886 l 11.700094505031084 -8.891441297921567" fill="#ffb711" stroke="none" /><path d="M 83.06392112726016 112.41649034213515 l -4.7521759232644065 3.4840028142709087 a26.892491121376555,26.892491121376555 0 0,0 -0.2704875027711566,-0.37568348384359607 l 4.811443218411171 -3.4016857249761743" fill="#ff4006" stroke="none" /><path d="M 82.44556493220864 111.52570212397912 l -16.268386722084 10.681322336625232 a40.461527519651895,40.461527519651895 0 0,0 -0.37724620517541285,-0.5854944879717194 l 16.449837790636455 -10.399706248732064" fill="#fff316" stroke="none" /><path d="M 82.05923443525364 110.91462005526583 l -27.596479324709954 16.78886475636673 a53.302192664379874,53.302192664379874 0 0,0 -0.47012311660288425,-0.7879533848575798 l 27.88138331701107 -16.311349277623037" fill="#77ff27" stroke="none" /><line stroke="#e1ed5e" stroke-width="0.3" x1="26.63291911575756" x2="22.317208475507996" y1="142.92168965132927" y2="145.44649492493687" /><path d="M 25.769776987707644 143.4266507060508 a86.0,86.0 0 0,1 -11.730757126820373,-40.83630448921669" fill="none" id="id57" stroke="none" /><text fill="#e1ed5e" style="font-size:6.75px; font-family:Arial;" text-anchor="middle"><textPath startOffset="21.46611528233685" xlink:href="#id57">September</textPath></text><path d="M 81.69416730710424 110.29060199501025 l -7.819397099341815 4.395664744685015 a29.970219592900833,29.970219592900833 0 0,0 -0.24892920528191767,-0.4518788139620768 l 7.893902714075249 -4.2604154123251154" fill="#ff6b09" stroke="none" /><path d="M 81.51974371655577 109.97397251340807 l -21.686513242351474 11.704420310699332 a45.64342328939299,45.64342328939299 0 0,0 -0.36720675622727456,-0.6946167973027723 l 21.884772506803632 -11.329388498310434" fill="#ccff1d" stroke="none" /><path d="M 81.18737489456691 109.33194174019688 l -14.37008202562434 7.128232637041624 a37.04091512199217,37.04091512199217 0 0,0 -0.27841846781033686,-0.573624508515445 l 14.490653750049397 -6.879819172560893" fill="#ffc812" stroke="none" /><line stroke="#e1ed5e" stroke-width="0.3" x1="15.007084014347285" x2="10.007500721073583" y1="101.09737516637583" y2="101.16192664675087" /><path d="M 14.007167355692545 101.11028546245083 a86.0,86.0 0 0,1 10.666146001902534,-42.60595125391555" fill="none" id="id58" stroke="none" /><text fill="#e1ed5e" style="font-size:6.75px; font-family:Arial;" text-anchor="middle"><textPath startOffset="22.20632615414155" xlink:href="#id58">October</textPath></text><line stroke="#e1ed5e" stroke-width="0.3" x1="26.266209847984243" x2="21.928928074336255" y1="57.711370442889674" y2="55.22380399835377" /><path d="M 25.398753493254645 57.213857153982495 a86.0,86.0 0 0,1 29.58750427330803,-30.492523968695096" fill="none" id="id59" stroke="none" /><text fill="#e1ed5e" style="font-size:6.75px; font-family:Arial;" text-anchor="middle"><textPath startOffset="21.46611528233685" xlink:href="#id59">November</textPath></text><line stroke="#e1ed5e" stroke-width="0.3" x1="56.762969772571076" x2="54.21961505331055" y1="26.818313649435495" y2="22.513508569990535" /><path d="M 56.25429882871897 25.957352633546506 a86.0,86.0 0 0,1 42.265352541879196,-11.944610805530505" fill="none" id="id60" stroke="none" /><text fill="#e1ed5e" style="font-size:6.75px; font-family:Arial;" text-anchor="middle"><textPath startOffset="22.20632615414155" xlink:href="#id60">December</textPath></text></svg>