<?xml version="1.0" encoding="utf-8" ?>
<svg baseProfile="full" height="200mm" version="1.1" viewBox="0,0,200,200" width="200mm" xmlns="http://www.w3.org/2000/svg" xmlns:ev="http://www.w3.org/2001/xml-events" xmlns:xlink="http://www.w3.org/1999/xlink"><defs /><rect fill="#1a1a1a" height="200" width="200" x="0" y="0" /><rect fill="#1a1a1a" height="200" width="180" x="10" y="0" /><text alignment-baseline="middle" fill="#e1ed5e" style="dominant-baseline: central; font-size:9.0px; font-family:Arial;" text-anchor="middle" x="100.0" y="100.0">2026</text><line stroke="#e1ed5e" stroke-width="0.3" x1="100.0" x2="100.0" y1="15.0" y2="10.0" /><path d="M 100.0 14.0 a86.0,86.0 0 0,1 42.46469731375804,11.215312516191453" fill="none" id="id61" stroke="none" /><text fill="#e1ed5e" style="font-size:6.75px; font-family:Arial;" text-anchor="middle"><textPath startOffset="22.20632615414155" xlink:href="#id61">January</textPath></text><path d="M 100.0 79.0 l 0.0 -16.917749904800417 a37.91774990480042,37.91774990480042 0 0,0 0.6526917337391963,0.005617923814427681 l -0.2912112544666679 16.915243357594548" fill="#ffc512" stroke="none" /><path d="M 100.36148047927253 79.00311137660856 l 0.21031824802200055 -12.216507065808713 a33.21831734136928,33.21831734136928 0 0,0 0.5716292909912043,0.014763498115621844 l -0.4205741742080726 12.211076775550731" fill="#ff860c" stroke="none" /><path d="M 100.72285384407766 79.0124445844662 l 0.49282013844202865 -14.308687779948908 a35.317172125560035,35.317172125560035 0 0,0 0.6073866898680935,0.02615534853756168 l -0.7390476606994537 14.298084704887152" fill="#ffa20f" stroke="none" /><path d="M 101.08401301168833 79.027996857942 l 0.5716382299038594 -11.059275695401952 a32.074039424383315,32.074039424383315 0 0,0 0.5511205081586661,0.03324509409695516 l -0.7619207869021374 11.047797331924693" fill="#ff760a" stroke="none" /><path d="M 101.80526077348638 79.07773832637324 l 0.6103451809546577 -7.073660367919582 a28.099943115306683,28.099943115306683 0 0,0 0.4815458789234457,0.04572858357714632 l -0.7320161869683477 7.062106239827258" fill="#ff3d05" stroke="none" /><path d="M 102.52436894288641 79.15227682838746 l 2.0330265911820615 -16.789929100073685 a37.91256681600858,37.91256681600858 0 0,0 0.6471950860952981,0.08402449679851172 l -2.321736405785206 16.752446280111037" fill="#ffc512" stroke="none" /><path d="M 103.59715602781102 79.31037775812273 l 1.3774010674822101 -7.922344080000114 a29.04119203990391,29.04119203990391 0 0,0 0.49177093230368707,0.08986799455780568 l -1.513567120888798 7.897460604091569" fill="#ff4b06" stroke="none" /><path d="M 104.307194497241 79.44645832069477 l 2.86097736796843 -13.652324642816756 a34.94887664483736,34.94887664483736 0 0,0 0.5877357176088168,0.1284562635092345 l -3.095555809730775 13.601054881211653" fill="#ff9d0e" stroke="none" /><path d="M 104.66035177308747 79.52364482259891 l 3.2762090460231756 -14.394797502022334 a35.76291776165784,35.76291776165784 0 0,0 0.5990736835075464,0.1417813855918072 l -3.523506416493246 14.336270204289658" fill="#ffa80f" stroke="none" /><path d="M 105.36241919743992 79.69619591428918 l 6.053396851546348 -22.920062606357376 a44.70596725134102,44.70596725134102 0 0,0 0.7423364354684892,0.20290858973484507 l -6.447031176238548 22.81246747579624" fill="#e3ff1b" stroke="none" /><path d="M 108.09893153111575 80.62456947434976 l 5.747202636273002 -13.749285935820314 a35.9021207177814,35.9021207177814 0 0,0 0.5681360878234089,0.24324622299346688 l -5.983022481886725 13.648320184864057" fill="#ffaa0f" stroke="none" /><path d="M 108.43124777332544 80.76684994638697 l 4.309345816229255 -9.83037113185876 a31.733436446634165,31.733436446634165 0 0,0 0.49839308488561646,0.22361444937845643 l -4.477921019581652 9.754736351963771" fill="#ff710a" stroke="none" /><path d="M 108.76106565485865 80.91482961587045 l 3.098031864333912 -6.74877558456434 a28.425885356187504,28.425885356187504 0 0,0 0.4429318596021066,0.2079624471510073 l -3.2137419352356167 6.69444815477333" fill="#ff4206" stroke="none" /><path d="M 109.41281617654863 81.2277094730956 l 6.603167258112279 -13.168914790438127 a35.731671140655635,35.731671140655635 0 0,0 0.5474424024015943,0.2804212612883647 l -6.828870148102629 13.053301003837262" fill="#ffa80f" stroke="none" /><path d="M 110.05341064243156 81.56283822128135 l 2.253747509458133 -4.133195083555619 a25.707725505498072,25.707725505498072 0 0,0 0.3866881529492991,0.2151915384579048 l -2.3245597514794674 4.093788147537534" fill="#ff1a02" stroke="none" /><path d="M 110.36928655335952 81.73862282372117 l 7.073125660918806 -12.456499764432388 a35.3245765381198,35.3245765381198 0 0,0 0.526173474542975,0.30479363860306213 l -7.286495867927109 12.332901968439277" fill="#ffa20f" stroke="none" /><line stroke="#e1ed5e" stroke-width="0.3" x1="143.23703022742887" x2="145.7803849466894" y1="26.81831364943548" y2="22.513508569990506" /><path d="M 143.74570117128098 25.957352633546492 a86.0,86.0 0 0,1 28.547481713284135,27.462654790039103" fill="none" id="id62" stroke="none" /><text fill="#e1ed5e" style="font-size:6.75px; font-family:Arial;" text-anchor="middle"><textPath startOffset="19.985693538727396" xlink:href="#id62">February</textPath></text><path d="M 110.68208982089419 81.91981866633111 l 8.546435182379179 -14.465437048808502 a37.801500627612114,37.801500627612114 0 0,0 0.5573704070574521,0.33580943379206424 l -8.794167655654269 14.316181005557823" fill="#ffc312" stroke="none" /><path d="M 111.2981086023043 82.29822771554956 l 5.898136296396897 -9.2411455135221 a31.96297323598686,31.96297323598686 0 0,0 0.46123023068945473,0.29999697199396297 l -6.056333552870632 9.13824961736861" fill="#ff740a" stroke="none" /><path d="M 111.60114157652 82.49532879139004 l 7.250747572483102 -10.940470938638116 a34.125061703438,34.125061703438 0 0,0 0.48684325187795824,0.3287187368894457 l -7.437995518767603 10.81404028945" fill="#ff920d" stroke="none" /><path d="M 111.90073688211348 82.69761687909136 l 4.953236731453247 -7.201469998464602 a29.740464762048035,29.740464762048035 0 0,0 0.41929645287391176,0.2937439607092298 l -5.07646432391081 7.115141194991437" fill="#ff5507" stroke="none" /><path d="M 112.77801427241765 83.33499621200491 l 9.023442717395223 -11.768315785242626 a35.82955747469572,35.82955747469572 0 0,0 0.48620273539677966,0.3794889469971854 l -9.224678007951434 11.611248449022217" fill="#ffa90f" stroke="none" /><path d="M 113.34407831869373 83.78471172551755 l 9.188870682431391 -11.166015626859055 a35.46081772921946,35.46081772921946 0 0,0 0.4679856365199847,0.3919245120390746 l -9.379713855910492 11.006189957426162" fill="#ffa40f" stroke="none" /><path d="M 113.89432698308785 84.25364557470407 l 16.569450823723166 -18.77805564964997 a46.043204159634435,46.043204159634435 0 0,0 0.5897674292769652,0.5294990211423487 l -16.89022924059612 18.490057619738323" fill="#d3ff1c" stroke="none" /><path d="M 114.42810811169701 84.74124197986012 l 3.823556159560908 -4.043684574823516 a26.565156479918762,26.565156479918762 0 0,0 0.329555638051285,0.31703226269874635 l -3.892595041224611 3.9772692253624675" fill="#ff2703" stroke="none" /><path d="M 114.68862486808459 84.99185889309783 l 22.573322302927014 -23.06435145675338 a53.2725764064858,53.2725764064858 0 0,0 0.6498346146758384,0.6470440183236599 l -22.966992717770175 22.672371587779597" fill="#7fff26" stroke="none" /><path d="M 116.60985879189232 87.15038557335679 l 5.873354640291158 -4.543707653644595 a28.425737267936306,28.425737267936306 0 0,0 0.2960663170174164,0.3895885686913307 l -5.950696897532688 4.441934309072231" fill="#ff4206" stroke="none" /><path d="M 116.82858285166822 87.43820079747576 l 12.912717960683871 -9.638777763444272 a37.113482612558826,37.113482612558826 0 0,0 0.3777399435299655,0.5152368584621861 l -13.076720516727462 9.415078461310593" fill="#ffba11" stroke="none" /><path d="M 117.04232023915458 87.72973835380427 l 2.416807734504083 -1.7400719406024816 a23.978054731537156,23.978054731537156 0 0,0 0.23828178210112377,0.3370326823973156 l -2.4464021364090898 1.6982127578733728" fill="#ff0000" stroke="none" /><path d="M 117.2510076193507 88.02491185347247 l 15.92898536754879 -11.057383317550443 a40.39067561151045,40.39067561151045 0 0,0 0.39155016045781427,0.5745515457197232 l -16.116959993675337 10.781553748560313" fill="#ffe515" stroke="none" /><line stroke="#e1ed5e" stroke-width="0.3" x1="172.23445277983987" x2="176.4835382374775" y1="55.19839476539836" y2="52.563006222186495" /><path d="M 173.08426987136738 54.67131705675599 a86.0,86.0 0 0,1 12.851231095245387,41.99856678651699" fill="none" id="id63" stroke="none" /><text fill="#e1ed5e" style="font-size:6.75px; font-family:Arial;" text-anchor="middle"><textPath startOffset="22.20632615414155" xlink:href="#id63">March</textPath></text><path d="M 117.84615892207809 88.93136811851018 l 5.026366201191749 -3.1174774037076363 a26.914644752739633,26.914644752739633 0 0,0 0.2408017401799218,0.3958147463013772 l -5.079283739657895 3.0304948841991775" fill="#ff2c04" stroke="none" /><path d="M 118.21658344932153 89.55222093294921 l 6.498796183797569 -3.7272624100453178 a28.491784627969405,28.491784627969405 0 0,0 0.24033818727554762,0.42753481750759587 l -6.5619920123655495 3.614844082602928" fill="#ff4306" stroke="none" /><path d="M 118.73160827565052 90.50648371742162 l 6.620581011681671 -3.3554296411500464 a28.42233123815882,28.42233123815882 0 0,0 0.21741728199675125,0.4382999735230716 l -6.67735830663183 3.240970079128025" fill="#ff4206" stroke="none" /><path d="M 119.04729006885535 91.15688171328212 l 28.363950927597905 -13.168580529024464 a52.27179600490807,52.27179600490807 0 0,0 0.3718707243475162,0.8193678477672918 l -28.58642396890877 12.678390672415109" fill="#8aff24" stroke="none" /><path d="M 119.34039704204932 91.81776055985345 l 14.616110616298705 -6.183560579765212 a36.87032170409617,36.87032170409617 0 0,0 0.24225260917592445,0.5866339084240969 l -14.720384912360826 5.931052100887812" fill="#ffb711" stroke="none" /><path d="M 119.47837535516314 92.15188598940014 l 21.388155560322268 -8.617591572870092 a44.05896968186883,44.05896968186883 0 0,0 0.27737523702426975,0.7058897234633921 l -21.533324347228238 8.248152844510916" fill="#ebff1a" stroke="none" /><path d="M 119.61058180528143 92.48833698450437 l 20.074499739211394 -7.689362750318818 a42.49678672000978,42.49678672000978 0 0,0 0.25578089737306203,0.6853656386984001 l -20.20388522508608 7.342673974591085" fill="#feff18" stroke="none" /><path d="M 119.85752413597 93.16781622104841 l 10.848256988215903 -3.73245349809398 a32.47239682009863,32.47239682009863 0 0,0 0.1773034712909275,0.5301148115480824 l -10.9108977532786 3.5451655836235836" fill="#ff7b0b" stroke="none" /><path d="M 119.97218684219823 93.5106431181261 l 29.537026937105825 -9.597161820027598 a52.057068040674906,52.057068040674906 0 0,0 0.26956765145375083,0.8546031211119642 l -29.697850072327782 9.087308532489214" fill="#8dff24" stroke="none" /><path d="M 120.18372546131832 94.20196356495316 l 15.294999821870519 -4.3936867062126606 a36.913563473445194,36.913563473445194 0 0,0 0.17017720427465563,0.6122179480156197 l -15.368363796711538 4.129757454778089" fill="#ffb811" stroke="none" /><path d="M 120.28053869075195 94.5502522615342 l 23.44726637326313 -6.300704771178741 a45.27906878346677,45.27906878346677 0 0,0 0.19578597785884067,0.7544432388168804 l -23.552248682992275 5.896165106813011" fill="#dcff1b" stroke="none" /><path d="M 120.53481517161879 95.60439243477599 l 13.048490630240545 -2.793112265666357 a34.34408422695582,34.34408422695582 0 0,0 0.11876626560553243,0.5791464900732975 l -13.094636191761074 2.5680901194296477" fill="#ff950d" stroke="none" /><path d="M 120.73433829027371 96.67025291283417 l 12.790729059344752 -2.05407533299768 a33.95461212631223,33.95461212631223 0 0,0 0.08770655230509146,0.5778765958250743 l -12.824191505089143 1.8335996247805235" fill="#ff900d" stroke="none" /><path d="M 120.83666639777658 97.38593545837742 l 15.663425760795041 -1.965055498800955 a36.786207577417244,36.786207577417244 0 0,0 0.07341414161458377,0.6289675320930196 l -15.694930255413215 1.6951442283830827" fill="#ffb610" stroke="none" /><path d="M 120.91429891909075 98.10471618934814 l 11.101113339037205 -1.0059988371153765 a32.14660266746901,32.14660266746901 0 0,0 0.04519738272412522,0.5515225500067 l -11.116785205580825 0.8147623699009076" fill="#ff770a" stroke="none" /><path d="M 120.94382443527127 98.46500227214037 l 16.342132097748348 -1.1977342397972022 a37.38596499475815,37.38596499475815 0 0,0 0.04151517182892238,0.6422213331434439 l -16.360327860581684 0.9162538424007229" fill="#ffbe11" stroke="none" /><path d="M 120.98425023603335 99.18683210126433 l 15.805443308367149 -0.6124821701554463 a36.81730611016826,36.81730611016826 0 0,0 0.019089432297502762,0.6334853232855132 l -15.813644435120297 0.34032669944493393" fill="#ffb610" stroke="none" /><line stroke="#e1ed5e" stroke-width="0.3" x1="184.98032266829074" x2="189.97916517819016" y1="98.17113171792111" y2="98.06355123074" /><path d="M 185.9800911702706 98.14961562048488 a86.0,86.0 0 0,1 -9.607161424134198,41.387399972396054" fill="none" id="id64" stroke="none" /><text fill="#e1ed5e" style="font-size:6.75px; font-family:Arial;" text-anchor="middle"><textPath startOffset="21.466115282336823" xlink:href="#id64">April</textPath></text><path d="M 120.9904718944345 100.63252640178507 l 10.874071181891221 0.3276790132221886 a31.879007197559133,31.879007197559133 0 0,0 -0.021249433694617615,0.5483534639220297 l -10.8668196153454 -0.5148097241582245" fill="#ff730a" stroke="none" /><path d="M 120.92983693683757 101.71520430193887 l 11.013425014880427 0.902552371602869 a32.05034530419208,32.05034530419208 0 0,0 -0.04979311690516234,0.5494628958549559 l -10.99625730169819 -1.0919966560063954" fill="#ff750a" stroke="none" /><path d="M 120.70491114924044 103.5080841355445 l 62.114733447721314 10.524252406633499 a84.0,84.0 0 0,0 -0.25381423064324515,1.4235249970671267 l -61.924372774738885 -11.591896154433844" fill="#4dd2ff" stroke="none" /><path d="M 118.64920377521936 109.65438752849418 l 4.307638084001134 2.2299937250247543 a25.85063066790152,25.85063066790152 0 0,0 -0.2079713910546009,0.3934034958102486 l -4.26861418472164 -2.3038122359211375" fill="#ff1c02" stroke="none" /><line stroke="#e1ed5e" stroke-width="0.3" x1="174.80103733775053" x2="179.2010983576182" y1="140.37084112569926" y2="142.7455964860345" /><path d="M 175.68104954172406 140.8457921977663 a86.0,86.0 0 0,1 -30.038265399797805,32.042727171017184" fill="none" id="id65" stroke="none" /><text fill="#e1ed5e" style="font-size:6.75px; font-family:Arial;" text-anchor="middle"><textPath startOffset="22.206326154141568" xlink:href="#id65">May</textPath></text><line stroke="#e1ed5e" stroke-width="0.3" x1="143.8653032363475" x2="146.44561519142675" y1="172.8068346515853" y2="177.08958963109032" /><path d="M 144.38136562736335 173.6633856474863 a86.0,86.0 0 0,1 -40.68145358897372,12.25698825130547" fill="none" id="id66" stroke="none" /><text fill="#e1ed5e" style="font-size:6.75px; font-family:Arial;" text-anchor="middle"><textPath startOffset="21.466115282336833" xlink:href="#id66">June</textPath></text><line stroke="#e1ed5e" stroke-width="0.3" x1="102.19456741930631" x2="102.32365962044197" y1="184.97166512339345" y2="189.96999836594603" /><path d="M 102.22038585953345 185.97133177190398 a86.0,86.0 0 0,1 -42.740103519485714,-10.115201625700543" fill="none" id="id67" stroke="none" /><text fill="#e1ed5e" style="font-size:6.75px; font-family:Arial;" text-anchor="middle"><textPath startOffset="22.20632615414155" xlink:href="#id67">July</textPath></text><line stroke="#e1ed5e" stroke-width="0.3" x1="58.666819895761336" x2="56.23545636021788" y1="174.27360380694188" y2="178.64263932499728" /><path d="M 58.180547188652646 175.14741091055294 a86.0,86.0 0 0,1 -31.652253787137756,-30.449443065178592" fill="none" id="id68" stroke="none" /><text fill="#e1ed5e" style="font-size:6.75px; font-family:Arial;" text-anchor="middle"><textPath startOffset="22.20632615414155" xlink:href="#id68">August</textPath></text><line stroke="#e1ed5e" stroke-width="0.3" x1="26.63291911575756" x2="22.317208475507996" y1="142.92168965132927" y2="145.44649492493687" /><path d="M 25.769776987707644 143.4266507060508 a86.0,86.0 0 0,1 -11.730757126820373,-40.83630448921669" fill="none" id="id69" stroke="none" /><text fill="#e1ed5e" style="font-size:6.75px; font-family:Arial;" text-anchor="middle"><textPath startOffset="21.46611528233685" xlink:href="#id69">September</textPath></text><line stroke="#e1ed5e" stroke-width="0.3" x1="15.007084014347285" x2="10.007500721073583" y1="101.09737516637583" y2="101.16192664675087" /><path d="M 14.007167355692545 101.11028546245083 a86.0,86.0 0 0,1 10.666146001902534,-42.60595125391555" fill="none" id="id70" stroke="none" /><text fill="#e1ed5e" style="font-size:6.75px; font-family:Arial;" text-anchor="middle"><textPath startOffset="22.20632615414155" xlink:href="#id70">October</textPath></text><line stroke="#e1ed5e" stroke-width="0.3" x1="26.266209847984243" x2="21.928928074336255" y1="57.711370442889674" y2="55.22380399835377" /><path d="M 25.398753493254645 57.213857153982495 a86.0,86.0 0 0,1 29.58750427330803,-30.492523968695096" fill="none" id="id71" stroke="none" /><text fill="#e1ed5e" style="font-size:6.75px; font-family:Arial;" text-anchor="middle"><textPath startOffset="21.46611528233685" xlink:href="#id71">November</textPath></text><line stroke="#e1ed5e" stroke-width="0.3" x1="56.762969772571076" x2="54.21961505331055" y1="26.818313649435495" y2="22.513508569990535" /><path d="M 56.25429882871897 25.957352633546506 a86.0,86.0 0 0,1 42.265352541879196,-11.944610805530505" fill="none" id="id72" stroke="none" /><text fill="#e1ed5e" style="font-size:6.75px; font-family:Arial;" text-anchor="middle"><textPath startOffset="22.20632615414155" xlink:href="#id72">December</textPath></text></svg>