<?xml version="1.0" encoding="utf-8" ?>
<svg baseProfile="full" height="200mm" version="1.1" viewBox="0,0,200,200" width="200mm" xmlns="http://www.w3.org/2000/svg" xmlns:ev="http://www.w3.org/2001/xml-events" xmlns:xlink="http://www.w3.org/1999/xlink"><defs /><rect fill="#1a1a1a" height="200" width="200" x="0" y="0" /><text alignment-baseline="middle" fill="#e1ed5e" style="dominant-baseline: central; font-size:9.0px; font-family:Arial;" text-anchor="middle" x="100.0" y="100.0">2025</text><line stroke="#e1ed5e" stroke-width="0.3" x1="100.0" x2="100.0" y1="15.0" y2="10.0" /><path d="M 100.0 14.0 a86.0,86.0 0 0,1 42.46469731375804,11.215312516191453" fill="none" id="id49" stroke="none" /><text fill="#e1ed5e" style="font-size:6.75px; font-family:Arial;" text-anchor="middle"><textPath startOffset="22.20632615414155" xlink:href="#id49">January</textPath></text><path d="M 102.16513564639614 79.11191278185805 l 1.1222276962611242 -10.826661154988015 a31.884667508343192,31.884667508343192 0 0,0 0.5454302007865942,0.06128543823243746 l -1.3084246005574438 10.805739763284977" fill="#ff840c" stroke="none" /><path d="M 102.88285421437855 79.19881850522331 l 1.5544215740613656 -11.215900242259362 a32.32310225486907,32.32310225486907 0 0,0 0.5504640007198877,0.08112408466002961 l -1.747254555209909 11.187481673438363" fill="#ff8a0c" stroke="none" /><path d="M 103.2404852339499 79.25152402106235 l 1.427714891250853 -9.141503814162373 a30.252321967757318,30.252321967757318 0 0,0 0.5138152234467785,0.08478391440743836 l -1.5848593208365067 9.11557363681531" fill="#ff6e0a" stroke="none" /><path d="M 103.59715602781102 79.31037775812273 l 1.5152606112948266 -8.715265449512197 a29.84600851093885,29.84600851093885 0 0,0 0.5053993448616286,0.09235849984214868 l -1.665055077259356 8.68789146831931" fill="#ff6809" stroke="none" /><path d="M 104.66035177308747 79.52364482259891 l 2.539748942502464 -11.158986261171478 a32.444356647184506,32.444356647184506 0 0,0 0.5434836266771194,0.1286250151827472 l -2.731456256142107 11.113615333847862" fill="#ff8c0c" stroke="none" /><path d="M 105.01212808612495 79.60689891045804 l 1.9070610603683718 -7.759356568656481 a28.99027510462098,28.99027510462098 0 0,0 0.48357312779640643,0.1232735574801388 l -2.040343076849803 7.725380015007475" fill="#ff5d08" stroke="none" /><path d="M 105.36241919743992 79.69619591428918 l 3.280342744973934 -12.42040839696583 a33.846291031730615,33.846291031730615 0 0,0 0.5620130059387167,0.15361938468734476 l -3.4936536401363614 12.362102471452191" fill="#ff9e0e" stroke="none" /><path d="M 106.0581310904928 79.89281104454417 l 3.074648882010053 -10.20488746756853 a31.658010788762738,31.658010788762738 0 0,0 0.5204194473887043,0.16169685557573332 l -3.2498537021094753 10.150450477110276" fill="#ff810b" stroke="none" /><path d="M 106.40334571778207 80.00007090966166 l 0.5714284752609945 -1.7847746301879437 a22.87402000600357,22.87402000600357 0 0,0 0.37395447583007746,0.12328691122377464 l -0.6020657733334893 1.774673994704933" fill="#ff0500" stroke="none" /><path d="M 107.08798089147638 80.2323363322302 l 9.054203161225562 -25.251259224752857 a47.82544850175693,47.82544850175693 0 0,0 0.7725351147452097,0.2845312024526864 l -9.487520601743348 25.091664754493845" fill="#b3ff20" stroke="none" /><path d="M 107.4271985657038 80.35727306442388 l 7.530804005410442 -19.916732449659868 a42.29293874596084,42.29293874596084 0 0,0 0.6787348742393654,0.2633385864259318 l -7.872522044649474 19.78415115934339" fill="#f4ff19" stroke="none" /><path d="M 108.09893153111575 80.62456947434976 l 18.854437878818498 -45.10630196313178 a69.88832482828033,69.88832482828033 0 0,0 1.1059535943459016,0.4735116117360729 l -19.628075230954718 44.77507082343291" fill="#3bff9e" stroke="none" /><path d="M 108.43124777332544 80.76684994638697 l 11.173844852522596 -25.489493429938076 a48.83108126004274,48.83108126004274 0 0,0 0.7669220844839907,0.3440955840657871 l -11.610949055473366 25.293377515355758" fill="#a8ff21" stroke="none" /><path d="M 108.76106565485865 80.91482961587045 l 6.869793637422275 -14.965209397934661 a37.466680204121275,37.466680204121275 0 0,0 0.583805433955167,0.2741044792181729 l -7.12637728267704 14.844739936076484" fill="#ffcd13" stroke="none" /><path d="M 109.08828744355905 81.06846463323043 l 11.257232846051467 -23.449599617144695 a47.01170916250243,47.01170916250243 0 0,0 0.7265071623895708,0.35649390939859765 l -11.65921127545147 23.252350547611268" fill="#bdff1f" stroke="none" /><path d="M 109.73455568895987 81.39251694778311 l 0.9510155384332932 -1.8178544639548144 a23.051590945208623,23.051590945208623 0 0,0 0.35000542658489997,0.18696077742612222 l -0.9821660115465043 1.8012149600269383" fill="#ff0801" stroke="none" /><path d="M 110.36928655335952 81.73862282372117 l 7.0233409951561745 -12.368823861716416 a35.22375205269013,35.22375205269013 0 0,0 0.5246716541386939,0.3039236872891029 l -7.235209381760197 12.246096017037264" fill="#ffb110" stroke="none" /><line stroke="#e1ed5e" stroke-width="0.3" x1="143.23703022742887" x2="145.7803849466894" y1="26.81831364943548" y2="22.513508569990506" /><path d="M 143.74570117128098 25.957352633546492 a86.0,86.0 0 0,1 28.547481713284135,27.462654790039103" fill="none" id="id50" stroke="none" /><text fill="#e1ed5e" style="font-size:6.75px; font-family:Arial;" text-anchor="middle"><textPath startOffset="19.985693538727396" xlink:href="#id50">February</textPath></text><path d="M 113.06298171725822 83.55741782278167 l 36.85619158539505 -46.39147263610775 a80.24987418995993,80.24987418995993 0 0,0 1.0741889000202332,0.8685860523189802 l -37.64928388397977 45.75018048652464" fill="#48f5ff" stroke="none" /><path d="M 113.6212207817346 84.01681056812373 l 12.991365892850608 -15.244115441010056 a41.028945137993745,41.028945137993745 0 0,0 0.5335837786746565,0.46271859484479505 l -13.251843470172028 15.01823185274559" fill="#fffa17" stroke="none" /><path d="M 113.89432698308785 84.25364557470407 l 3.1490585699402134 -3.5688085078644276 a25.759513004785198,25.759513004785198 0 0,0 0.3299536172935915,0.2962356154417047 l -3.210023174829795 3.5140738836534253" fill="#ff2f04" stroke="none" /><path d="M 114.16331599549186 84.49514656593476 l 15.661945781808761 -17.14543217961918 a44.22202382003425,44.22202382003425 0 0,0 0.5576020604848363,0.5182303455527827 l -15.954755726088445 16.873297247991758" fill="#ddff1b" stroke="none" /><path d="M 114.42810811169701 84.74124197986012 l 3.345510721589483 -3.5381172749275485 a25.86936503452051,25.86936503452051 0 0,0 0.32092395564760023,0.3087285910652746 l -3.405917920849501 3.480005597099972" fill="#ff3104" stroke="none" /><path d="M 114.68862486808459 84.99185889309783 l 16.047633258114193 -16.396711505166284 a43.94294404322569,43.94294404322569 0 0,0 0.5360290047202395,0.533727125824514 l -16.327498063001755 16.11804852869165" fill="#e1ff1b" stroke="none" /><path d="M 114.94478906791727 85.2469230424477 l 44.0635823121029 -43.498333627969345 a82.9169146080907,82.9169146080907 0 0,0 0.9939595500159117,1.0243626878024996 l -44.805806125821924 42.73340674461674" fill="#4cdcff" stroke="none" /><path d="M 115.19652480421416 85.50635884689758 l 2.501336766438003 -2.385642636253289 a24.456584500203064,24.456584500203064 0 0,0 0.28792699435432717,0.30714044244808003 l -2.542031082762793 2.342232776927154" fill="#ff1c02" stroke="none" /><path d="M 115.4437574822437 85.77008943001954 l 11.25465905847713 -10.370066486856208 a36.303778274151114,36.303778274151114 0 0,0 0.41949250799467475,0.4632141047687187 l -11.431495207087842 10.17479959481794" fill="#ffbf11" stroke="none" /><path d="M 115.68641384162765 86.03803664274999 l 1.2371820003418532 -1.1011751908000085 a22.656262691363693,22.656262691363693 0 0,0 0.25677975530772373,0.29354364918569503 l -1.2559536192274252 1.0797159854113658" fill="#ff0200" stroke="none" /><path d="M 115.9244219780498 86.31012108654704 l 4.389669143517562 -3.7737030033309655 a26.788784807444422,26.788784807444422 0 0,0 0.2975971034835402,0.3522611035660731 l -4.453976860488219 3.6975829501357858" fill="#ff3e05" stroke="none" /><path d="M 116.38621287248628 86.86637796730983 l 1.1933119989997272 -0.9564448407875695 a22.529307117758197,22.529307117758197 0 0,0 0.2399327430443801,0.3046902181148228 l -1.2095988226380712 0.9357622287197084" fill="#ff0000" stroke="none" /><path d="M 116.60985879189232 87.15038557335679 l 10.998352633552203 -8.50847634769693 a34.90532021965991,34.90532021965991 0 0,0 0.36355396886768354,0.4783944077126528 l -11.143182542644 8.317897164103245" fill="#ffac10" stroke="none" /><path d="M 116.82858285166822 87.43820079747576 l 4.411808832283613 -3.2932218452117574 a26.505394381367754,26.505394381367754 0 0,0 0.2697711309223595,0.36796751940320366 l -4.467842575719599 3.21679188213706" fill="#ff3a05" stroke="none" /><path d="M 117.04232023915458 87.72973835380427 l 15.591745937549256 -11.22586593198705 a40.21256378789752,40.21256378789752 0 0,0 0.3996121232316943,0.5652230087573674 l -15.782670680584832 10.95581642289789" fill="#fff016" stroke="none" /><path d="M 117.2510076193507 88.02491185347247 l 23.260668582431762 -16.146799234459333 a49.31568166969788,49.31568166969788 0 0,0 0.47806982127711417,0.7015084720066445 l -23.53516286937761 15.744012739182281" fill="#a3ff22" stroke="none" /><path d="M 117.45458315368197 88.32363383020206 l 29.70569996783562 -19.871836932492776 a56.739593081772114,56.739593081772114 0 0,0 0.5360631512307521,0.8164609565032797 l -30.043359754424298 19.357557912011824" fill="#53ff2b" stroke="none" /><line stroke="#e1ed5e" stroke-width="0.3" x1="172.23445277983987" x2="176.4835382374775" y1="55.19839476539836" y2="52.563006222186495" /><path d="M 173.08426987136738 54.67131705675599 a86.0,86.0 0 0,1 12.851231095245387,41.99856678651699" fill="none" id="id51" stroke="none" /><text fill="#e1ed5e" style="font-size:6.75px; font-family:Arial;" text-anchor="middle"><textPath startOffset="22.20632615414155" xlink:href="#id51">March</textPath></text><path d="M 117.84615892207809 88.93136811851018 l 18.08352263595613 -11.215850763850495 a42.27931153214557,42.27931153214557 0 0,0 0.3782673664869151,0.6217720917973352 l -18.27390580072927 10.902910898846079" fill="#f5ff19" stroke="none" /><path d="M 118.03404312379186 89.2402003453031 l 53.04077882078498 -31.646156645140536 a82.76409513887664,82.76409513887664 0 0,0 0.7194183270866354,1.2297191238681147 l -53.57765682234194 30.728458108918527" fill="#4bddff" stroke="none" /><path d="M 118.3937258080291 89.86733742301442 l 12.055323180469339 -6.6409885261466375 a34.763485953419384,34.763485953419384 0 0,0 0.28421947529213204,0.526615522258936 l -12.167850754979936 6.432492020555243" fill="#ffaa0f" stroke="none" /><path d="M 118.56541770881063 90.18545643968196 l 3.5543450078676 -1.8789921377077574 a25.020445235110273,25.020445235110273 0 0,0 0.19800771315282106,0.38248787722197986 l -3.5861621541805375 1.8175315382254327" fill="#ff2403" stroke="none" /><path d="M 118.73160827565052 90.50648371742162 l 1.6056054053839812 -0.8137497237342448 a22.800043702434976,22.800043702434976 0 0,0 0.17440946309623254,0.3515988349923081 l -1.619374881433622 0.7859913002429869" fill="#ff0400" stroke="none" /><path d="M 118.89224826269711 90.83032412892265 l 7.892591735759759 -3.830804412122869 a29.773144632987837,29.773144632987837 0 0,0 0.21981343423376462,0.4629831519111104 l -7.95736336383528 3.694378844571218" fill="#ff6709" stroke="none" /><path d="M 119.196687751892 91.48605970444005 l 31.382913467539048 -13.918664251702346 a55.33098414352057,55.33098414352057 0 0,0 0.37864649785577276,0.8739683224414709 l -31.617850675237502 13.376396784674272" fill="#62ff29" stroke="none" /><path d="M 119.34039704204932 91.81776055985345 l 7.0798905457462205 -2.9952518311478853 a28.68741723023679,28.68741723023679 0 0,0 0.18848768747713845,0.45643788593515144 l -7.130399920109556 2.8729393747594307" fill="#ff5808" stroke="none" /><path d="M 119.47837535516314 92.15188598940014 l 3.385405128120896 -1.3640277966262486 a24.649868451256335,24.649868451256335 0 0,0 0.15518436208684128,0.39492727474348593 l -3.4083830400894377 1.3055515169869782" fill="#ff1f03" stroke="none" /><path d="M 119.61058180528143 92.48833698450437 l 16.17956104892197 -6.19744031793129 a38.32588994049406,38.32588994049406 0 0,0 0.23067698238429368,0.6180996274097886 l -16.283842619807885 5.9180175534921675" fill="#ffd814" stroke="none" /><path d="M 119.7369772167798 92.82701384747503 l 3.0899035390341645 -1.1229599677141495 a24.287634859534194,24.287634859534194 0 0,0 0.139419026511101,0.3941563623149024 l -3.108775646355075 1.0696059789726324" fill="#ff1a02" stroke="none" /><path d="M 119.85752413597 93.16781622104841 l 1.6272980332145004 -0.5598884911290999 a22.720922430385112,22.720922430385112 0 0,0 0.12405916446998325,0.37092111121674876 l -1.6366944914562538 0.5317942769900371" fill="#ff0300" stroke="none" /><path d="M 119.97218684219823 93.5106431181261 l 4.809575409282565 -1.5627257809933475 a26.05708685748592,26.05708685748592 0 0,0 0.1349316811774828,0.42777030273955297 l -4.835762574228254 1.4797053118273753" fill="#ff3304" stroke="none" /><path d="M 120.08093135843002 93.85539295169968 l 60.24279407529006 -18.433821144900946 a84.0,84.0 0 0,0 0.41117641155319085,1.3862824530138804 l -60.551176383954946 17.394109305140535" fill="#4dd2ff" stroke="none" /><path d="M 120.18372546131832 94.20196356495316 l 1.6982673492286187 -0.4878492816476715 a22.766949040312184,22.766949040312184 0 0,0 0.10495913623541253,0.3775938574465464 l -1.7064132560303944 0.45854412078217316" fill="#ff0400" stroke="none" /><path d="M 120.28053869075195 94.5502522615342 l 5.3641833251069615 -1.4414531285625185 a26.554480161743154,26.554480161743154 0 0,0 0.11482115256969316,0.4424527393469557 l -5.388200809546958 1.3489039636667124" fill="#ff3a05" stroke="none" /><path d="M 120.37134235888165 94.90015583598534 l 5.7418836865686655 -1.4374463642859168 a26.919077657902637,26.919077657902637 0 0,0 0.10865975393437836,0.45046483043306246 l -5.765776240763864 1.3383963021934482" fill="#ff3f05" stroke="none" /><path d="M 120.6074358757038 95.95851677861258 l 24.910597649520984 -4.885409472702478 a46.38513543340456,46.38513543340456 0 0,0 0.14691779546171616,0.7848407380646052 l -24.99100116889256 4.45589065717531" fill="#c4ff1e" stroke="none" /><path d="M 120.67395015179393 96.31383870115 l 18.69934205024851 -3.334089057654189 a39.99425026044886,39.99425026044886 0 0,0 0.11500849157727819,0.6787866275465226 l -18.75396240334601 3.0117166417918284" fill="#ffed16" stroke="none" /><path d="M 120.73433829027371 96.67025291283417 l 5.93591048492035 -0.9532535048930045 a27.011965196969967,27.011965196969967 0 0,0 0.06977332945516009,0.4597190636872025 l -5.95143970781481 0.8509353288137199" fill="#ff4106" stroke="none" /><path d="M 120.78858239683441 97.02765380044208 l 9.578741378697842 -1.3695659949307621 a30.67615612805255,30.67615612805255 0 0,0 0.07023963429348776,0.5233668607924702 l -9.600897012049167 1.2044807920736276" fill="#ff740a" stroke="none" /><path d="M 120.94382443527127 98.46500227214037 l 1.5804113100865516 -0.1158302189537573 a22.584650292232443,22.584650292232443 0 0,0 0.025079080818419766,0.38796227999704247 l -1.5821709819093868 0.08860887470367956" fill="#ff0100" stroke="none" /><path d="M 120.96714384426684 98.82574320788733 l 36.33231579227918 -2.034777312024398 a57.38924964243463,57.38924964243463 0 0,0 0.046748713693769484,0.9867914592915774 l -36.36195811420645 1.4090747461098208" fill="#4cff2c" stroke="none" /><line stroke="#e1ed5e" stroke-width="0.3" x1="184.98032266829074" x2="189.97916517819016" y1="98.17113171792111" y2="98.06355123074" /><path d="M 185.9800911702706 98.14961562048488 a86.0,86.0 0 0,1 -9.607161424134198,41.387399972396054" fill="none" id="id52" stroke="none" /><text fill="#e1ed5e" style="font-size:6.75px; font-family:Arial;" text-anchor="middle"><textPath startOffset="21.466115282336823" xlink:href="#id52">April</textPath></text><path d="M 120.99980553446 99.90962569577887 l 13.377350385180835 -0.057570472802669824 a34.37747426412163,34.37747426412163 0 0,0 -0.0025467204710825915,0.5917681480846061 l -13.37635936742025 -0.172707153485621" fill="#ffa50f" stroke="none" /><path d="M 120.95626037817324 101.35467743843564 l 11.125369765552149 0.7191782858045058 a32.14859048611234,32.14859048611234 0 0,0 -0.040451256892096256,0.5519252616194216 l -11.111341949995715 -0.9105766839206977" fill="#ff880c" stroke="none" /><path d="M 120.89721153311464 102.0752229133903 l 2.567364849902504 0.2549552774114274 a23.5799931135557,23.5799931135557 0 0,0 -0.04358671729948943,0.40355886928300994 l -2.5625958311019628 -0.2991104685792287" fill="#ff0f01" stroke="none" /><path d="M 120.8583938346157 102.4346265915055 l 15.714096188618395 1.8341755719845714 a36.82077807991807,36.82077807991807 0 0,0 -0.07889902104538336,0.6289028271709751 l -15.680195658326165 -2.1043961534429414" fill="#ffc512" stroke="none" /><path d="M 120.81339534386255 102.79330883721812 l 1.8022405504190855 0.2418737727846484 a22.81839872512493,22.81839872512493 0 0,0 -0.0555964297644091,0.3888413002829719 l -1.797810069638075 -0.2728605450480297" fill="#ff0400" stroke="none" /><path d="M 120.76222939487914 103.15116336523771 l 1.789011427406915 0.2715251412946397 a22.809499320184344,22.809499320184344 0 0,0 -0.06225716594906432,0.38767543179392927 l -1.7840725070965624 -0.30227980278177397" fill="#ff0400" stroke="none" /><path d="M 120.64145759157962 103.86396538481128 l 1.596821745111673 0.2989160974437402 a22.62455856126287,22.62455856126287 0 0,0 -0.07495200264300333,0.3821786467026385 l -1.5914398094930056 -0.32635847121432365" fill="#ff0100" stroke="none" /><path d="M 120.49622156327973 104.57218783832717 l 16.279844093119237 3.631620830337638 a37.67998781629086,37.67998781629086 0 0,0 -0.14666385142129904,0.6318240333733437 l -16.214919675767387 -3.9113135210595464" fill="#ffd013" stroke="none" /><path d="M 120.41448212921028 104.9243191809786 l 7.684899198751619 1.8537279706033671 a28.905313598078862,28.905313598078862 0 0,0 -0.12083616622211661,0.48268041773019743 l -7.651851718234442 -1.9857362277309605" fill="#ff5b08" stroke="none" /><path d="M 120.32669344350535 105.2749913415812 l 2.7843636258837288 0.7225717286075948 a23.876593593841047,23.876593593841047 0 0,0 -0.1066623416878013,0.3969302527853586 l -2.77151320785415 -0.7703929145685016" fill="#ff1402" stroke="none" /><path d="M 120.23288151984713 105.62410040840565 l 2.626285754994193 0.7300242811565877 a23.725859922659932,23.725859922659932 0 0,0 -0.11276264364240292,0.3925415555882681 l -2.613330474465691 -0.7751233122494378" fill="#ff1201" stroke="none" /><path d="M 120.13307415673323 105.97154293290107 l 8.01436454284824 2.3770896374279182 a29.359461356452954,29.359461356452954 0 0,0 -0.14787833262635736,0.48327494720599906 l -7.972259437715749 -2.5146915571859743" fill="#ff6209" stroke="none" /><path d="M 120.02730092923936 106.31721596034902 l 29.906880261042517 9.43353385345473 a52.35941721257924,52.35941721257924 0 0,0 -0.2785215540437333,0.8572012016288716 l -29.74006645598254 -9.946933955061397" fill="#81ff25" stroke="none" /><path d="M 119.26925614724726 108.34839909993367 l 27.101889108253893 11.741884840228833 a50.53615162537744,50.53615162537744 0 0,0 -0.35269159828910657,0.7952264462792258 l -26.89575642523351 -12.206659623000746" fill="#95ff23" stroke="none" /><path d="M 119.12269723197855 108.67885076344098 l 4.431787141237765 2.01136998340478 a25.86686207688097,25.86686207688097 0 0,0 -0.18750442813354484,0.4038678570226429 l -4.396508096264389 -2.0873579077062536" fill="#ff3004" stroke="none" /><path d="M 118.97047184881838 109.00673069616215 l 7.7663687447925245 3.687287924564415 a29.597242332209134,29.597242332209134 0 0,0 -0.2224680150154443,0.4583500037812609 l -7.701747473162365 -3.820426884310951" fill="#ff6509" stroke="none" /><line stroke="#e1ed5e" stroke-width="0.3" x1="174.80103733775053" x2="179.2010983576182" y1="140.37084112569926" y2="142.7455964860345" /><path d="M 175.68104954172406 140.8457921977663 a86.0,86.0 0 0,1 -30.038265399797805,32.042727171017184" fill="none" id="id53" stroke="none" /><text fill="#e1ed5e" style="font-size:6.75px; font-family:Arial;" text-anchor="middle"><textPath startOffset="22.206326154141568" xlink:href="#id53">May</textPath></text><path d="M 118.12598468904814 110.60418214915192 l 1.9154418999469336 1.120584351780205 a23.219150053855525,23.219150053855525 0 0,0 -0.2047919352384086,0.34324306306967917 l -1.8958690890102978 -1.1533895087359882" fill="#ff0a01" stroke="none" /><path d="M 117.75023020441432 111.22182372390056 l 1.8277803792103153 1.1555359556070064 a23.162416347359315,23.162416347359315 0 0,0 -0.21595659396423142,0.33516942959946344 l -1.8076189218690335 -1.186826985127923" fill="#ff0901" stroke="none" /><path d="M 117.55443506779139 111.5257021239791 l 2.5897851957586036 1.7003733025946952 a24.09810534494023,24.09810534494023 0 0,0 -0.23064973046753764,0.3447900520825848 l -2.560132359880345 -1.7447002688830868" fill="#ff1702" stroke="none" /><path d="M 117.35343817320211 111.8261652097733 l 4.7146423126521775 3.212973610066115 a26.705352886126462,26.705352886126462 0 0,0 -0.2621436770410065,0.37763751837687376 l -4.658637728449035 -3.293652390630008" fill="#ff3c05" stroke="none" /><path d="M 117.14729908036423 112.12312394758627 l 3.616887761144139 2.557136166305604 a25.429539755972666,25.429539755972666 0 0,0 -0.25577298414521,0.35524630444032484 l -3.5723349846233265 -2.6190160761970596" fill="#ff2a04" stroke="none" /><path d="M 116.71984013943494 112.70617746262583 l 13.222307496420246 10.048241138303215 a37.60712393833984,37.60712393833984 0 0,0 -0.3961161637712361,0.5120335386705542 l -13.047384515430942 -10.274352671087021" fill="#ffcf13" stroke="none" /><path d="M 116.498646956653 112.99209946851258 l 5.46956671815763 4.307089850377987 a27.961837621174936,27.961837621174936 0 0,0 -0.30103193486563645,0.3755836245208571 l -5.394616871237139 -4.4006013084770945" fill="#ff4e07" stroke="none" /><path d="M 115.80600337817218 113.82643327865902 l 4.683986424788006 4.0973561899848985 a27.2231870111066,27.2231870111066 0 0,0 -0.31156438488037025,0.3500458892844628 l -4.612763190259297 -4.177376249010228" fill="#ff4406" stroke="none" /><path d="M 115.56566222782051 114.09645910891815 l 2.8701706341142836 2.5992625554405824 a24.872214521568697,24.872214521568697 0 0,0 -0.29012087086472466,0.3148689057557646 l -2.825003355253837 -2.6482827159976816" fill="#ff2203" stroke="none" /><path d="M 115.32070863581623 114.36230785411682 l 3.1006357076158397 2.906672637330885 a25.250022071936858,25.250022071936858 0 0,0 -0.29998643259451385,0.31453457524539524 l -3.0501427236423613 -2.9596143291587875" fill="#ff2803" stroke="none" /><line stroke="#e1ed5e" stroke-width="0.3" x1="143.8653032363475" x2="146.44561519142675" y1="172.8068346515853" y2="177.08958963109032" /><path d="M 144.38136562736335 173.6633856474863 a86.0,86.0 0 0,1 -40.68145358897372,12.25698825130547" fill="none" id="id54" stroke="none" /><text fill="#e1ed5e" style="font-size:6.75px; font-family:Arial;" text-anchor="middle"><textPath startOffset="21.466115282336833" xlink:href="#id54">June</textPath></text><line stroke="#e1ed5e" stroke-width="0.3" x1="102.19456741930631" x2="102.32365962044197" y1="184.97166512339345" y2="189.96999836594603" /><path d="M 102.22038585953345 185.97133177190398 a86.0,86.0 0 0,1 -42.740103519485714,-10.115201625700543" fill="none" id="id55" stroke="none" /><text fill="#e1ed5e" style="font-size:6.75px; font-family:Arial;" text-anchor="middle"><textPath startOffset="22.20632615414155" xlink:href="#id55">July</textPath></text><line stroke="#e1ed5e" stroke-width="0.3" x1="58.666819895761336" x2="56.23545636021788" y1="174.27360380694188" y2="178.64263932499728" /><path d="M 58.180547188652646 175.14741091055294 a86.0,86.0 0 0,1 -31.652253787137756,-30.449443065178592" fill="none" id="id56" stroke="none" /><text fill="#e1ed5e" style="font-size:6.75px; font-family:Arial;" text-anchor="middle"><textPath startOffset="22.20632615414155" xlink:href="#id56">August</textPath></text><line stroke="#e1ed5e" stroke-width="0.3" x1="26.63291911575756" x2="22.317208475507996" y1="142.92168965132927" y2="145.44649492493687" /><path d="M 25.769776987707644 143.4266507060508 a86.0,86.0 0 0,1 -11.730757126820373,-40.83630448921669" fill="none" id="id57" stroke="none" /><text fill="#e1ed5e" style="font-size:6.75px; font-family:Arial;" text-anchor="middle"><textPath startOffset="21.46611528233685" xlink:href="#id57">September</textPath></text><line stroke="#e1ed5e" stroke-width="0.3" x1="15.007084014347285" x2="10.007500721073583" y1="101.09737516637583" y2="101.16192664675087" /><path d="M 14.007167355692545 101.11028546245083 a86.0,86.0 0 0,1 10.666146001902534,-42.60595125391555" fill="none" id="id58" stroke="none" /><text fill="#e1ed5e" style="font-size:6.75px; font-family:Arial;" text-anchor="middle"><textPath startOffset="22.20632615414155" xlink:href="#id58">October</textPath></text><line stroke="#e1ed5e" stroke-width="0.3" x1="26.266209847984243" x2="21.928928074336255" y1="57.711370442889674" y2="55.22380399835377" /><path d="M 25.398753493254645 57.213857153982495 a86.0,86.0 0 0,1 29.58750427330803,-30.492523968695096" fill="none" id="id59" stroke="none" /><text fill="#e1ed5e" style="font-size:6.75px; font-family:Arial;" text-anchor="middle"><textPath startOffset="21.46611528233685" xlink:href="#id59">November</textPath></text><line stroke="#e1ed5e" stroke-width="0.3" x1="56.762969772571076" x2="54.21961505331055" y1="26.818313649435495" y2="22.513508569990535" /><path d="M 56.25429882871897 25.957352633546506 a86.0,86.0 0 0,1 42.265352541879196,-11.944610805530505" fill="none" id="id60" stroke="none" /><text fill="#e1ed5e" style="font-size:6.75px; font-family:Arial;" text-anchor="middle"><textPath startOffset="22.20632615414155" xlink:href="#id60">December</textPath></text></svg>