<?xml version="1.0" encoding="utf-8" ?>
<svg baseProfile="full" height="200mm" version="1.1" viewBox="0,0,200,200" width="200mm" xmlns="http://www.w3.org/2000/svg" xmlns:ev="http://www.w3.org/2001/xml-events" xmlns:xlink="http://www.w3.org/1999/xlink"><defs /><rect fill="#1a1a1a" height="200" width="200" x="0" y="0" /><text alignment-baseline="middle" fill="#e1ed5e" style="dominant-baseline: central; font-size:9.0px; font-family:Arial;" text-anchor="middle" x="100.0" y="100.0">2023</text><line stroke="#e1ed5e" stroke-width="0.3" x1="100.0" x2="100.0" y1="15.0" y2="10.0" /><path d="M 100.0 14.0 a86.0,86.0 0 0,1 42.46469731375804,11.215312516191453" fill="none" id="id25" stroke="none" /><text fill="#e1ed5e" style="font-size:6.75px; font-family:Arial;" text-anchor="middle"><textPath startOffset="22.20632615414155" xlink:href="#id25">January</textPath></text><line stroke="#e1ed5e" stroke-width="0.3" x1="143.23703022742887" x2="145.7803849466894" y1="26.81831364943548" y2="22.513508569990506" /><path d="M 143.74570117128098 25.957352633546492 a86.0,86.0 0 0,1 28.547481713284135,27.462654790039103" fill="none" id="id26" stroke="none" /><text fill="#e1ed5e" style="font-size:6.75px; font-family:Arial;" text-anchor="middle"><textPath startOffset="19.985693538727396" xlink:href="#id26">February</textPath></text><line stroke="#e1ed5e" stroke-width="0.3" x1="172.23445277983987" x2="176.4835382374775" y1="55.19839476539836" y2="52.563006222186495" /><path d="M 173.08426987136738 54.67131705675599 a86.0,86.0 0 0,1 12.851231095245387,41.99856678651699" fill="none" id="id27" stroke="none" /><text fill="#e1ed5e" style="font-size:6.75px; font-family:Arial;" text-anchor="middle"><textPath startOffset="22.20632615414155" xlink:href="#id27">March</textPath></text><line stroke="#e1ed5e" stroke-width="0.3" x1="184.98032266829074" x2="189.97916517819016" y1="98.17113171792111" y2="98.06355123074" /><path d="M 185.9800911702706 98.14961562048488 a86.0,86.0 0 0,1 -9.607161424134198,41.387399972396054" fill="none" id="id28" stroke="none" /><text fill="#e1ed5e" style="font-size:6.75px; font-family:Arial;" text-anchor="middle"><textPath startOffset="21.466115282336823" xlink:href="#id28">April</textPath></text><path d="M 120.99980553446 99.90962569577887 l 10.52491358028712 -0.04529478809911421 a31.525011044665995,31.525011044665995 0 0,0 -0.002335406910982587,0.5426663186748054 l -10.524133876086633 -0.13588100877937587" fill="red" stroke="none" /><path d="M 120.9764740272857 100.99374915477107 l 10.724739800790712 0.5080787694972985 a31.73676803468708,31.73676803468708 0 0,0 -0.03054837585795433,0.5454617721819243 l -10.714405074045228 -0.692612258014646" fill="red" stroke="none" /><path d="M 120.95626037817324 101.35467743843564 l 6.425951486456692 0.41539336418302686 a27.43936364505859,27.43936364505859 0 0,0 -0.0345258293125291,0.47107751007035825 l -6.4178490984798255 -0.5259440107501554" fill="red" stroke="none" /><path d="M 120.92983693683757 101.71520430193887 l 6.756443400796915 0.5536918812041338 a27.779093016582937,27.779093016582937 0 0,0 -0.04315733927250931,0.47623764262906143 l -6.74591146524733 -0.6699109123817658" fill="red" stroke="none" /><path d="M 120.81339534386255 102.79330883721812 l 7.776762602167924 1.0436980292112041 a28.84648597441281,28.84648597441281 0 0,0 -0.07028370617700623,0.4915640773046304 l -7.757644844974316 -1.177407578496244" fill="red" stroke="none" /><path d="M 120.70491114924044 103.5080841355445 l 7.8123288721634525 1.3236621389267957 a28.923671110341907,28.923671110341907 0 0,0 -0.08739570631249628,0.49016153372047616 l -7.788386723511768 -1.4579424233804903" fill="red" stroke="none" /><path d="M 120.64145759157962 103.86396538481128 l 8.286741941344296 1.5512317321660531 a29.430682765311094,29.430682765311094 0 0,0 -0.09749974155022188,0.497149081619625 l -8.25881226681841 -1.6936445408536231" fill="red" stroke="none" /><path d="M 120.5718875245553 104.21870165774334 l 6.364867775162892 1.3052510715094088 a27.49732423040312,27.49732423040312 0 0,0 -0.09907673668567216,0.462853529451449 l -6.341456999752777 -1.414618420377027" fill="red" stroke="none" /><path d="M 120.49622156327973 104.57218783832717 l 9.041421093314716 2.0169120165108776 a30.263650979445536,30.263650979445536 0 0,0 -0.11779684304453089,0.5074657168060274 l -9.005363684339633 -2.17224639066547" fill="red" stroke="none" /><path d="M 120.41448212921028 104.9243191809786 l 10.125839010961663 2.4425240351227466 a31.416263213747307,31.416263213747307 0 0,0 -0.13133297415691922,0.524609947582137 l -10.082294722509682 -2.6164618221022797" fill="red" stroke="none" /><path d="M 120.32669344350535 105.2749913415812 l 9.917876275158964 2.5737935008339043 a31.246398527985132,31.246398527985132 0 0,0 -0.13958498825246407,0.5194476681776101 l -9.872103210564722 -2.744132102187063" fill="red" stroke="none" /><path d="M 120.23288151984713 105.62410040840565 l 10.67436710070919 2.967136060757404 a32.07907980852876,32.07907980852876 0 0,0 -0.15246325556236318,0.5307445939126297 l -10.621711208260727 -3.1504381301746154" fill="red" stroke="none" /><path d="M 120.13307415673323 105.97154293290107 l 13.302997314831664 3.945717329770904 a34.875821518197505,34.875821518197505 0 0,0 -0.1756632477847532,0.5740776575680687 l -13.233107294540778 -4.17412195989103" fill="red" stroke="none" /><path d="M 120.02730092923936 106.31721596034902 l 11.15040956260361 3.5171761538005293 a32.691969958508494,32.691969958508494 0 0,0 -0.17390220828140293,0.5352159635060997 l -11.088215103305961 -3.7085910172844243" fill="red" stroke="none" /><path d="M 119.9155931802556 106.66101706037122 l 3.172881812715899 1.0612096608799542 a24.345645668896854,24.345645668896854 0 0,0 -0.13634624558426148,0.3962860119306997 l -3.1541447361884067 -1.1156683758999542" fill="red" stroke="none" /><path d="M 119.79798401119884 107.00284435728193 l 3.929696447908147 1.3899926669552862 a25.168284273761973,25.168284273761973 0 0,0 -0.1479844047587281,0.40718952512317025 l -3.9051877821441923 -1.4574299890845877" fill="red" stroke="none" /><path d="M 119.67450827220406 107.3425965602758 l 13.333607351438827 4.976149752777278 a35.23190610439828,35.23190610439828 0 0,0 -0.2169374761963403,0.5663552950663027 l -13.24597559564898 -5.204928614676724" fill="red" stroke="none" /><path d="M 119.54520255179757 107.68017299344265 l 2.6913899607449707 1.057565939086937 a23.891716728228346,23.891716728228346 0 0,0 -0.15370040337555116,0.38147179629978056 l -2.672786943112027 -1.1037371032295311" fill="red" stroke="none" /><path d="M 119.41010516605496 108.01547362559984 l 5.341860945441796 2.205940934039413 a26.779416386185286,26.779416386185286 0 0,0 -0.17961212010651437,0.4245499953692405 l -5.303097844142973 -2.2975654550748166" fill="red" stroke="none" /><path d="M 119.26925614724726 108.34839909993367 l 8.507546452079827 3.6858917957418607 a30.27168511998834,30.27168511998834 0 0,0 -0.21126596831152183,0.4763489859557 l -8.442839399037032 -3.8317891181902484" fill="red" stroke="none" /><path d="M 119.12269723197855 108.67885076344098 l 5.070720274103664 2.3013502744009577 a26.568520196936642,26.568520196936642 0 0,0 -0.1925906269989219,0.4148230768891722 l -5.030355030264911 -2.388293418568961" fill="red" stroke="none" /><path d="M 118.97047184881838 109.00673069616215 l 5.468149106944325 2.5961476765152147 a27.0531510318223,27.0531510318223 0 0,0 -0.2033453232706396,0.4189515948327627 l -5.422650527058971 -2.689888227313253" fill="red" stroke="none" /><path d="M 118.81262510543309 109.33194174019688 l 22.867103410015794 11.343152568734089 a46.52589917244708,46.52589917244708 0 0,0 -0.3620630634357727,0.7143847730905077 l -22.668461676793754 -11.73509155352729" fill="red" stroke="none" /><path d="M 118.64920377521936 109.65438752849418 l 11.452082071246291 5.928555430921155 a33.895656371975235,33.895656371975235 0 0,0 -0.27269457743410175,0.5158353728706324 l -11.348334985587297 -6.124805818877922" fill="red" stroke="none" /><line stroke="#e1ed5e" stroke-width="0.3" x1="174.80103733775053" x2="179.2010983576182" y1="140.37084112569926" y2="142.7455964860345" /><path d="M 175.68104954172406 140.8457921977663 a86.0,86.0 0 0,1 -30.038265399797805,32.042727171017184" fill="none" id="id29" stroke="none" /><text fill="#e1ed5e" style="font-size:6.75px; font-family:Arial;" text-anchor="middle"><textPath startOffset="22.206326154141568" xlink:href="#id29">May</textPath></text><path d="M 118.48025628344425 109.97397251340804 l 10.268370836924397 5.541938754210659 a32.6684414040617,32.6684414040617 0 0,0 -0.2713403260628291,0.49256150792951137 l -10.171454101410058 -5.717870780537976" fill="red" stroke="none" /><path d="M 118.30583269289576 110.29060199501025 l 5.8903689590372 3.3112638784652852 a27.757286063681036,27.757286063681036 0 0,0 -0.2377186900371623,0.4144825734478067 l -5.832498272847658 -3.412166297771407" fill="red" stroke="none" /><path d="M 118.12598468904814 110.60418214915192 l 8.450311722699032 4.943656648830593 a30.79017411859011,30.79017411859011 0 0,0 -0.2715680517783033,0.45516367534558966 l -8.363962795222502 -5.088382418062286" fill="red" stroke="none" /><path d="M 117.94076556474637 110.91462005526583 l 14.17069054121402 8.62102024687411 a37.587057017803545,37.587057017803545 0 0,0 -0.3410315929860963,0.5498515147167568 l -14.02019430855996 -8.863668092956141" fill="red" stroke="none" /><path d="M 117.75023020441432 111.22182372390056 l 20.664555699324367 13.064281348467947 a45.44788967175708,45.44788967175708 0 0,0 -0.4237369413098296,0.657649142876184 l -20.436613894637485 -13.418052091265583" fill="red" stroke="none" /><path d="M 117.55443506779139 111.5257021239791 l 7.087958044228349 4.6537352395308815 a29.47917454215874,29.47917454215874 0 0,0 -0.2821534541918684,0.4217811309334588 l -7.006801484625759 -4.775053284670147" fill="red" stroke="none" /><path d="M 117.35343817320211 111.8261652097733 l 17.63022315283234 12.014790937079924 a42.33494714501077,42.33494714501077 0 0,0 -0.4155660761814968,0.5986539271219828 l -17.420796169488707 -12.316486126388927" fill="red" stroke="none" /><path d="M 117.14729908036423 112.12312394758627 l 10.561189280237269 7.46675065724206 a33.93410547314438,33.93410547314438 0 0,0 -0.34131280017074994,0.47405362737606677 l -10.431096687690916 -7.647437890069258" fill="red" stroke="none" /><path d="M 116.93607887273984 112.41649034213515 l 19.769030548382432 14.493436097092015 a45.512736663281146,45.512736663281146 0 0,0 -0.4686484059670361,0.6278311252207973 l -19.516620875720307 -14.831580101822128" fill="red" stroke="none" /><path d="M 116.71984013943494 112.70617746262583 l 13.47133442349848 10.237488182655358 a37.91989998314834,37.91989998314834 0 0,0 -0.39941063657357595,0.5162920888669814 l -13.293116969706835 -10.467858265635593" fill="red" stroke="none" /><path d="M 116.498646956653 112.99209946851258 l 12.483825660501035 9.830570055527877 a36.88980839212435,36.88980839212435 0 0,0 -0.397148805008945,0.4955041986690361 l -12.312758943437236 -10.044002087775162" fill="red" stroke="none" /><path d="M 116.27256486870786 113.27417163493432 l 18.217671580582067 14.860871737223194 a44.51019069697536,44.51019069697536 0 0,0 -0.4894086227348953,0.5895242136230036 l -17.95916695795363 -15.172257207959968" fill="red" stroke="none" /><path d="M 116.0416608686014 113.55231037782055 l 14.949533567262588 12.6296597694409 a40.57030556150171,40.57030556150171 0 0,0 -0.4552712568842939,0.5295833261153354 l -14.729919800807515 -12.885120194717764" fill="red" stroke="none" /><path d="M 115.80600337817218 113.82643327865902 l 5.636048926642819 4.930180803776106 a28.48810591948552,28.48810591948552 0 0,0 -0.3260411499061492,0.3663106882580578 l -5.550348927088332 -5.02646566177503" fill="red" stroke="none" /><path d="M 115.56566222782051 114.09645910891815 l 8.621895051355862 7.808096388960339 a32.63200083802826,32.63200083802826 0 0,0 -0.38063456283626823,0.41310364171960023 l -8.48621408052387 -7.9553512854812745" fill="red" stroke="none" /><path d="M 115.32070863581623 114.36230785411682 l 9.406658179097185 8.81821617120271 a33.89364783683954,33.89364783683954 0 0,0 -0.40267824215047604,0.4222065270083774 l -9.253473385567746 -8.978829814793595" fill="red" stroke="none" /><path d="M 115.07121518719521 114.62390073753431 l 9.54506405482989 9.261766057844769 a34.29994580143284,34.29994580143284 0 0,0 -0.4147996569695662,0.4201898625412661 l -9.384223772804788 -9.4246964143667" fill="red" stroke="none" /><path d="M 114.81725581225074 114.88116024355365 l 13.080658827254869 13.13707359622525 a39.53877930252365,39.53877930252365 0 0,0 -0.4864212150385689,0.4760655370100117 l -12.852587659840506 -13.360289236157833" fill="red" stroke="none" /><path d="M 114.55890576462653 115.13401014063108 l 12.919227759918614 13.429561746514015 a39.6349020554465,39.6349020554465 0 0,0 -0.49574611797123425,0.4687588974543236 l -12.686145807556573 -13.64995528071426" fill="red" stroke="none" /><path d="M 114.0293411484842 115.62618273729858 l 4.276028014727941 4.762732222472627 a27.400627610298635,27.400627610298635 0 0,0 -0.3536737928062065,0.31207600120470025 l -4.193411869015146 -4.835631365449616" fill="red" stroke="none" /><path d="M 113.75828350139079 115.86535959552629 l 13.59836976594561 15.680955129893261 a41.75591515874714,41.75591515874714 0 0,0 -0.5470711341567212,0.46622588898314926 l -13.326433155211843 -15.912705409099358" fill="red" stroke="none" /><path d="M 113.48314897796784 116.09983520530334 l 9.521223140684 11.369015040063495 a35.82930184047403,35.82930184047403 0 0,0 -0.4762394484316656,0.39191264384268415 l -9.324113563707643 -11.531222802763358" fill="red" stroke="none" /><path d="M 113.20401910651253 116.32954008644616 l 7.511141596645645 9.289102568543145 a32.945906186379304,32.945906186379304 0 0,0 -0.44405199484246344,0.35278176065168665 l -7.3501321090858305 -9.417018243199957" fill="red" stroke="none" /><path d="M 112.92097659922987 116.55440617244103 l 11.131213928322767 14.2613551805961 a39.09116290085306,39.09116290085306 0 0,0 -0.5340062669540802,0.40945323430500374 l -10.884078932875193 -14.450847756728475" fill="red" stroke="none" /><path d="M 112.63410532772338 116.77436683061366 l 5.598266134704877 7.432846831890633 a30.305256350113634,30.305256350113634 0 0,0 -0.4193887128886317,0.3102537436269224 l -5.469492451397681 -7.5281105242573245" fill="red" stroke="none" /><path d="M 112.34349029814194 116.9893568818739 l 5.658386424433926 7.788100773630383 a30.626621971825855,30.626621971825855 0 0,0 -0.42917037555291704,0.30620166777679764 l -5.523488721032125 -7.884346703251399" fill="red" stroke="none" /><path d="M 112.04921762599082 117.19931262002967 l 8.956941993077576 12.785331814914821 a36.61062200826186,36.61062200826186 0 0,0 -0.5192486530873689,0.357143958355497 l -8.735536455367324 -12.937616562635412" fill="red" stroke="none" /><path d="M 111.7513745106137 117.40417183066458 l 10.405412002390944 15.410757124190566 a39.59473135273247,39.59473135273247 0 0,0 -0.568137826341538,0.3765307716903949 l -10.138599477309443 -15.58758591697228" fill="red" stroke="none" /><path d="M 111.45004920935366 117.60387380957326 l 9.89062971924239 15.206344906581094 a39.13994161129152,39.13994161129152 0 0,0 -0.567935832180053,0.36248351905118104 l -9.627412085015408 -15.374342854456083" fill="red" stroke="none" /><path d="M 111.1453310114006 117.79835938074945 l 2.8334012852546135 4.524755190604396 a26.338686390694242,26.338686390694242 0 0,0 -0.38632682165684057,0.23731348731951377 l -2.755095263665464 -4.572857144752287" fill="red" stroke="none" /><line stroke="#e1ed5e" stroke-width="0.3" x1="143.8653032363475" x2="146.44561519142675" y1="172.8068346515853" y2="177.08958963109032" /><path d="M 144.38136562736335 173.6633856474863 a86.0,86.0 0 0,1 -40.68145358897372,12.25698825130547" fill="none" id="id30" stroke="none" /><text fill="#e1ed5e" style="font-size:6.75px; font-family:Arial;" text-anchor="middle"><textPath startOffset="21.466115282336833" xlink:href="#id30">June</textPath></text><path d="M 110.8373102113329 117.98757091392108 l 8.852405683527484 14.693062382281301 a38.15375085966214,38.15375085966214 0 0,0 -0.5654606242050164,0.33408410382967885 l -8.598177188294086 -14.84326505840473" fill="red" stroke="none" /><path d="M 110.5260780823613 118.17145234162733 l 8.023747673381042 13.851611902101626 a37.0077380979491,37.0077380979491 0 0,0 -0.55397276688322,0.31456019483740155 l -7.784126139576622 -13.987675262733656" fill="red" stroke="none" /><path d="M 110.21172684928248 118.3499491758327 l 3.291046321930736 5.913841374143628 a27.767902606541174,27.767902606541174 0 0,0 -0.41966184997948847,0.22883310128981837 l -3.1887616600825988 -5.969615127193216" fill="red" stroke="none" /><path d="M 109.89434966115114 118.52300852407294 l 2.0040786386172234 3.7517944056264994 a25.253503550233873,25.253503550233873 0 0,0 -0.3851869966771119,0.20151163159973084 l -1.9392007394136157 -3.785735456170947" fill="red" stroke="none" /><path d="M 109.57404056367764 118.69057910512821 l 8.845706556877273 17.268715026057706 a40.402449410875235,40.402449410875235 0 0,0 -0.6217092212937756,0.3117379100284195 l -8.547143427900737 -17.418420776995426" fill="red" stroke="none" /><path d="M 109.2508944713604 118.85261126421891 l 1.8230619588969592 3.7152600246466303 a25.138443180317267,25.138443180317267 0 0,0 -0.39010953231720663,0.18727628242949693 l -1.7588397585795197 -3.7460905835756875" fill="red" stroke="none" /><path d="M 108.92500713936063 119.00905698771935 l 5.685407143069704 12.10914755511791 a34.377417870952755,34.377417870952755 0 0,0 -0.5378134282611924,0.24688376683181584 l -5.476125719041092 -12.205218392283802" fill="red" stroke="none" /><path d="M 108.59647513512805 119.15986991738527 l 3.782851548784638 8.43123983402454 a30.24098322577119,30.24098322577119 0 0,0 -0.47676972971783377,0.2090018385374861 l -3.6371611444090504 -8.49510622585648" fill="red" stroke="none" /><path d="M 108.2653958097858 119.30500536409082 l 4.458193297419476 10.412743382348332 a32.32699043099247,32.32699043099247 0 0,0 -0.5134273303470694,0.21461266572526444 l -4.2782945075749454 -10.48794109109357" fill="red" stroke="none" /><path d="M 107.93186726928326 119.44442032107085 l 4.685792413859319 11.486893834596257 a33.405860732454926,33.405860732454926 0 0,0 -0.5343011693672493,0.21260946201066624 l -4.487370168450203 -11.565850141012993" fill="red" stroke="none" /><path d="M 107.59598834532513 119.57807347666477 l 6.415644068895116 16.53582723810523 a38.73679991619717,38.73679991619717 0 0,0 -0.6237174097198646,0.23583655497881537 l -6.130056438414976 -16.643812043190678" fill="red" stroke="none" /><path d="M 107.2578585660854 119.70592522655815 l 2.977314316113125 8.083752632414685 a29.614607197023176,29.614607197023176 0 0,0 -0.47987007375146973,0.17206433548783293 l -2.8377246817319204 -8.133804508942477" fill="red" stroke="none" /><path d="M 106.91757812671514 119.82793768551818 l 6.710425390675131 19.2341732977011 a41.37113721346493,41.37113721346493 0 0,0 -0.6744091643321941,0.22879620498093933 l -6.37834649340571 -19.346832489580166" fill="red" stroke="none" /><path d="M 106.57524785965236 119.94407469862006 l 6.0875314108777605 18.464730726540402 a40.44233317999845,40.44233317999845 0 0,0 -0.6630205746949476,0.21227825051766314 l -5.768789491091873 -18.566781823717772" fill="red" stroke="none" /><path d="M 106.2309692047433 120.05430185196036 l 3.289944248059494 10.588647264775542 a32.08797474984401,32.08797474984401 0 0,0 -0.5288786228785954,0.15934679061582285 l -3.1071906507406526 -10.64370942449709" fill="red" stroke="none" /><path d="M 105.88484417918355 120.15858648285463 l 5.843943516424187 20.018480895971425 a41.8540464468057,41.8540464468057 0 0,0 -0.6933199165498035,0.19593913380243513 l -5.498492431769778 -20.11610882311238" fill="red" stroke="none" /><path d="M 105.53697534728816 120.25689768951611 l 0.9267674608783805 3.3905575624750863 a24.5149364874774,24.5149364874774 0 0,0 -0.4080097426782138,0.10775908138416072 l -0.8682672753886692 -3.406007993162831" fill="red" stroke="none" /><path d="M 105.18746579009965 120.34920634021253 l 2.68680878433945 10.539717958924355 a31.876791627004547,31.876791627004547 0 0,0 -0.5328687139802408,0.13096616526494373 l -2.504986785615998 -10.584405382503329" fill="red" stroke="none" /><path d="M 104.83641907484287 120.43548508189849 l 4.218900766456913 17.826264089354474 a39.31870123836894,39.31870123836894 0 0,0 -0.6599547589793796,0.150203554515481 l -3.911425858084671 -17.89624437744764" fill="red" stroke="none" /><path d="M 104.48393922423573 120.51570834832081 l 5.375690977333822 24.59580800417255 a46.17641405883504,46.17641405883504 0 0,0 -0.7779814083137309,0.16303356828368953 l -4.951518107590713 -24.684697553182783" fill="red" stroke="none" /><path d="M 104.13013068566511 120.58985236759428 l 1.723886522579364 8.594054692164933 a29.76524733220078,29.76524733220078 0 0,0 -0.5032203220578312,0.09644337239684408 l -1.5756985859498285 -8.622455262910245" fill="red" stroke="none" /><path d="M 103.7750983002368 120.6578951692458 l 0.518699259536188 2.838398917239276 a23.885404189230425,23.885404189230425 0 0,0 -0.4050862508952487,0.07042943714273628 l -0.4697640371688893 -2.846906932903018" fill="red" stroke="none" /><path d="M 103.41894727170886 120.7198165907248 l 1.327681354452765 8.046135833336983 a29.154939584538376,29.154939584538376 0 0,0 -0.4958618484884527,0.07744342281992474 l -1.1889836423557951 -8.067797563504012" fill="red" stroke="none" /><path d="M 103.06178313531738 120.77559828337769 l 0.817617124879549 5.5479059702727715 a26.607830098878225,26.607830098878225 0 0,0 -0.45369062899841817,0.06287738714075425 l -0.7219979046943004 -5.561157922906128" fill="red" stroke="none" /><path d="M 102.70371172650421 120.8252237178851 l 3.246847924866049 25.008707012086557 a46.21859329668477,46.21859329668477 0 0,0 -0.7898374133010221,0.09563831117930842 l -2.8158830885136465 -25.060890851991214" fill="red" stroke="none" /><path d="M 102.34483914955558 120.86867818915974 l 1.7427141280761327 15.509865707170443 a36.607465738762905,36.607465738762905 0 0,0 -0.6268024476445877,0.06497063653894668 l -1.4754790838259424 -15.537565712165149" fill="red" stroke="none" /><path d="M 101.98527174616119 120.90594882070398 l 1.7489610877810322 18.417474112173405 a39.50033020135451,39.50033020135451 0 0,0 -0.6774413511001532,0.058452490297465964 l -1.4316754189393373 -18.444850854749536" fill="red" stroke="none" /><path d="M 101.62511606390274 120.93702456842531 l 0.6347236467892076 8.17740029907276 a29.20199669343195,29.20199669343195 0 0,0 -0.5014917841553382,0.03458580958074378 l -0.493869101854939 -8.187114453169789" fill="red" stroke="none" /><path d="M 101.26447882468166 120.96189622390904 l 0.6028019228168208 9.992948164110338 a31.011112983517258,31.011112983517258 0 0,0 -0.5331134189917803,0.02755587432341056 l -0.4307004354115609 -10.00184384519595" fill="red" stroke="none" /><path d="M 100.90346689309514 120.98055641714683 l 0.2335337012644284 5.423183773672025 a26.42820967102836,26.42820967102836 0 0,0 -0.4546654426579847,0.01565959715114588 l -0.1401479069317914 -5.4264001692492645" fill="red" stroke="none" /><line stroke="#e1ed5e" stroke-width="0.3" x1="102.19456741930631" x2="102.32365962044197" y1="184.97166512339345" y2="189.96999836594603" /><path d="M 102.22038585953345 185.97133177190398 a86.0,86.0 0 0,1 -42.740103519485714,-10.115201625700543" fill="none" id="id31" stroke="none" /><text fill="#e1ed5e" style="font-size:6.75px; font-family:Arial;" text-anchor="middle"><textPath startOffset="22.20632615414155" xlink:href="#id31">July</textPath></text><path d="M 100.54218724476979 120.99299961872073 l 0.527980829211797 20.442940060386675 a41.44975701734809,41.44975701734809 0 0,0 -0.7134101442963742,0.01228200261017904 l -0.17601099502275488 -20.448999540276013" fill="red" stroke="none" /><path d="M 100.18074693466247 120.99922214144158 l 0.10014623066041438 11.635013053988109 a32.635444041118035,32.635444041118035 0 0,0 -0.5617863306457316,0.0 l 0.10014623066040636 -11.635013053988109" fill="red" stroke="none" /><path d="M 99.81925306533755 120.99922214144158 l -0.12032810032963376 13.979747503870746 a34.980265345253976,34.980265345253976 0 0,0 -0.6020608549535885,-0.010365023613898421 l 0.36094864517589015 -13.975605002977687" fill="red" stroke="none" /><path d="M 99.45781275523022 120.99299961872073 l -0.43169674281827164 16.71490734024011 a37.720481137532275,37.720481137532275 0 0,0 -0.6489353409538534,-0.02235064525043054 l 0.7193524354467681 -16.704999896563585" fill="red" stroke="none" /><path d="M 99.09653310690486 120.98055641714683 l -0.8130967491904016 18.881956106377803 a39.89945482617745,39.89945482617745 0 0,0 -0.685913297907003,-0.0354538827209175 l 1.1379981155108934 -18.865162416894684" fill="red" stroke="none" /><path d="M 98.73552117531835 120.96189622390904 l -0.4903445506295212 8.128686209389954 a29.143462240905798,29.143462240905798 0 0,0 -0.5004865601858935,-0.0345164834504029 l 0.6301938715943447 -8.119041381423266" fill="red" stroke="none" /><path d="M 98.37488393609728 120.93702456842531 l -0.63692192004553 8.205721538520313 a29.230403118922588,29.230403118922588 0 0,0 -0.5013093227612063,-0.04325507776745755 l 0.7780755605482781 -8.193542208474193" fill="red" stroke="none" /><path d="M 98.01472825383883 120.90594882070398 l -0.607481598747688 6.397098652864995 a27.425877766290313,27.425877766290313 0 0,0 -0.46959293591606655,-0.048675227857369045 l 0.717507131269348 -6.385694056551865" fill="red" stroke="none" /><path d="M 97.65516085044442 120.86867818915974 l -2.7206640130891033 24.213456927629878 a45.36582666478413,45.36582666478413 0 0,0 -0.775264339075956,-0.09387371484074651 l 3.137055775216449 -24.16303768406378" fill="red" stroke="none" /><path d="M 97.2962882734958 120.8252237178851 l -1.0449833570450042 8.048939529535694 a29.116490483369233,29.116490483369233 0 0,0 -0.4964658460512023,-0.06880564245560154 l 1.1833777942830375 -8.029759321587488" fill="red" stroke="none" /><path d="M 96.93821686468263 120.77559828337769 l -2.5983105817204093 17.63072512830903 a38.82115839189663,38.82115839189663 0 0,0 -0.6602631195599394,-0.10311952027838589 l 2.901409564888866 -17.58338730068354" fill="red" stroke="none" /><path d="M 96.58105272829116 120.7198165907248 l -2.8177900713991773 17.076628807257087 a38.30754726433871,38.30754726433871 0 0,0 -0.6496796361227282,-0.1129551323800759 l 3.1113186789939555 -17.025595096356003" fill="red" stroke="none" /><path d="M 96.22490169976321 120.6578951692458 l -2.2095267980799593 12.090856803784972 a33.29108729612913,33.29108729612913 0 0,0 -0.5628292445831744,-0.1078675642692546 l 2.4173236572348284 -12.051032041167248" fill="red" stroke="none" /><path d="M 95.86986931433489 120.58985236759428 l -1.2903754493027264 6.432881189964757 a27.561023487563933,27.561023487563933 0 0,0 -0.46434883055454,-0.09730881222181864 l 1.4009157412866533 -6.409716397016397" fill="red" stroke="none" /><path d="M 95.51606077576429 120.51570834832081 l -2.5538254071456676 11.684711724535616 a32.96053979951084,32.96053979951084 0 0,0 -0.5532345783077232,-0.12591438884568656 l 2.7545801348462535 -11.639020602112241" fill="red" stroke="none" /><path d="M 95.16358092515715 120.4354850818985 l -2.9268570375317977 12.366948025337143 a33.7085756707642,33.7085756707642 0 0,0 -0.5634897507241285,-0.13849207109046852 l 3.1393000729991365 -12.314734695932644" fill="red" stroke="none" /><path d="M 94.81253420990036 120.34920634021253 l -2.0184910586545675 7.918064949329887 a29.171294799214806,29.171294799214806 0 0,0 -0.48550696799471776,-0.12822680295156977 l 2.1544884694607744 -7.882146797074736" fill="red" stroke="none" /><path d="M 94.46302465271185 120.25689768951611 l -1.6410214688908507 6.003639517358945 a27.223876518356917,27.223876518356917 0 0,0 -0.45096848210024054,-0.12744819764394105 l 1.744121119095705 -5.974502526376482" fill="red" stroke="none" /><path d="M 94.11515582081647 120.15858648285463 l -2.6592399451723367 9.109250267499101 a30.48946771541653,30.48946771541653 0 0,0 -0.5025317996334212,-0.15140870889833855 l 2.8156467192460037 -9.062126189495038" fill="red" stroke="none" /><path d="M 93.76903079525671 120.05430185196036 l -2.6709991691734674 8.596579733400699 a30.00196754462273,30.00196754462273 0 0,0 -0.49185890623276074,-0.15747768938341125 l 2.8185794204971684 -8.549329197357581" fill="red" stroke="none" /><path d="M 93.42475214034765 119.94407469862007 l -4.441106572321312 13.470786670480262 a35.183988194732265,35.183988194732265 0 0,0 -0.5735497178588662,-0.19457920466418596 l 4.672326023117404 -13.392344478917952" fill="red" stroke="none" /><path d="M 93.08242187328487 119.8279376855182 l -3.6786545186359167 10.544171851182135 a32.167455354499616,32.167455354499616 0 0,0 -0.5212359924501324,-0.1868966822042797 l 3.859610071715776 -10.479287627937898" fill="red" stroke="none" /><path d="M 92.06813273071674 119.44442032107085 l -2.3320584966561366 5.716879025183694 a27.17423700714601,27.17423700714601 0 0,0 -0.4315896956315932,-0.18040452777696733 l 2.430119651785192 -5.675889454386753" fill="red" stroke="none" /><path d="M 91.40352486487194 119.15986991738527 l -1.6306690694832386 3.6344439736621355 a24.983499041277447,24.983499041277447 0 0,0 -0.39085138156064925,-0.17942069922480458 l 1.6929884468113072 -3.6058362041032566" fill="red" stroke="none" /><path d="M 91.07499286063937 119.00905698771935 l -4.455085134866921 9.48872823197466 a31.48254487322545,31.48254487322545 0 0,0 -0.4885601215856238,-0.23453854811079755 l 4.617757924452786 -9.4106354073643" fill="red" stroke="none" /><line stroke="#e1ed5e" stroke-width="0.3" x1="58.666819895761336" x2="56.23545636021788" y1="174.27360380694188" y2="178.64263932499728" /><path d="M 58.180547188652646 175.14741091055294 a86.0,86.0 0 0,1 -31.652253787137756,-30.449443065178592" fill="none" id="id32" stroke="none" /><text fill="#e1ed5e" style="font-size:6.75px; font-family:Arial;" text-anchor="middle"><textPath startOffset="22.20632615414155" xlink:href="#id32">August</textPath></text><path d="M 89.7882731507175 118.34994917583269 l -7.611530035780964 13.677528920264686 a36.65280124611159,36.65280124611159 0 0,0 -0.5486596794050996,-0.3115432851042593 l 7.84583848210727 -13.544482469365795" fill="red" stroke="none" /><path d="M 89.4739219176387 118.17145234162733 l -7.297440950719325 12.597769027957742 a35.55872346433597,35.55872346433597 0 0,0 -0.5270008193961099,-0.31136137323970703 l 7.513209641143817 -12.470289082424285" fill="red" stroke="none" /><path d="M 89.1626897886671 117.98757091392108 l -2.466495851170354 4.093845074714546 a25.779452822196816,25.779452822196816 0 0,0 -0.3781241754095412,-0.23227475203873113 l 2.5365992265122035 -4.050781855847436" fill="red" stroke="none" /><path d="M 88.8546689885994 117.79835938074946 l -6.493249349778105 10.369291442125167 a33.234561378738675,33.234561378738675 0 0,0 -0.4822464596709602,-0.30779250726353946 l 6.670777611495988 -10.255984506037823" fill="red" stroke="none" /><path d="M 88.54995079064634 117.60387380957326 l -9.699606959242471 14.912657036746616 a38.789595696907035,38.789595696907035 0 0,0 -0.5565850766250283,-0.3688742391304769 l 9.954866734607462 -14.74348477652482" fill="red" stroke="none" /><path d="M 87.95078237400918 117.19931262002967 l -1.6590222307553124 2.3681240455637673 a23.89142979463753,23.89142979463753 0 0,0 -0.3347902327227955,-0.23886394181572074 l 1.6995397913269947 -2.3392158419038274" fill="red" stroke="none" /><path d="M 87.65650970185807 116.9893568818739 l -5.952858635970781 8.193407001670877 a31.127608021387935,31.127608021387935 0 0,0 -0.43076908218738047,-0.3186726687679353 l 6.093012688576726 -8.089724384163175" fill="red" stroke="none" /><path d="M 87.36589467227662 116.77436683061367 l -6.620040333018724 8.789461706943383 a32.00361627414455,32.00361627414455 0 0,0 -0.4371865758747803,-0.3352160237888205 l 6.770355637386991 -8.674206341327196" fill="red" stroke="none" /><path d="M 86.79598089348748 116.32954008644616 l -1.804131721626029 2.2311874158823892 a23.869335908144816,23.869335908144816 0 0,0 -0.3172687935125765,-0.261090617511354 l 1.8422706436832945 -2.1998016795138544" fill="red" stroke="none" /><path d="M 86.51685102203217 116.09983520530335 l -11.29790894945217 13.490503779786662 a38.596489390288895,38.596489390288895 0 0,0 -0.5056774625807536,-0.43094930404958914 l 11.52845188860998 -13.294030085514121" fill="red" stroke="none" /><path d="M 86.24171649860922 115.8653595955263 l -9.617194504278737 11.090064330705031 a35.679235572478056,35.679235572478056 0 0,0 -0.46052998306511805,-0.4063641651519854 l 9.806666840250442 -10.922877023780757" fill="red" stroke="none" /><path d="M 85.97065885151581 115.62618273729859 l -2.7469171762698408 3.059575592775038 a25.111758356371517,25.111758356371517 0 0,0 -0.3191590294759541,-0.291544206238732 l 2.7991757552126493 -3.0118386199497302" fill="red" stroke="none" /><path d="M 85.70375840098266 115.38237550388516 l -3.6137300398767653 3.8882773530404777 a26.308271430067908,26.308271430067908 0 0,0 -0.3290590554189855,-0.31114587572930796 l 3.680124929686568 -3.825496840565239" fill="red" stroke="none" /><path d="M 85.44109423537348 115.13401014063109 l -2.969164578405497 3.0864522076906344 a25.28277077649695,25.28277077649695 0 0,0 -0.31103833496094596,-0.3044164756509294 l 3.021852865742237 -3.0348856291171353" fill="red" stroke="none" /><path d="M 84.9287848128048 114.62390073753433 l -4.405366657856744 4.274615146605829 a27.138370308294203,27.138370308294203 0 0,0 -0.32242121896053455,-0.33805735905707357 l 4.478294428196236 -4.198150670966254" fill="red" stroke="none" /><path d="M 84.67929136418377 114.36230785411682 l -9.306386920689947 8.72421747203042 a33.7562066468394,33.7562066468394 0 0,0 -0.3937478128848457,-0.42733548474898964 l 9.455181141570522 -8.562730732480086" fill="red" stroke="none" /><path d="M 84.43433777217949 114.09645910891817 l -3.183416589671539 2.882942024962592 a25.29482198731116,25.29482198731116 0 0,0 -0.28949460068432714,-0.3252502527800353 l 3.2325700400042043 -2.827717602441693" fill="red" stroke="none" /><path d="M 84.19399662182784 113.82643327865904 l -10.328113109508354 9.034603080008623 a34.72202511352095,34.72202511352095 0 0,0 -0.3896431095653687,-0.45324296414783605 l 10.482098728644502 -8.855483016699255" fill="red" stroke="none" /><path d="M 83.95833913139862 113.55231037782056 l -13.584885872961905 11.476778577086398 a38.78385702509074,38.78385702509074 0 0,0 -0.4264451298405058,-0.5136806303446839 l 13.780427002695948 -11.241236689627954" fill="red" stroke="none" /><path d="M 83.50135304334701 112.99209946851258 l -9.841343006876976 7.749708663081468 a33.526372840597006,33.526372840597006 0 0,0 -0.3531335769402552,-0.45647275108049823 l 9.973283401035298 -7.579157917887717" fill="red" stroke="none" /><path d="M 83.28015986056508 112.70617746262583 l -7.254937716847119 5.513361691367971 a30.112150043495486,30.112150043495486 0 0,0 -0.3100672944044287,-0.4153858113278035 l 7.348766277946633 -5.38766300053086" fill="red" stroke="none" /><path d="M 83.06392112726016 112.41649034213515 l -6.929226861064776 5.080082529454801 a29.591939443348835,29.591939443348835 0 0,0 -0.29763883777298056,-0.41339431343826194 l 7.0156454912133634 -4.960054610565401" fill="red" stroke="none" /><path d="M 82.85270091963577 112.12312394758628 l -8.57767155619865 6.064405535246121 a31.50492569330898,31.50492569330898 0 0,0 -0.3092569905877664,-0.44550776041795204 l 8.68078945394855 -5.915856512641156" fill="red" stroke="none" /><path d="M 82.6465618267979 111.8261652097733 l -10.563196038715354 7.198694590100337 a33.782891470785145,33.782891470785145 0 0,0 -0.3233455369463875,-0.4833577056362838 l 10.685544681072471 -7.015799970258232" fill="red" stroke="none" /><path d="M 82.44556493220864 111.52570212397912 l -12.716877518423827 8.34951063127096 a36.21293205139299,36.21293205139299 0 0,0 -0.3376340942152501,-0.5240156120919337 l 12.858716476016122 -8.129373419257579" fill="red" stroke="none" /><path d="M 82.24976979558568 111.22182372390057 l -8.487106968477493 5.3656103176879935 a31.040954076961963,31.040954076961963 0 0,0 -0.2816380652430658,-0.4540902366840512 l 8.578209673388514 -5.218723749638678" fill="red" stroke="none" /><path d="M 82.05923443525364 110.91462005526583 l -14.450388124723654 8.791179811323381 a37.914448244922866,37.914448244922866 0 0,0 -0.33440385249092014,-0.5604800916484411 l 14.599572852912805 -8.54113762578883" fill="red" stroke="none" /><line stroke="#e1ed5e" stroke-width="0.3" x1="26.63291911575756" x2="22.317208475507996" y1="142.92168965132927" y2="145.44649492493687" /><path d="M 25.769776987707644 143.4266507060508 a86.0,86.0 0 0,1 -11.730757126820373,-40.83630448921669" fill="none" id="id33" stroke="none" /><text fill="#e1ed5e" style="font-size:6.75px; font-family:Arial;" text-anchor="middle"><textPath startOffset="21.46611528233685" xlink:href="#id33">September</textPath></text><path d="M 81.87401531095188 110.60418214915194 l -9.8302981505677 5.75098533720352 a32.3889680866084,32.3889680866084 0 0,0 -0.27738529795527994,-0.48364464786138284 l 9.927835444675356 -5.580920843483831" fill="red" stroke="none" /><path d="M 81.69416730710424 110.29060199501025 l -12.02385633116078 6.7591964826150015 a34.79347157763375,34.79347157763375 0 0,0 -0.28899058286749935,-0.524601850893632 l 12.138423323479794 -6.551224113323547" fill="red" stroke="none" /><path d="M 81.51974371655577 109.97397251340807 l -4.418838578817117 2.384889789964264 a26.021337839253427,26.021337839253427 0 0,0 -0.20934475050355852,-0.39600137432364857 l 4.459235837545561 -2.3084734005544894" fill="red" stroke="none" /><path d="M 81.35079622478065 109.6543875284942 l -8.822661807952999 4.567347601188493 a30.934788648360605,30.934788648360605 0 0,0 -0.24073353860932317,-0.474990110072927 l 8.899974016348589 -4.41480327941288" fill="red" stroke="none" /><path d="M 81.18737489456691 109.33194174019688 l -7.625023949311591 3.7823684288500368 a29.511598037920777,29.511598037920777 0 0,0 -0.22182426868482116,-0.45702369566881285 l 7.689001474611131 -3.6505557772159394" fill="red" stroke="none" /><path d="M 81.02952815118164 109.00673069616217 l -5.8227389807734795 2.7644985497363432 a27.445676184056513,27.445676184056513 0 0,0 -0.19894897967657363,-0.4285184028912165 l 5.86946257728988 -2.6638600795663" fill="red" stroke="none" /><path d="M 80.87730276802145 108.67885076344099 l -3.1798147954780025 1.4431613767949552 a24.49198180021224,24.49198180021224 0 0,0 -0.17092944216287337,-0.3854007680224168 l 3.204185322372156 -1.3882122722798425" fill="red" stroke="none" /><path d="M 80.32549172779594 107.34259656027581 l -10.525216303042027 3.9280482110985755 a32.234310881159395,32.234310881159395 0 0,0 -0.18953120747802346,-0.5215084825649331 l 10.591271771525275 -3.7462919315275256" fill="red" stroke="none" /><path d="M 80.20201598880116 107.00284435728193 l -12.358242047407149 4.371295862177483 a34.10856109635959,34.10856109635959 0 0,0 -0.19102283467928455,-0.5552017733848651 l 12.431655713029663 -4.157921385703321" fill="red" stroke="none" /><path d="M 80.0844068197444 106.66101706037122 l -7.26551838760845 2.4300427054455223 a28.661126874746657,28.661126874746657 0 0,0 -0.1524604745959824,-0.469225092733983 l 7.3062711132206815 -2.3046187127337356" fill="red" stroke="none" /><path d="M 79.97269907076064 106.31721596034903 l -12.46854843722473 3.9329569904761286 a34.07412906546185,34.07412906546185 0 0,0 -0.17162526691888436,-0.5608813024624028 l 12.534400476649743 -3.717748715461678" fill="red" stroke="none" /><path d="M 79.86692584326677 105.97154293290107 l -4.8536587734008165 1.4396128242204738 a26.062656276330713,26.062656276330713 0 0,0 -0.12386880946116183,-0.43120357579544427 l 4.877720219748082 -1.3558517729204336" fill="red" stroke="none" /><path d="M 79.76711848015287 105.62410040840567 l -11.548784979595105 3.2101965435134368 a32.98665075627496,32.98665075627496 0 0,0 -0.14735910297562857,-0.5483780411041693 l 11.602332158912507 -3.0109275692337283" fill="red" stroke="none" /><path d="M 79.67330655649465 105.27499134158121 l -3.651367106959254 0.9475682765461604 a24.77231591843799,24.77231591843799 0 0,0 -0.1035585264927272,-0.41366483553566824 l 3.6671369477470392 -0.8845756016131003" fill="red" stroke="none" /><path d="M 79.58551787078972 104.9243191809786 l -12.873332654782175 3.1052660809042196 a34.242559083269946,34.242559083269946 0 0,0 -0.13328416193123874,-0.5741846812291724 l 12.924877382643968 -2.883212742326473" fill="red" stroke="none" /><path d="M 79.50377843672027 104.57218783832718 l -9.42593003434371 2.102686221208712 a30.65761079963382,30.65761079963382 0 0,0 -0.11046369483648855,-0.5160496070184918 l 9.460727767904638 -1.9401227947740562" fill="red" stroke="none" /><path d="M 79.4281124754447 104.21870165774334 l -10.728979110491412 2.2002046193037526 a31.952255161388756,31.952255161388756 0 0,0 -0.10585335872173444,-0.5397439956059404 l 10.765262402188812 -2.0151968966298575" fill="red" stroke="none" /><path d="M 79.35854240842038 103.8639653848113 l -15.298405252342882 2.863775878016593 a36.56413876654992,36.56413876654992 0 0,0 -0.11048212797815145,-0.6196424467906627 l 15.345433822660222 -2.6000146804927167" fill="red" stroke="none" /><path d="M 79.29508885075956 103.50808413554451 l -6.343503541572372 1.0747954423739134 a27.433911906833117,27.433911906833117 0 0,0 -0.07487922388126528,-0.4662729985864473 l 6.361064519814928 -0.9654432140942525" fill="red" stroke="none" /><path d="M 79.23777060512086 103.15116336523772 l -16.593859341838936 2.5185138190799274 a37.78389346110228,37.78389346110228 0 0,0 -0.09205946501071512,-0.6438636838697898 l 16.63475285786625 -2.232504663229737" fill="red" stroke="none" /><path d="M 79.18660465613746 102.79330883721812 l -3.4837029867826037 0.46753824536814526 a24.5149364874774,24.5149364874774 0 0,0 -0.05253024489742177,-0.41871773680142577 l 3.4912347409268736 -0.4075027542793109" fill="red" stroke="none" /><path d="M 79.1416061653843 102.43462659150553 l -7.676441448723698 0.89600707645006 a28.728556268588058,28.728556268588058 0 0,0 -0.053103639787815106,-0.4916737518985975 l 7.690727390012564 -0.7637370026666803" fill="red" stroke="none" /><path d="M 79.10278846688536 102.07522291339032 l -7.551960227898361 0.749956561482496 a28.58910654345222,28.58910654345222 0 0,0 -0.044415768717039804,-0.49012430668622714 l 7.563750592892476 -0.6198508662477027" fill="red" stroke="none" /><path d="M 79.07016306316243 101.71520430193888 l -8.030461658248461 0.6580979309275108 a29.05738216366145,29.05738216366145 0 0,0 -0.036561715855690326,-0.49885556443237306 l 8.040599932768487 -0.519769229998377" fill="red" stroke="none" /><path d="M 79.04373962182676 101.35467743843564 l -6.147919274828968 0.397420502734773 a27.160751128377733,27.160751128377733 0 0,0 -0.026143709187624133,-0.4668134898955096 l 6.153849334904124 -0.2915352965038258" fill="red" stroke="none" /><path d="M 79.0235259727143 100.99374915477108 l -14.799504646132426 0.7011185585334426 a35.81610289529657,35.81610289529657 0 0,0 -0.023873764291241974,-0.6160757756699518 l 14.80938054327487 -0.44626553584949413" fill="red" stroke="none" /><path d="M 79.0095281055655 100.63252640178507 l -5.8003120324423065 0.17478647062166258 a26.802944940632074,26.802944940632074 0 0,0 -0.009927220266925373,-0.4612789175409939 l 5.80246131539424 -0.07491773729053984" fill="red" stroke="none" /><line stroke="#e1ed5e" stroke-width="0.3" x1="15.007084014347285" x2="10.007500721073583" y1="101.09737516637583" y2="101.16192664675087" /><path d="M 14.007167355692545 101.11028546245083 a86.0,86.0 0 0,1 10.666146001902534,-42.60595125391555" fill="none" id="id34" stroke="none" /><text fill="#e1ed5e" style="font-size:6.75px; font-family:Arial;" text-anchor="middle"><textPath startOffset="22.20632615414155" xlink:href="#id34">October</textPath></text><path d="M 79.00175016825051 100.2711162175752 l -12.768054462899247 0.16485310249721138 a33.76911865842605,33.76911865842605 0 0,0 -0.002501652829905132,-0.581296015449354 l 12.769000413018656 0.05495239115581804" fill="red" stroke="none" /><path d="M 79.00019446554 99.90962569577889 l -11.111687339772605 -0.047820014828551735 a32.11179023788161,32.11179023788161 0 0,0 0.007136452213219272,-0.5527260885600901 l 11.109217880441669 0.23908236144911382" fill="red" stroke="none" /><path d="M 79.00486145842228 99.54816195383935 l -11.146223744888735 -0.23987876760071578 a32.14880467109668,32.14880467109668 0 0,0 0.016668857530699327,-0.5531582310604768 l 11.14044319290239 0.431707146086187" fill="red" stroke="none" /><path d="M 79.01574976396665 99.18683210126434 l -17.643503083732895 -0.6837094567381189 a38.656745444359935,38.656745444359935 0 0,0 0.031489401523291966,-0.6646914968599983 l 17.629120073976104 0.9873120602211263" fill="red" stroke="none" /><path d="M 79.03285615573316 98.82574320788736 l -17.91302637261934 -1.0032121228134157 a38.94109663285708,38.94109663285708 0 0,0 0.04324206471991729,-0.6689356018262265 l 17.89310371689501 1.311406788892654" fill="red" stroke="none" /><path d="M 79.05617556472873 98.46500227214037 l -8.690004007404013 -0.6369006982312156 a29.713312352263358,29.713312352263358 0 0,0 0.04177623260157567,-0.5097758530561285 l 8.67775329098294 0.7863904684951225" fill="red" stroke="none" /><path d="M 79.08570108090925 98.10471618934814 l -12.159199213992961 -1.1018840990044283 a33.20902428915619,33.20902428915619 0 0,0 0.05649151432844485,-0.5688618399162092 l 12.138430573982287 1.3110214696250677" fill="red" stroke="none" /><path d="M 79.12142395522702 97.74499172005258 l -17.01633949018729 -1.837864151390497 a38.115301758493004,38.115301758493004 0 0,0 0.07606661151714898,-0.6516922743821105 l 16.982182525666552 2.130500164097469" fill="red" stroke="none" /><path d="M 79.16333360222342 97.38593545837743 l -15.481518908627065 -1.9422343697847775 a36.60287480130987,36.60287480130987 0 0,0 0.08381012697296063,-0.6244827937625239 l 15.445792782596271 2.208435505611961" fill="red" stroke="none" /><path d="M 79.21141760316559 97.0276538004421 l -10.985151901028507 -1.570654212071738 a32.096869691159256,32.096869691159256 0 0,0 0.08290790570438446,-0.5462595103359846 l 10.95648810188482 1.7595128347998146" fill="red" stroke="none" /><path d="M 79.26566170972629 96.67025291283419 l -7.5112315520833715 -1.2062358118903527 a28.60747029326435,28.60747029326435 0 0,0 0.08226437512503589,-0.4855289987072468 l 7.489355315438113 1.3353505989134273" fill="red" stroke="none" /><path d="M 79.32604984820605 96.31383870115002 l -11.055930211252303 -1.9712702104957052 a32.23029381088799,32.23029381088799 0 0,0 0.10208450766684202,-0.545339521944327 l 11.020359979675598 2.1612878099026047" fill="red" stroke="none" /><path d="M 79.3925641242962 95.95851677861259 l -17.346388433733484 -3.4019340508663953 a38.676830795716945,38.676830795716945 0 0,0 0.13374946115055167,-0.6522098727243987 l 17.285259676667938 3.7000195797541964" fill="red" stroke="none" /><path d="M 79.46518482838121 95.60439243477599 l -2.8220488560842454 -0.6040774751350143 a23.885978056412053,23.885978056412053 0 0,0 0.08952193071360903,-0.4013092619025147 l 2.811232538368599 0.6525649065874882" fill="red" stroke="none" /><path d="M 79.54389044137918 95.25157060432595 l -14.92038331310326 -3.463434066758133 a36.31708894485865,36.31708894485865 0 0,0 0.1465951396445042,-0.607731495160123 l 14.858555373197941 3.719750793577653" fill="red" stroke="none" /><path d="M 79.62865764111835 94.90015583598534 l -15.124652164940054 -3.786366539684211 a36.591397457677296,36.591397457677296 0 0,0 0.15822062434040993,-0.6096886078382621 l 15.057235208729336 4.046151573071337" fill="red" stroke="none" /><path d="M 79.71946130924805 94.55025226153421 l -8.27679632024617 -2.2241249463739505 a29.570419424037745,29.570419424037745 0 0,0 0.13632418095944326,-0.4904306113596804 l 8.237285368720366 2.3662668611525737" fill="red" stroke="none" /><path d="M 79.81627453868168 94.20196356495316 l -15.466317521462909 -4.442899933280613 a37.09180964005775,37.09180964005775 0 0,0 0.18156282364062268,-0.6121395816016877 l 15.387548800710578 4.70846890162884" fill="red" stroke="none" /><path d="M 79.91906864156998 93.8553929516997 l -11.425286537755243 -3.496047814498888 a32.94820165510583,32.94820165510583 0 0,0 0.1706160118901023,-0.5408993827212699 l 11.363415042096936 3.6921973636465726" fill="red" stroke="none" /><path d="M 80.02781315780177 93.51064311812611 l -12.087665264755495 -3.927520525989406 a33.709723405127455,33.709723405127455 0 0,0 0.18405943389699703,-0.5503142798250771 l 12.018268537086726 4.135007908736806" fill="red" stroke="none" /><path d="M 80.14247586403 93.16781622104843 l -4.841765482431713 -1.6658588132161265 a26.120329928084423,26.120329928084423 0 0,0 0.14993930005056696,-0.4238985922862476 l 4.812373101571336 1.748955031928985" fill="red" stroke="none" /><path d="M 80.2630227832202 92.82701384747504 l -16.12691083480344 -5.860984021540219 a38.158915664296806,38.158915664296806 0 0,0 0.22967199274859446,-0.6154067548355222 l 16.02363425355322 6.137713913405082" fill="red" stroke="none" /><path d="M 80.38941819471856 92.48833698450439 l -7.836176380748882 -3.0015792946193485 a29.39137286336951,29.39137286336951 0 0,0 0.18503471763665139,-0.4708931736838251 l 7.78334811323054 3.136021473198937" fill="red" stroke="none" /><path d="M 80.52162464483688 92.15188598940014 l -7.991737977229837 -3.21998470840204 a29.616041864977248,29.616041864977248 0 0,0 0.19458911893510705,-0.4712129861718209 l 7.9351271714085305 3.357072265027172" fill="red" stroke="none" /><path d="M 80.803312248108 91.48605970444005 l -12.383425560895851 -5.492184237334741 a34.5467086895333,34.5467086895333 0 0,0 0.245771344512301,-0.5415245794066068 l 12.287051899420199 5.7045308255834195" fill="red" stroke="none" /><path d="M 81.10775173730289 90.83032412892265 l -13.654789039138905 -6.627585443288475 a36.17821308690444,36.17821308690444 0 0,0 0.2767460800785239,-0.55790321016359 l 13.538682946106968 6.861648241951026" fill="red" stroke="none" /><path d="M 81.26839172434947 90.50648371742162 l -4.199197911013215 -2.128229095725557 a25.7077194244932,25.7077194244932 0 0,0 0.20344668872939392,-0.39299424684476886 l 4.161941789123707 2.2001960648306613" fill="red" stroke="none" /><path d="M 81.43458229118936 90.18545643968196 l -18.55890687973844 -9.81110163315297 a41.992635371169094,41.992635371169094 0 0,0 0.3433235897953169,-0.636126470074016 l 18.38727519072465 10.12910908655946" fill="red" stroke="none" /><path d="M 81.6062741919709 89.86733742301443 l -14.716957718739977 -8.107219183329445 a37.802257210914405,37.802257210914405 0 0,0 0.31887528603864757,-0.5672435528021822 l 14.575224791408898 8.359346246066412" fill="red" stroke="none" /><line stroke="#e1ed5e" stroke-width="0.3" x1="26.266209847984243" x2="21.928928074336255" y1="57.711370442889674" y2="55.22380399835377" /><path d="M 25.398753493254645 57.213857153982495 a86.0,86.0 0 0,1 29.58750427330803,-30.492523968695096" fill="none" id="id35" stroke="none" /><text fill="#e1ed5e" style="font-size:6.75px; font-family:Arial;" text-anchor="middle"><textPath startOffset="21.46611528233685" xlink:href="#id35">November</textPath></text><path d="M 81.78341655067845 89.55222093294921 l -14.088122859703804 -8.07997808794025 a37.24072817369047,37.24072817369047 0 0,0 0.32371117351369516,-0.553327328053518 l 13.946952011719784 8.32128482834766" fill="red" stroke="none" /><path d="M 81.96595687620814 89.24020034530311 l -6.281931319001148 -3.748040412959049 a28.31508496422439,28.31508496422439 0 0,0 0.25333129214101147,-0.41641003530153825 l 6.21648422857392 3.8556182214676618" fill="red" stroke="none" /><path d="M 82.15384107792192 88.93136811851018 l -4.600305619215326 -2.853224027857883 a26.413289124306004,26.413289124306004 0 0,0 0.2429675500567887,-0.38431631540648703 l 4.550510472912575 2.9319879909785858" fill="red" stroke="none" /><path d="M 82.34701348167596 88.62581576622439 l -2.441201976908099 -1.5729169117297934 a23.904054872633367,23.904054872633367 0 0,0 0.22584023406282672,-0.34397017048554446 l 2.4137651074873516 1.6147051461930049" fill="red" stroke="none" /><path d="M 82.54541684631803 88.32363383020206 l -10.99824046012121 -7.357350313391626 a34.23222947400063,34.23222947400063 0 0,0 0.33184973364380826,-0.4869485360159145 l 10.869966260808662 7.545576872677956" fill="red" stroke="none" /><path d="M 82.7489923806493 88.02491185347247 l -13.873844524919717 -9.630771418289191 a37.88891115534038,37.88891115534038 0 0,0 0.3765208384519808,-0.5325620240161831 l 13.706011066663857 9.86815994263716" fill="red" stroke="none" /><path d="M 82.95767976084542 87.72973835380427 l -2.6257047364543267 -1.890475221086929 a24.235463170024094,24.235463170024094 0 0,0 0.24666783726109556,-0.33645465281324616 l 2.5927742866795978 1.9353923175716758" fill="red" stroke="none" /><path d="M 83.17141714833178 87.43820079747576 l -7.128979601296047 -5.321470682333471 a29.896089049612183,29.896089049612183 0 0,0 0.3113806651596543,-0.4097404557188056 l 7.0363229959122835 5.443395913933303" fill="red" stroke="none" /><path d="M 83.6137871275137 86.86637796730984 l -2.64328182579815 -2.1186020648006254 a24.387537973155766,24.387537973155766 0 0,0 0.26536139054334906,-0.3253016881221407 l 2.6064219431784084 2.1637879225308483" fill="red" stroke="none" /><path d="M 83.84228863543731 86.58626213691792 l -4.875726631805453 -4.047709323148721 a27.33692835313782,27.33692835313782 0 0,0 0.30368644022142677,-0.3594689575880515 l 4.805329578096901 4.131037230365889" fill="red" stroke="none" /><path d="M 84.07557802195018 86.31012108654704 l -5.789024168206755 -4.976698055291593 a28.634155117210092,28.634155117210092 0 0,0 0.324531518927149,-0.3709956270792742 l 5.702500785701762 5.0756092385738105" fill="red" stroke="none" /><path d="M 84.31358615837235 86.03803664274999 l -4.561186169304637 -4.0597624673415496 a27.106233746122978,27.106233746122978 0 0,0 0.3132142855926051,-0.3458590371377882 l 4.490628243095987 4.137674291748893" fill="red" stroke="none" /><path d="M 84.5562425177563 85.77008943001954 l -8.19712159820059 -7.552845051326421 a32.14622226877935,32.14622226877935 0 0,0 0.37845698190682303,-0.4037115211482375 l 8.065897294323312 7.692825989352709" fill="red" stroke="none" /><path d="M 84.80347519578584 85.50635884689758 l -2.333641036165877 -2.2257033232336676 a24.224846627163956,24.224846627163956 0 0,0 0.2903933143984832,-0.2992758367806264 l 2.2949834580642756 2.265543355564418" fill="red" stroke="none" /><path d="M 85.05521093208273 85.24692304244772 l -4.501753298023404 -4.44400469941927 a27.32573794309606,27.32573794309606 0 0,0 0.33332741881099476,-0.33189600494351557 l 4.424590079045096 4.520836555012895" fill="red" stroke="none" /><path d="M 85.31137513191541 84.99185889309783 l -2.293176369553173 -2.3430589892759373 a24.278503208646264,24.278503208646264 0 0,0 0.30118842408865687,-0.28974302534200913 l 2.252504701852088 2.38218510138026" fill="red" stroke="none" /><path d="M 85.57189188830299 84.74124197986013 l -4.0336512081739535 -4.265875140849073 a26.870948201655104,26.870948201655104 0 0,0 0.3388197732740505,-0.31489605334538184 l 3.9596235511050466 4.3346757802691025" fill="red" stroke="none" /><path d="M 85.83668400450813 84.49514656593479 l -5.098491866351283 -5.581416749277642 a28.55955238359833,28.55955238359833 0 0,0 0.36581932335072553,-0.3284362004640335 l 5.001661555404586 5.668351958510954" fill="red" stroke="none" /><path d="M 86.10567301691215 84.25364557470407 l -2.2293521462505144 -2.526510933302745 a24.369461156934456,24.369461156934456 0 0,0 0.3169262364569225,-0.2748353092124481 l 2.1855321111468182 2.564511235934874" fill="red" stroke="none" /><path d="M 86.37877921826538 84.01681056812374 l -4.101571716380276 -4.812798996639083 a27.323442474369543,27.323442474369543 0 0,0 0.3605945783858493,-0.3019875892532342 l 4.018119601035316 4.882687743286129" fill="red" stroke="none" /><path d="M 87.22198572758235 83.33499621200491 l -2.1705333790487877 -2.8307956316732104 a24.567158401005635,24.567158401005635 0 0,0 0.33780292759606,-0.2544261616762194 l 2.1214842976943378 2.867738382855284" fill="red" stroke="none" /><path d="M 87.80319425747018 82.90503203632743 l -1.833162188089452 -2.569348855686955 a24.156269498959297,24.156269498959297 0 0,0 0.34056758011746974,-0.2385893541125343 l 1.788663468388322 2.6005230525634317" fill="red" stroke="none" /><path d="M 88.39885842347998 82.49532879139004 l -1.861884866181518 -2.8093513208008534 a24.3703219577069,24.3703219577069 0 0,0 0.3516671974018293,-0.2287341274496446 l 1.8132506429954016 2.8409843724100328" fill="red" stroke="none" /><path d="M 88.70189139769569 82.29822771554957 l -1.84535996819062 -2.891292966779288 a24.43000414459631,24.43000414459631 0 0,0 0.35642311320814535,-0.22319212079262235 l 1.7953177026102325 2.922629428894841" fill="red" stroke="none" /><path d="M 89.00827224532344 82.1063720568725 l -1.8158931188104677 -2.956124512695963 a24.469314046537896,24.469314046537896 0 0,0 0.36079180202102135,-0.2173730237906418 l 1.7647392505717971 2.9869441459452237" fill="red" stroke="none" /><line stroke="#e1ed5e" stroke-width="0.3" x1="56.762969772571076" x2="54.21961505331055" y1="26.818313649435495" y2="22.513508569990535" /><path d="M 56.25429882871897 25.957352633546506 a86.0,86.0 0 0,1 42.265352541879196,-11.944610805530505" fill="none" id="id36" stroke="none" /><text fill="#e1ed5e" style="font-size:6.75px; font-family:Arial;" text-anchor="middle"><textPath startOffset="22.20632615414155" xlink:href="#id36">December</textPath></text><path d="M 89.63071344664047 81.73862282372117 l -1.43380961163764 -2.52508578891628 a23.903767939042552,23.903767939042552 0 0,0 0.35955354630264275,-0.2000911592370572 l 1.3901319762629516 2.549392345713522" fill="red" stroke="none" /><path d="M 89.94658935756843 81.56283822128135 l -10.771599708560831 -19.754263851924065 a43.50018445730838,43.50018445730838 0 0,0 0.6604880614831047,-0.3528098482941699 l 10.429966600549422 19.936752426719984" fill="red" stroke="none" /><path d="M 90.26544431104013 81.39251694778311 l -1.9808902849161212 -3.7864473307888793 a25.273301968000073,25.273301968000073 0 0,0 0.3872104691526801,-0.1983442416362183 l 1.9154193281746774 3.8199840977376027" fill="red" stroke="none" /><path d="M 90.58718382345135 81.22770947309562 l -4.900119277744928 -9.772469893493765 a31.932169810031745,31.932169810031745 0 0,0 0.4934717433360728,-0.2421444413307587 l 4.731176267398428 9.855369494959355" fill="red" stroke="none" /><path d="M 90.91171255644093 81.06846463323043 l -1.9492197865971954 -4.0603604977001835 a25.503996575014916,25.503996575014916 0 0,0 0.39740301801357336,-0.18658604555007635 l 1.8790385572840136 4.093311525890267" fill="red" stroke="none" /><path d="M 91.56875222667455 80.76684994638697 l -2.4083793619481666 -5.49393433803738 a26.998633649567548,26.998633649567548 0 0,0 0.4272421180581154,-0.1829227780962036 l 2.313453486099743 5.5345766440963695" fill="red" stroke="none" /><path d="M 91.90106846888425 80.62456947434976 l -2.6571627814133283 -6.356847525975417 a27.88984938263733,27.88984938263733 0 0,0 0.4445324982437744,-0.18133596757994352 l 2.5473464135811734 6.401644379738937" fill="red" stroke="none" /><path d="M 92.23578459929587 80.48803036053334 l -9.083965463190433 -22.828585913221954 a45.56954951426241,45.56954951426241 0 0,0 0.7313193023660597,-0.28374052759098034 l 8.689662995824696 22.981569144703485" fill="red" stroke="none" /><path d="M 97.11714578562143 79.19881850522333 l -3.2152392448117175 -23.199499560845513 a44.421241283822866,44.421241283822866 0 0,0 0.7583028924594856,-0.09844947887998062 l 2.815421623844374 23.25140736288963" fill="red" stroke="none" /><path d="M 97.47563105711357 79.15227682838746 l -0.40207004960617776 -3.320530904726489 a24.34478486812441,24.34478486812441 0 0,0 0.41645034859633656,-0.04679304900786874 l 0.3448529975001232 3.326959907204956" fill="red" stroke="none" /><path d="M 97.83486435360386 79.11191278185805 l -6.495406939188433 -62.66426165442583 a84.0,84.0 0 0,0 1.4394994916390547,-0.13669782193927782 l 5.415782320459142 62.766785020880285" fill="red" stroke="none" /><path d="M 98.19473922651362 79.07773832637324 l -1.1063032152726686 -12.821618738000032 a33.86925848162031,33.86925848162031 0 0,0 0.5812768112285206,-0.045118267899739585 l 0.8854362146818138 12.838762268088233" fill="red" stroke="none" /><path d="M 98.91598698831166 79.02799685794201 l -0.8891589537081513 -17.202232971275105 a38.22519732377495,38.22519732377495 0 0,0 0.6573990689146856,-0.028308986783145498 l 0.5929190524041418 17.21498968458244" fill="red" stroke="none" /><path d="M 99.27714615592234 79.0124445844662 l -0.938643641129398 -27.25286113512755 a48.26902073664506,48.26902073664506 0 0,0 0.8306256399737898,-0.021452609696183858 l 0.46939136596072917 27.264980536966092" fill="red" stroke="none" /><path d="M 99.63851952072746 79.00311137660856 l -0.2297516537985104 -13.345312298897802 a34.34728984391723,34.34728984391723 0 0,0 0.5912321330710428,-0.005088921627988366 l 3.2691431569290425e-15 13.347289843917231" fill="red" stroke="none" /></svg>