<?xml version="1.0" encoding="utf-8" ?>
<svg baseProfile="full" height="200mm" version="1.1" viewBox="0,0,200,200" width="200mm" xmlns="http://www.w3.org/2000/svg" xmlns:ev="http://www.w3.org/2001/xml-events" xmlns:xlink="http://www.w3.org/1999/xlink"><defs /><rect fill="#1a1a1a" height="200" width="200" x="0" y="0" /><rect fill="#1a1a1a" height="200" width="180" x="10" y="0" /><text alignment-baseline="middle" fill="#e1ed5e" style="dominant-baseline: central; font-size:9.0px; font-family:Arial;" text-anchor="middle" x="100.0" y="100.0">2026</text><line stroke="#e1ed5e" stroke-width="0.3" x1="100.0" x2="100.0" y1="15.0" y2="10.0" /><path d="M 100.0 14.0 a86.0,86.0 0 0,1 42.46469731375804,11.215312516191453" fill="none" id="id61" stroke="none" /><text fill="#e1ed5e" style="font-size:6.75px; font-family:Arial;" text-anchor="middle"><textPath startOffset="22.20632615414155" xlink:href="#id61">January</textPath></text><path d="M 100.0 79.0 l 0.0 -33.025508424800854 a54.025508424800854,54.025508424800854 0 0,0 0.9299603180161444,0.0080044620561155 l -0.5684798387436161 33.0206153393533" fill="#9eff22" stroke="none" /><path d="M 100.36148047927253 79.00311137660856 l 0.4105668372582482 -23.84810978373809 a44.851643662126946,44.851643662126946 0 0,0 0.7718185422487427,0.019933795859783266 l -0.8210120147018587 23.837509195735944" fill="#ffe415" stroke="none" /><path d="M 100.72285384407766 79.0124445844662 l 0.9620449365675114 -27.932301368899008 a48.94886384493961,48.94886384493961 0 0,0 0.8418252819869683,0.03625076746887886 l -1.4427110509438112 27.911602874905935" fill="#e0ff1b" stroke="none" /><path d="M 101.08401301168833 79.027996857942 l 1.1159074512782192 -21.58905319596055 a42.6178737931794,42.6178737931794 0 0,0 0.7322926791591834,0.044173894211444485 l -1.4873621792770144 21.5666460323688" fill="#ffc412" stroke="none" /><path d="M 101.80526077348638 79.07773832637324 l 1.191468134301661 -13.808646622008574 a34.8599537461914,34.8599537461914 0 0,0 0.5973914963833618,0.0567295208334364 l -1.428984757775267 13.786091556659958" fill="#ff4d07" stroke="none" /><path d="M 102.52436894288641 79.15227682838746 l 3.9687155320741483 -32.77598664518349 a54.01539040417019,54.01539040417019 0 0,0 0.922081994942554,0.11971270687399431 l -4.532312255524548 32.70281561514536" fill="#9eff22" stroke="none" /><path d="M 103.59715602781102 79.31037775812273 l 2.688854653511328 -15.465380599105243 a36.69738629272053,36.69738629272053 0 0,0 0.6214176004029976,0.11356009447230712 l -2.9546673750172263 15.416805023282198" fill="#ff6a09" stroke="none" /><path d="M 104.307194497241 79.44645832069477 l 5.584976294169933 -26.65100057907377 a48.229906207554784,48.229906207554784 0 0,0 0.8110829662186143,0.17727132130121012 l -6.042901984542075 26.55091575967669" fill="#eaff1a" stroke="none" /><path d="M 104.66035177308747 79.52364482259891 l 6.395559105655406 -28.10039803469653 a49.81901361917698,49.81901361917698 0 0,0 0.834530901434186,0.1975065017574391 l -6.878313694052116 27.98614562079822" fill="#d5ff1c" stroke="none" /><path d="M 105.36241919743992 79.69619591428918 l 11.81696796822139 -44.74275391010686 a67.27693550163357,67.27693550163357 0 0,0 1.1171242579038043,0.3053522592984299 l -12.585390115348904 44.53271510998214" fill="#35ff66" stroke="none" /><path d="M 108.09893153111575 80.62456947434976 l 11.219239565033101 -26.84028083306666 a50.09075474468632,50.09075474468632 0 0,0 0.7926653041048141,0.33937791570352593 l -11.67958862692823 26.643183389400345" fill="#d1ff1c" stroke="none" /><path d="M 108.43124777332544 80.76684994638697 l 8.412367918908458 -19.190081805264207 a41.95297529459271,41.95297529459271 0 0,0 0.6588972112227655,0.29562797228295046 l -8.741447248598003 19.042433502464725" fill="#ffba11" stroke="none" /><path d="M 108.76106565485865 80.91482961587045 l 6.047735544715049 -13.17443195338153 a35.49623270070849,35.49623270070849 0 0,0 0.5531019407834064,0.25968877748513547 l -6.273615696798054 13.068378193256393" fill="#ff5708" stroke="none" /><path d="M 109.41281617654863 81.2277094730956 l 12.890186764805996 -25.707325667090814 a49.75801640908924,49.75801640908924 0 0,0 0.7623390446671938,0.39049966808767417 l -13.330786297061945 25.48163347369064" fill="#d5ff1c" stroke="none" /><path d="M 110.05341064243156 81.56283822128135 l 4.39958964873122 -8.068500233271527 a30.190053595682976,30.190053595682976 0 0,0 0.454110032404783,0.25271174137876157 l -4.537823770208038 7.991573094332586" fill="#ff0000" stroke="none" /><path d="M 110.36928655335952 81.73862282372117 l 13.807602808814835 -24.31660476296921 a48.96331816012628,48.96331816012628 0 0,0 0.7293279004679633,0.4224737948096748 l -14.224127441748125 24.075326810769482" fill="#e0ff1b" stroke="none" /><line stroke="#e1ed5e" stroke-width="0.3" x1="143.23703022742887" x2="145.7803849466894" y1="26.81831364943548" y2="22.513508569990506" /><path d="M 143.74570117128098 25.957352633546492 a86.0,86.0 0 0,1 28.547481713284135,27.462654790039103" fill="none" id="id62" stroke="none" /><text fill="#e1ed5e" style="font-size:6.75px; font-family:Arial;" text-anchor="middle"><textPath startOffset="19.985693538727396" xlink:href="#id62">February</textPath></text><path d="M 110.68208982089419 81.91981866633111 l 16.68368244630389 -28.238295034039727 a53.79857567637018,53.79857567637018 0 0,0 0.7932418958507298,0.47791936660591255 l -17.16728640837226 27.9469290579752" fill="#a1ff22" stroke="none" /><path d="M 111.2981086023043 82.29822771554956 l 11.513880453570723 -18.039841629591418 a42.40105906537939,42.40105906537939 0 0,0 0.6118532875465871,0.3979663980267465 l -11.82270076690159 17.838976307405144" fill="#ffc111" stroke="none" /><path d="M 111.60114157652 82.49532879139004 l 14.154342414838418 -21.357131840136674 a46.62171909988621,46.62171909988621 0 0,0 0.6651261038582272,0.4490961143840261 l -14.519873213103187 21.110323813453977" fill="#fffd18" stroke="none" /><path d="M 111.90073688211348 82.69761687909136 l 9.669321412431186 -14.058146588262218 a38.06245181894938,38.06245181894938 0 0,0 0.5366241302232635,0.37593949661035764 l -9.909876682238101 13.889622248887925" fill="#ff7f0b" stroke="none" /><path d="M 112.77801427241765 83.33499621200491 l 17.614859254981965 -22.973185813614986 a49.94910245585698,49.94910245585698 0 0,0 0.6778032428059708,0.5290361821469487 l -18.007695052947366 22.666571242244814" fill="#d3ff1c" stroke="none" /><path d="M 113.34407831869373 83.78471172551755 l 17.93779479213927 -21.79742254326949 a49.229277559560956,49.229277559560956 0 0,0 0.6496915826942845,0.5440980163767866 l -18.31034391179267 21.485423369498886" fill="#ddff1b" stroke="none" /><path d="M 113.89432698308785 84.25364557470407 l 32.34558619511929 -36.65705182714194 a69.88738482434566,69.88738482434566 0 0,0 0.8951875534952254,0.8037082242667161 l -32.97178473621051 36.09484459410593" fill="#39ff88" stroke="none" /><path d="M 114.42810811169701 84.74124197986012 l 7.464047339087776 -7.893764817694699 a31.863863294299037,31.863863294299037 0 0,0 0.39528906244800527,0.38026776488786734 l -7.5988196451482 7.764113966044529" fill="#ff1c02" stroke="none" /><path d="M 114.68862486808459 84.99185889309783 l 44.06587460425377 -45.02442332070654 a84.0,84.0 0 0,0 1.0246567993307099,1.0202565973995252 l -44.8343672037518 44.25923087265689" fill="#4dd2ff" stroke="none" /><line stroke="#e1ed5e" stroke-width="0.3" x1="172.23445277983987" x2="176.4835382374775" y1="55.19839476539836" y2="52.563006222186495" /><path d="M 173.08426987136738 54.67131705675599 a86.0,86.0 0 0,1 12.851231095245387,41.99856678651699" fill="none" id="id63" stroke="none" /><text fill="#e1ed5e" style="font-size:6.75px; font-family:Arial;" text-anchor="middle"><textPath startOffset="22.20632615414155" xlink:href="#id63">March</textPath></text><line stroke="#e1ed5e" stroke-width="0.3" x1="184.98032266829074" x2="189.97916517819016" y1="98.17113171792111" y2="98.06355123074" /><path d="M 185.9800911702706 98.14961562048488 a86.0,86.0 0 0,1 -9.607161424134198,41.387399972396054" fill="none" id="id64" stroke="none" /><text fill="#e1ed5e" style="font-size:6.75px; font-family:Arial;" text-anchor="middle"><textPath startOffset="21.466115282336823" xlink:href="#id64">April</textPath></text><line stroke="#e1ed5e" stroke-width="0.3" x1="174.80103733775053" x2="179.2010983576182" y1="140.37084112569926" y2="142.7455964860345" /><path d="M 175.68104954172406 140.8457921977663 a86.0,86.0 0 0,1 -30.038265399797805,32.042727171017184" fill="none" id="id65" stroke="none" /><text fill="#e1ed5e" style="font-size:6.75px; font-family:Arial;" text-anchor="middle"><textPath startOffset="22.206326154141568" xlink:href="#id65">May</textPath></text><line stroke="#e1ed5e" stroke-width="0.3" x1="143.8653032363475" x2="146.44561519142675" y1="172.8068346515853" y2="177.08958963109032" /><path d="M 144.38136562736335 173.6633856474863 a86.0,86.0 0 0,1 -40.68145358897372,12.25698825130547" fill="none" id="id66" stroke="none" /><text fill="#e1ed5e" style="font-size:6.75px; font-family:Arial;" text-anchor="middle"><textPath startOffset="21.466115282336833" xlink:href="#id66">June</textPath></text><line stroke="#e1ed5e" stroke-width="0.3" x1="102.19456741930631" x2="102.32365962044197" y1="184.97166512339345" y2="189.96999836594603" /><path d="M 102.22038585953345 185.97133177190398 a86.0,86.0 0 0,1 -42.740103519485714,-10.115201625700543" fill="none" id="id67" stroke="none" /><text fill="#e1ed5e" style="font-size:6.75px; font-family:Arial;" text-anchor="middle"><textPath startOffset="22.20632615414155" xlink:href="#id67">July</textPath></text><line stroke="#e1ed5e" stroke-width="0.3" x1="58.666819895761336" x2="56.23545636021788" y1="174.27360380694188" y2="178.64263932499728" /><path d="M 58.180547188652646 175.14741091055294 a86.0,86.0 0 0,1 -31.652253787137756,-30.449443065178592" fill="none" id="id68" stroke="none" /><text fill="#e1ed5e" style="font-size:6.75px; font-family:Arial;" text-anchor="middle"><textPath startOffset="22.20632615414155" xlink:href="#id68">August</textPath></text><line stroke="#e1ed5e" stroke-width="0.3" x1="26.63291911575756" x2="22.317208475507996" y1="142.92168965132927" y2="145.44649492493687" /><path d="M 25.769776987707644 143.4266507060508 a86.0,86.0 0 0,1 -11.730757126820373,-40.83630448921669" fill="none" id="id69" stroke="none" /><text fill="#e1ed5e" style="font-size:6.75px; font-family:Arial;" text-anchor="middle"><textPath startOffset="21.46611528233685" xlink:href="#id69">September</textPath></text><line stroke="#e1ed5e" stroke-width="0.3" x1="15.007084014347285" x2="10.007500721073583" y1="101.09737516637583" y2="101.16192664675087" /><path d="M 14.007167355692545 101.11028546245083 a86.0,86.0 0 0,1 10.666146001902534,-42.60595125391555" fill="none" id="id70" stroke="none" /><text fill="#e1ed5e" style="font-size:6.75px; font-family:Arial;" text-anchor="middle"><textPath startOffset="22.20632615414155" xlink:href="#id70">October</textPath></text><line stroke="#e1ed5e" stroke-width="0.3" x1="26.266209847984243" x2="21.928928074336255" y1="57.711370442889674" y2="55.22380399835377" /><path d="M 25.398753493254645 57.213857153982495 a86.0,86.0 0 0,1 29.58750427330803,-30.492523968695096" fill="none" id="id71" stroke="none" /><text fill="#e1ed5e" style="font-size:6.75px; font-family:Arial;" text-anchor="middle"><textPath startOffset="21.46611528233685" xlink:href="#id71">November</textPath></text><line stroke="#e1ed5e" stroke-width="0.3" x1="56.762969772571076" x2="54.21961505331055" y1="26.818313649435495" y2="22.513508569990535" /><path d="M 56.25429882871897 25.957352633546506 a86.0,86.0 0 0,1 42.265352541879196,-11.944610805530505" fill="none" id="id72" stroke="none" /><text fill="#e1ed5e" style="font-size:6.75px; font-family:Arial;" text-anchor="middle"><textPath startOffset="22.20632615414155" xlink:href="#id72">December</textPath></text></svg>