<?xml version="1.0" encoding="utf-8" ?>
<svg baseProfile="full" height="200mm" version="1.1" viewBox="0,0,200,200" width="200mm" xmlns="http://www.w3.org/2000/svg" xmlns:ev="http://www.w3.org/2001/xml-events" xmlns:xlink="http://www.w3.org/1999/xlink"><defs /><rect fill="#1a1a1a" height="200" width="200" x="0" y="0" /><text alignment-baseline="middle" fill="#e1ed5e" style="dominant-baseline: central; font-size:9.0px; font-family:Arial;" text-anchor="middle" x="100.0" y="100.0">2024</text><line stroke="#e1ed5e" stroke-width="0.3" x1="100.0" x2="100.0" y1="15.0" y2="10.0" /><path d="M 100.0 14.0 a86.0,86.0 0 0,1 42.35913384403234,11.155469271406648" fill="none" id="id37" stroke="none" /><text fill="#e1ed5e" style="font-size:6.75px; font-family:Arial;" text-anchor="middle"><textPath startOffset="22.145653131862478" xlink:href="#id37">January</textPath></text><path d="M 100.72087961077811 79.0123766808444 l 0.07251935360079668 -2.111321854531749 a23.11256692913386,23.11256692913386 0 0,0 0.396407200679193,0.017023430832370526 l -0.10875231488082596 2.109765855273548" fill="#ff0300" stroke="none" /><path d="M 101.44090949804482 79.04949213459386 l 0.4157210296226304 -6.044492532488513 a27.058771653543307,27.058771653543307 0 0,0 0.46313149978954704,0.03584930713202473 l -0.5194215241874109 6.036465458361435" fill="#ff3d05" stroke="none" /><path d="M 102.15924093988457 79.11130261209362 l 1.8115861466659882 -17.525452630521254 a38.61883464566929,38.61883464566929 0 0,0 0.6588448559789821,0.07382494033130663 l -2.112166904245767 17.491771929682976" fill="#ffd914" stroke="none" /><path d="M 102.51750503828377 79.15144685158666 l 0.4533887813828851 -3.7547095087441713 a24.781984251968503,24.781984251968503 0 0,0 0.4219099517919942,0.05462469019097713 l -0.517776555065671 3.7463732223527972" fill="#ff1c02" stroke="none" /><path d="M 102.87502721639298 79.19773525538626 l 1.0371571748100048 -7.504352657656473 a28.57568503937008,28.57568503937008 0 0,0 0.48534425921930785,0.07132889235776012 l -1.1658265396369947 7.48544269199983" fill="#ff5207" stroke="none" /><path d="M 103.23170211078529 79.25015418208739 l 0.32135260584186776 -2.0633142523098718 a23.088188976377953,23.088188976377953 0 0,0 0.3910946777457018,0.0643544803940762 l -0.35672478664064006 2.0574937734201275" fill="#ff0300" stroke="none" /><path d="M 103.58742460773223 79.30868818359171 l 0.6456880052126189 -3.724156829156195 a24.77971653543307,24.77971653543307 0 0,0 0.41850022702708245,0.07626468234038883 l -0.709522965790755 3.71252397288444" fill="#ff1c02" stroke="none" /><path d="M 104.29559338865022 79.4440306129975 l 1.1722669525687874 -5.609721733455463 a26.730897637795277,26.730897637795277 0 0,0 0.4483631802637288,0.09771866830620786 l -1.2683925494516504 5.588771607015537" fill="#ff3805" stroke="none" /><path d="M 104.64783097203109 79.52079915486377 l 2.925885405160264 -12.891990957223893 a34.21984251968504,34.21984251968504 0 0,0 0.5717448782972475,0.13493023449755795 l -3.146762437197397 12.839864579080107" fill="#ff9f0e" stroke="none" /><path d="M 104.9986988182912 79.60360301121754 l 1.4555941062864783 -5.939320676355561 a27.11508661417323,27.11508661417323 0 0,0 0.4511365588917661,0.11467714911449677 l -1.5573359584036388 5.913458295405797" fill="#ff3d05" stroke="none" /><path d="M 105.3480935250658 79.69241777938227 l 0.5059573203961012 -1.9212023566736016 a22.98670866141732,22.98670866141732 0 0,0 0.38072403827316836,0.10376802963594914 l -0.5388627596039623 1.9122338328935105" fill="#ff0100" stroke="none" /><path d="M 105.69591212413111 79.78721728523813 l 1.0293903549059622 -3.6529432194426317 a24.795212598425195,24.795212598425195 0 0,0 0.40869593246735153,0.11896542954290652 l -1.091946299754918 3.634734095597209" fill="#ff1c02" stroke="none" /><path d="M 106.72888874123014 80.10723608172694 l 5.8313806294414885 -17.23944066251023 a39.19899212598425,39.19899212598425 0 0,0 0.635572883835734,0.22108524138728833 l -6.126459285322241 17.13679698855435" fill="#ffe015" stroke="none" /><path d="M 107.74402155503746 80.48000691201159 l 2.0955723030958975 -5.282211132948475 a26.682708661417323,26.682708661417323 0 0,0 0.4243129295635966,0.17256437453345383 l -2.185939693849934 5.245459501835728" fill="#ff3705" stroke="none" /><path d="M 108.07796709384702 80.6158196554323 l 1.4285553145402188 -3.428012707594552 a24.71376377952756,24.71376377952756 0 0,0 0.3902008204673717,0.16655352748249666 l -1.4871912101780205 3.402984530452654" fill="#ff1b02" stroke="none" /><path d="M 108.73861861582097 80.90454125486305 l 1.3204848935600964 -2.885497802009808 a24.17329133858268,24.17329133858268 0 0,0 0.37585011642473515,0.17591683227169458 l -1.3698237238563364 2.8624047381675797" fill="#ff1302" stroke="none" /><path d="M 109.06512990194946 81.05736502329252 l 2.491003884687772 -5.205240059831179 a26.770582677165354,26.770582677165354 0 0,0 0.41282756291821204,0.20193464807628844 l -2.579991696868051 5.1617116616576695" fill="#ff3905" stroke="none" /><path d="M 109.71004243097381 81.37971332152246 l 1.753094094871789 -3.3617890810375237 a24.79143307086614,24.79143307086614 0 0,0 0.3756624417061222,0.2000190909373325 l -1.8105453523644708 3.3311995223776183" fill="#ff1c02" stroke="none" /><path d="M 110.02825361518725 81.54914285379988 l 3.6171200126338396 -6.65509341852862 a28.57455118110236,28.57455118110236 0 0,0 0.42896634907968995,0.23794040275455824 l -3.73083054986963 6.592020100340916" fill="#ff5207" stroke="none" /><path d="M 110.34350942703115 81.72400993836675 l 1.5162723830491558 -2.6791080144342474 a24.078425196850393,24.078425196850393 0 0,0 0.3579745575484136,0.20667670716361383 l -1.562039408457967 2.6526844099944618" fill="#ff1101" stroke="none" /><line stroke="#e1ed5e" stroke-width="0.3" x1="143.13028292997686" x2="145.6673583964461" y1="26.7553504044142" y2="22.446841604673864" /><path d="M 143.63769802327073 25.89364864446614 a86.0,86.0 0 0,1 29.32050498858742,28.57503671076993" fill="none" id="id38" stroke="none" /><text fill="#e1ed5e" style="font-size:6.75px; font-family:Arial;" text-anchor="middle"><textPath startOffset="20.669276256404974" xlink:href="#id38">February</textPath></text><path d="M 110.65571695917076 81.90426304109057 l 1.0740579136978317 -1.8239851489470813 a23.116724409448818,23.116724409448818 0 0,0 0.34022010907856287,0.20429240018396327 l -1.1052107793338288 1.805278748227197" fill="#ff0300" stroke="none" /><path d="M 110.96478420261332 82.08984904055464 l 3.34178007985699 -5.458546615923467 a27.400251968503937,27.400251968503937 0 0,0 0.3990466634366093,0.24903463134806583 l -3.4349908720833113 5.400376187733856" fill="#ff4106" stroke="none" /><path d="M 111.27062007382361 82.28071324371311 l 1.2414163302911223 -1.951712664989441 a23.313070866141732,23.313070866141732 0 0,0 0.3358351853913547,0.21768430972507566 l -1.2747371479394844 1.9301145135604707" fill="#ff0601" stroke="none" /><path d="M 111.8722381534696 82.67804972795209 l 2.141222920781442 -3.124108232642379 a24.787464566929135,24.787464566929135 0 0,0 0.3489188668257487,0.24357246744916938 l -2.194536878780952 3.0868909493880827" fill="#ff1c02" stroke="none" /><path d="M 112.16784306229584 82.88440491214696 l 1.1140214651590357 -1.5670107034764165 a22.922645669291338,22.922645669291338 0 0,0 0.3187546584715237,0.2307537910750723 l -1.1407571340045273 1.5476561410282694" fill="#ff0000" stroke="none" /><path d="M 113.03279911837588 83.53348406188908 l 2.186930080183173 -2.7631147149422217 a24.52384251968504,24.52384251968504 0 0,0 0.3278595188252622,0.26410042040802545 l -2.2340403693636945 2.7251660007407876" fill="#ff1802" stroke="none" /><path d="M 113.31354834802062 83.75963576809568 l 1.7403158902438463 -2.122902414691943 a23.74507086614173,23.74507086614173 0 0,0 0.313011669185368,0.26112546708022133 l -1.776501893591107 2.0927147636998513" fill="#ff0d01" stroke="none" /><path d="M 113.86319453409587 84.22622945171908 l 19.65236476900897 -22.360783572289698 a50.76944881889764,50.76944881889764 0 0,0 0.6496917365018315,0.5809583569779858 l -20.033321532334178 22.020129685428326" fill="#95ff23" stroke="none" /><path d="M 114.13192950727249 84.46653392183569 l 1.5982910240485997 -1.75680181480647 a23.375055118110236,23.375055118110236 0 0,0 0.29449255610224284,0.27257791340965715 l -1.6282133514648076 1.7291061552644378" fill="#ff0701" stroke="none" /><path d="M 114.65682725009322 84.96080404539774 l 1.56823105515058 -1.609143216199962 a23.246929133858266,23.246929133858266 0 0,0 0.28340008049685184,0.28097787214147546 l -1.5956230557773945 1.581985333829827" fill="#ff0500" stroke="none" /><path d="M 115.16444852881244 85.47280134310134 l 2.5120105153509953 -2.4064492497294987 a24.47867716535433,24.47867716535433 0 0,0 0.2880839171081308,0.30593513672899664 l -2.5529502661953862 2.362972653056007" fill="#ff1702" stroke="none" /><path d="M 115.41159269507618 85.73525988315684 l 1.6743681314524592 -1.5497701456076243 a23.28151181102362,23.28151181102362 0 0,0 0.26895944253482446,0.2956335421052504 l -1.7007252748291612 1.5207990279447021" fill="#ff0600" stroke="none" /><path d="M 115.6541949942343 86.00192230759917 l 2.912912882706655 -2.604744661628476 a24.907653543307088,24.907653543307088 0 0,0 0.2822736174314145,0.32117556038368966 l -2.9571975640966595 2.554356823433489" fill="#ff1e03" stroke="none" /><path d="M 116.1254893667686 86.54754324733833 l 3.0550274703134246 -2.548612571552632 a24.97851968503937,24.97851968503937 0 0,0 0.27185333927268107,0.3316168711780094 l -3.098327628824733 2.4957934186761275" fill="#ff1f03" stroke="none" /><path d="M 116.57777611688842 87.10902102172516 l 7.515904958784748 -5.844413155495751 a30.520818897637795,30.520818897637795 0 0,0 0.3180676602512066,0.41636077737789084 l -7.615124596390261 5.714531464876978" fill="#ff6d0a" stroke="none" /><path d="M 116.7966241395341 87.39550010848427 l 18.019735793411364 -13.52234567889162 a43.5291968503937,43.5291968503937 0 0,0 0.44337177597320504,0.6015189661227338 l -18.249209588968395 13.211020403500012" fill="#e8ff1a" stroke="none" /><path d="M 117.21940702142032 87.97951657250589 l 1.7255821515458873 -1.204590357242515 a23.10444094488189,23.10444094488189 0 0,0 0.22423438998624567,0.3271646763158675 l -1.7460062783474581 1.1747909458565986" fill="#ff0300" stroke="none" /><line stroke="#e1ed5e" stroke-width="0.3" x1="172.87174338648825" x2="177.1583165268699" y1="56.24261187166439" y2="53.66864786411523" /><path d="M 173.72905801456457 55.72781907015455 a86.0,86.0 0 0,1 12.242430191666344,42.057860355516425" fill="none" id="id39" stroke="none" /><text fill="#e1ed5e" style="font-size:6.75px; font-family:Arial;" text-anchor="middle"><textPath startOffset="22.145653131862474" xlink:href="#id39">March</textPath></text><path d="M 118.18653347947321 89.5 l 11.83937192325805 -6.835464566929135 a34.670929133858266,34.670929133858266 0 0,0 0.29316191513721673,0.517989013815299 l -11.954967203416643 6.631218783014718" fill="#ffa50f" stroke="none" /><path d="M 118.36410011445183 89.81374322990088 l 4.819202587515359 -2.673130438061916 a26.510929133858266,26.510929133858266 0 0,0 0.21733236840056347,0.39986707920223463 l -4.864380305531263 2.590008525385078" fill="#ff3505" stroke="none" /><path d="M 118.53625476483649 90.13048839642627 l 3.3394449529091252 -1.7780663424391083 a24.783307086614172,24.783307086614172 0 0,0 0.19672272930736462,0.37724177231100636 l -3.3694757511914344 1.7204783270236037" fill="#ff1c02" stroke="none" /><path d="M 118.70294669586156 90.45014215332178 l 3.6912758329236035 -1.8847917416724116 a25.144629921259842,25.144629921259842 0 0,0 0.19299112537940077,0.3861115303884801 l -3.723086871514741 1.821148355120181" fill="#ff2103" stroke="none" /><path d="M 118.8641267826498 90.77261029715802 l 7.783478759156594 -3.807289496198041 a29.66475590551181,29.66475590551181 0 0,0 0.21983101554542053,0.45936227379823 l -7.847689032661926 3.673114720334707" fill="#ff6109" stroke="none" /><path d="M 119.16976305983485 91.42560881287824 l 8.17196864495385 -3.6552176316430334 a29.952188976377954,29.952188976377954 0 0,0 0.20590863083875147,0.4711592434352055 l -8.233511157809572 3.5143963184319786" fill="#ff6509" stroke="none" /><path d="M 119.58574465831526 92.42381321644754 l 8.953835771714127 -3.4635360267989355 a30.600377952755906,30.600377952755906 0 0,0 0.18530614948912552,0.49154657721485373 l -9.011972605017693 3.309321169389924" fill="#ff6e0a" stroke="none" /><path d="M 119.71291397450082 92.76114493625339 l 17.3470095094577 -6.370062172991257 a39.47962204724409,39.47962204724409 0 0,0 0.228154296113473,0.6381881723967922 l -17.453803975615116 6.071339044213548" fill="#ffe415" stroke="none" /><path d="M 119.83427380445688 93.10060997987247 l 13.546742076136498 -4.712260101216098 a35.34292913385826,35.34292913385826 0 0,0 0.19441064568073413,0.5747405294471888 l -13.625638143389596 4.479017897294748" fill="#ffae10" stroke="none" /><path d="M 119.94978838288452 93.4421083053983 l 12.64453044024032 -4.156508307994428 a34.31017322834646,34.31017322834646 0 0,0 0.17912407588672882,0.5611036164774728 l -12.714019231904306 3.938835657825568" fill="#ffa10e" stroke="none" /><path d="M 120.05942366710727 93.78553927170692 l 32.80124178535339 -10.161908552167302 a55.33927559055118,55.33927559055118 0 0,0 0.27333301488501943,0.9098367098070039 l -32.97085112024204 9.597334238769575" fill="#63ff29" stroke="none" /><path d="M 120.16314734710363 94.1308016681162 l 14.383014866659693 -4.18668600737995 a35.97996850393701,35.97996850393701 0 0,0 0.16753217025828596,0.5945125699564429 l -14.452765528992561 3.9391655135204937" fill="#ffb710" stroke="none" /><path d="M 120.26092885502905 94.47779374421319 l 22.743838453659293 -6.19893430790204 a44.57348031496063,44.57348031496063 0 0,0 0.1948721128598414,0.7399611536071697 l -22.846900047323867 5.807592649922072" fill="#dcff1b" stroke="none" /><path d="M 120.35273937422433 94.82641323984039 l 2.3168697690343114 -0.5889392352397671 a23.390551181102364,23.390551181102364 0 0,0 0.09558100252369905,0.39000310739377325 l -2.3266382980743017 0.5490803032378989" fill="#ff0701" stroke="none" /><path d="M 120.43855184770803 95.1765574152323 l 5.297010512611847 -1.2500800579645441 a26.442519685039372,26.442519685039372 0 0,0 0.10046789828160656,0.44268009740006076 l -5.31768927245112 1.158965626625457" fill="#ff3404" stroke="none" /><path d="M 120.592083275326 95.88100663000786 l 26.561888042911175 -5.3131215176426805 a48.088062992125984,48.088062992125984 0 0,0 0.1549665485545886,0.8108504646680098 l -26.64918088374792 4.856368487941356" fill="#b3ff20" stroke="none" /><path d="M 120.65975698304385 96.23510406497455 l 24.535332182760666 -4.471154838616367 a45.93940157480315,45.93940157480315 0 0,0 0.1347231633467519,0.7770474048966084 l -24.60847016359965 4.049314400799166" fill="#ccff1d" stroke="none" /><path d="M 120.7213421655516 96.59031103205396 l 14.488996435974727 -2.3841588498298636 a35.683842519685044,35.683842519685044 0 0,0 0.0942707779888216,0.6052860199813881 l -14.527788706101814 2.1350846479170342" fill="#ffb310" stroke="none" /><path d="M 120.82617615685814 97.30363454192243 l 23.723193309008526 -3.071442328727407 a44.9211968503937,44.9211968503937 0 0,0 0.09244763859966589,0.765599066329713 l -23.772423033867856 2.663749585474281" fill="#d8ff1c" stroke="none" /><path d="M 120.86939407059847 97.66154086499901 l 12.388485482664553 -1.3881556382404938 a33.466015748031495,33.466015748031495 0 0,0 0.05907167318811495,0.5714648525929664 l -12.410489548334333 1.175286263364596" fill="#ff950d" stroke="none" /><path d="M 120.9064616781168 98.02013634271609 l 5.3110408384543275 -0.5029610892699654 a26.334803149606298,26.334803149606298 0 0,0 0.0387577791582122,0.450424143468748 l -5.318892240310281 0.41171589842555545" fill="#ff3204" stroke="none" /><path d="M 120.93736805541906 98.37931529534042 l 5.243903961470625 -0.40591133138434504 a26.259590551181102,26.259590551181102 0 0,0 0.030931345317308546,0.4497349724165236 l -5.250099267953 0.3158329348134873" fill="#ff3104" stroke="none" /><path d="M 120.96210409425399 98.7389718711861 l 7.993423271037236 -0.4808644945645847 a29.00787401574803,29.00787401574803 0 0,0 0.025635239760774756,0.4973168028496904 l -8.000500100254584 0.3435758983381637" fill="#ff5808" stroke="none" /><path d="M 120.98066250479742 99.09900007780936 l 18.62705225701515 -0.79992577118926 a39.64422047244094,39.64422047244094 0 0,0 0.023362363672019895,0.6801697277361589 l -18.638039307684018 0.4800497788889812" fill="#ffe615" stroke="none" /><path d="M 120.99303781780057 99.45929381324524 l 4.703385039818049 -0.1211425145703784 a25.704944881889762,25.704944881889762 0 0,0 0.007575086174004494,0.44121079321534895 l -4.704771557590719 0.040384805385963084" fill="#ff2904" stroke="none" /><line stroke="#e1ed5e" stroke-width="0.3" x1="184.99686870605535" x2="189.99668451229388" y1="99.2704041080226" y2="99.22748670261217" /><path d="M 185.99683186730306 99.26182062694052 a86.0,86.0 0 0,1 -10.086455211305974,41.156179273409016" fill="none" id="id40" stroke="none" /><text fill="#e1ed5e" style="font-size:6.75px; font-family:Arial;" text-anchor="middle"><textPath startOffset="21.40746469413373" xlink:href="#id40">April</textPath></text><path d="M 120.99922638620191 99.81974689727618 l 33.7314187481648 -0.28954366112403845 a54.73266141732284,54.73266141732284 0 0,0 0.0,0.9395935276957266 l -33.7314187481648 -0.28954366112403435" fill="#6aff28" stroke="none" /><path d="M 120.99922638620191 100.18025310272382 l 14.867924704971701 0.12762325191638135 a35.868472440944885,35.868472440944885 0 0,0 -0.010570214054860298,0.6156619767055699 l -14.863543059318172 -0.3828321445910222" fill="#ffb510" stroke="none" /><path d="M 120.99303781780057 100.54070618675476 l 22.54099688982809 0.5805761214613323 a43.54847244094488,43.54847244094488 0 0,0 -0.02566314177456797,0.7471543718226148 l -22.527709061056676 -0.9674367578480577" fill="#e8ff1a" stroke="none" /><path d="M 120.98066250479742 100.90099992219065 l 7.331384528448042 0.31484119665768184 a28.338141732283464,28.338141732283464 0 0,0 -0.025043374681216545,0.4858347784242878 l -7.324899564310253 -0.44064776845870024" fill="#ff4f07" stroke="none" /><path d="M 120.93736805541906 101.62068470465957 l 22.997850008661466 1.7801790392391603 a44.06664566929133,44.06664566929133 0 0,0 -0.06485430369048022,0.7537053160554327 l -22.963902082273243 -2.1747054026702504" fill="#e2ff1b" stroke="none" /><path d="M 120.9064616781168 101.97986365728391 l 18.25771410586747 1.7290245082994335 a39.33940157480315,39.33940157480315 0 0,0 -0.06943892845623481,0.6717586428961969 l -18.225342784929573 -2.042187673478562" fill="#ffe215" stroke="none" /><path d="M 120.86939407059847 102.33845913500097 l 2.4149339784371273 0.27059838935412933 a23.43004724409449,23.43004724409449 0 0,0 -0.048218940987013376,0.39932200279260394 l -2.40993295119045 -0.31201406907014184" fill="#ff0801" stroke="none" /><path d="M 120.7213421655516 103.40968896794604 l 2.3116533527679928 0.3803816795107042 a23.342740157480314,23.342740157480314 0 0,0 -0.06845556727760839,0.39483352069816086 l -2.30478296799815 -0.42000823312945307" fill="#ff0701" stroke="none" /><path d="M 120.65975698304385 103.76489593502545 l 8.077988219691832 1.4720785455735048 a29.211023622047243,29.211023622047243 0 0,0 -0.09413420355892226,0.4925499303484851 l -8.05152772385075 -1.6105310409553044" fill="#ff5b08" stroke="none" /><path d="M 120.592083275326 104.11899336999214 l 5.087564871307764 1.017655459825728 a26.188346456692912,26.188346456692912 0 0,0 -0.09196136273529422,0.44006841107642747 l -5.069345797748105 -1.1048403221875644" fill="#ff3004" stroke="none" /><path d="M 120.51834098615036 104.47187691870673 l 6.2368370918352065 1.3592896158387024 a27.38324409448819,27.38324409448819 0 0,0 -0.10404216447882839,0.4584289737613915 l -6.212584065798714 -1.4661529235391109" fill="#ff4106" stroke="none" /><path d="M 120.43855184770803 104.8234425847677 l 4.400932900895008 1.038608181492209 a25.521826771653544,25.521826771653544 0 0,0 -0.10429005157610524,0.4255389994978837 l -4.382455322802607 -1.1140030055981924" fill="#ff2703" stroke="none" /><path d="M 119.94978838288452 106.5578916946017 l 4.864786192120628 1.5991518482818141 a26.12088188976378,26.12088188976378 0 0,0 -0.14368298379305283,0.42477321079107416 l -4.83661778675521 -1.6824267335470489" fill="#ff2f04" stroke="none" /><path d="M 119.83427380445688 106.89939002012753 l 3.746245875201311 1.3031387818443803 a24.966425196850395,24.966425196850395 0 0,0 -0.14428195792858928,0.4035823151648229 l -3.7233237472287786 -1.3672560533901246" fill="#ff1e03" stroke="none" /><path d="M 119.58574465831526 107.57618678355244 l 10.19551470190833 3.9438441112995135 a31.93171653543307,31.93171653543307 0 0,0 -0.20214498603936126,0.5095374156975445 l -10.126311040902845 -4.118282544210622" fill="#ff810b" stroke="none" /><path d="M 119.4528033332814 107.91128576633889 l 3.4383978679173275 1.398366479391931 a24.71187401574803,24.71187401574803 0 0,0 -0.16318563138355363,0.3915861096773221 l -3.4138863919972886 -1.457185098510531" fill="#ff1b02" stroke="none" /><path d="M 119.31412917781788 108.2440532568976 l 2.1136479183931907 0.9021906110878005 a23.298141732283465,23.298141732283465 0 0,0 -0.16016487038610908,0.36648856751959696 l -2.097849165990116 -0.9383412483832422" fill="#ff0601" stroke="none" /><path d="M 119.16976305983485 108.57439118712176 l 4.414263819465592 1.9744440592779195 a25.835716535433072,25.835716535433072 0 0,0 -0.18455994485314614,0.40329678727110035 l -4.37971940975739 -2.049929828763709" fill="#ff2b04" stroke="none" /><path d="M 119.0197475246899 108.90220220490707 l 17.952245474642737 8.402557344146619 a40.82135433070866,40.82135433070866 0 0,0 -0.3025071167631544,0.6321235274817619 l -17.80535909991967 -8.709493373693483" fill="#fff417" stroke="none" /><path d="M 118.8641267826498 109.22738970284198 l 9.332162031490581 4.564828090205034 a31.388787401574803,31.388787401574803 0 0,0 -0.2409165465506814,0.48199447669793466 l -9.252425571728168 -4.724354423066715" fill="#ff790b" stroke="none" /><path d="M 118.70294669586154 109.54985784667822 l 1.952175286616857 0.9967946111461939 a23.191937007874017,23.191937007874017 0 0,0 -0.18409089352637417,0.35301856163098305 l -1.9347763241155336 -1.0301594158816798" fill="#ff0400" stroke="none" /><line stroke="#e1ed5e" stroke-width="0.3" x1="174.33088141563837" x2="178.70328620479359" y1="141.23008692659167" y2="143.65538615756765" /><path d="M 175.20536237346943 141.71514677278685 a86.0,86.0 0 0,1 -30.301960400862466,31.631185727798858" fill="none" id="id41" stroke="none" /><text fill="#e1ed5e" style="font-size:6.75px; font-family:Arial;" text-anchor="middle"><textPath startOffset="22.145653131862474" xlink:href="#id41">May</textPath></text><path d="M 118.36410011445183 110.18625677009912 l 55.092300343355504 30.558770310297355 a84.0,84.0 0 0,0 -0.7102665399144867,1.254972919603509 l -54.559600438419636 -31.499999999999986" fill="#4dd2ff" stroke="none" /><path d="M 117.81537515405839 111.11811171558189 l 9.162834209719259 5.718286227152911 a31.80075590551181,31.80075590551181 0 0,0 -0.292994460030478,0.46063595625419806 l -9.063322058062893 -5.8747358580857805" fill="#ff7f0b" stroke="none" /><path d="M 117.01052211995028 112.31430620078461 l 7.53575697136587 5.455306906262546 a30.30311811023622,30.30311811023622 0 0,0 -0.3086559887662977,0.41875112786050345 l -7.440998963015744 -5.583864343391927" fill="#ff6a09" stroke="none" /><path d="M 116.79662413953412 112.60449989151573 l 7.495715524892112 5.624924671497472 a30.371527559055117,30.371527559055117 0 0,0 -0.3165118452870696,0.4143241656475065 l -7.398051702250737 -5.7527697503858555" fill="#ff6b09" stroke="none" /><path d="M 116.57777611688842 112.89097897827486 l 12.689513739290401 9.867442635509901 a37.07451968503938,37.07451968503938 0 0,0 -0.3949911724468355,0.4990584430430059 l -12.518256136202005 -10.083821022467589" fill="#ffc512" stroke="none" /><path d="M 116.35404254752997 113.17365903436017 l 7.325286549411065 5.9007323143782004 a30.406299212598427,30.406299212598427 0 0,0 -0.3309264952486374,0.403676516307874 l -7.2229132349238006 -6.025611112384568" fill="#ff6c09" stroke="none" /><path d="M 116.1254893667686 113.45245675266167 l 6.428719279429314 5.36306626822423 a29.37203149606299,29.37203149606299 0 0,0 -0.32631688708913126,0.3844004724788549 l -6.335707828833068 -5.472633523152642" fill="#ff5d08" stroke="none" /><path d="M 115.89218393027572 113.72728997021213 l 5.528120313384099 4.775058661854215 a28.30488188976378,28.30488188976378 0 0,0 -0.32077374884394205,0.36498164255950066 l -5.445335500581571 -4.869252582225009" fill="#ff4e07" stroke="none" /><path d="M 115.6541949942343 113.99807769240083 l 4.221314800424973 3.7747257244587917 a26.662866141732284,26.662866141732284 0 0,0 -0.3080225061014023,0.338570691806457 l -4.155894593481691 -3.8466339918229204" fill="#ff3705" stroke="none" /><path d="M 115.16444852881244 114.52719865689866 l 5.414578076276445 5.187043314361529 a28.498204724409447,28.498204724409447 0 0,0 -0.3414535453413258,0.3503614179357391 l -5.324737729784312 -5.279227424365005" fill="#ff5107" stroke="none" /><path d="M 114.91283532996324 114.78537596483092 l 2.2513181146948353 2.2320761951496393 a24.170267716535434,24.170267716535434 0 0,0 -0.2946563727645207,0.29213795736102527 l -2.21266982180035 -2.270394162739326" fill="#ff1302" stroke="none" /><path d="M 114.65682725009322 115.03919595460226 l 11.823987333985208 12.13245264109992 a37.94116535433071,37.94116535433071 0 0,0 -0.4703394885745742,0.45057459054477444 l -11.613975359545321 -12.333639361950274" fill="#ffd013" stroke="none" /><path d="M 114.39649973595853 115.28858382429668 l 6.486036079016997 6.887945549277061 a30.461102362204727,30.461102362204727 0 0,0 -0.38376670561891224,0.35520873341661857 l -6.366839602084117 -6.99827202882606" fill="#ff6c0a" stroke="none" /><path d="M 114.13192950727249 115.5334660781643 l 10.209325541901784 11.221837181147626 a36.171023622047244,36.171023622047244 0 0,0 -0.46287709823056333,0.4139075554795979 l -10.015183416847842 -11.395440266510612" fill="#ffb911" stroke="none" /><path d="M 113.31354834802062 116.24036423190432 l 6.283515592428685 7.664867337418999 a30.91124409448819,30.91124409448819 0 0,0 -0.4132527603280147,0.332887171092242 l -6.151012061745417 -7.771602802304644" fill="#ff730a" stroke="none" /><path d="M 112.7482090630111 116.68781488649013 l 4.3072599098296065 5.638341486867567 a28.095307086614174,28.095307086614174 0 0,0 -0.3857713249552077,0.2894899941294186 l -4.209835595963632 -5.7114505082610005" fill="#ff4b07" stroke="none" /><path d="M 112.45986205192187 116.90419585922612 l 8.840251102449278 11.993498439855697 a35.89946456692913,35.89946456692913 0 0,0 -0.49920597004524697,0.36138662464611293 l -8.633064122030063 -12.143485835874888" fill="#ffb610" stroke="none" /><path d="M 111.8722381534696 117.32195027204791 l 1.9160109700276604 2.7955172659519216 a24.389102362204724,24.389102362204724 0 0,0 -0.34737481173893225,0.2337292761832351 l -1.8677398701917247 -2.8279962161922776" fill="#ff1602" stroke="none" /><path d="M 111.5731344415666 117.5232005979908 l 2.706212809575777 4.097551113959873 a25.910551181102363,25.910551181102363 0 0,0 -0.3732530480201701,0.2419381162112846 l -2.635474129298597 -4.143403071875052" fill="#ff2c04" stroke="none" /><path d="M 110.96478420261333 117.91015095944535 l 2.2283796304325705 3.6398906570808895 a25.26784251968504,25.26784251968504 0 0,0 -0.3718791635857072,0.22330275277698286 l -2.1655677102894266 -3.677607410393796" fill="#ff2303" stroke="none" /><line stroke="#e1ed5e" stroke-width="0.3" x1="143.1302829299769" x2="145.66735839644613" y1="173.24464959558577" y2="177.55315839532614" /><path d="M 143.63769802327073 174.10635135553383 a86.0,86.0 0 0,1 -40.68552437913181,11.842963189579606" fill="none" id="id42" stroke="none" /><text fill="#e1ed5e" style="font-size:6.75px; font-family:Arial;" text-anchor="middle"><textPath startOffset="21.407464694133747" xlink:href="#id42">June</textPath></text><path d="M 110.65571695917076 118.09573695890943 l 8.205261644060672 13.934328113150773 a37.17070866141732,37.17070866141732 0 0,0 -0.5526178675743434,0.31905407460304536 l -7.96485130862593 -14.07312908502999" fill="#ffc612" stroke="none" /><path d="M 110.34350942703117 118.27599006163325 l 6.76076907737216 11.945631155335612 a34.72611023622047,34.72611023622047 0 0,0 -0.5213146702238401,0.28916445977881616 l -6.554710218992225 -12.059928530547571" fill="#ffa60f" stroke="none" /><path d="M 110.02825361518725 118.45085714620011 l 1.8033259121915586 3.3179165656019514 a24.77631496062992,24.77631496062992 0 0,0 -0.37543335828892255,0.19989711692085033 l -1.7461037381160822 -3.34838415024537" fill="#ff1c02" stroke="none" /><path d="M 109.71004243097381 118.62028667847754 l 1.2815945316993738 2.4576264991066834 a23.77171653543307,23.77171653543307 0 0,0 -0.36345005107946055,0.18558018576531457 l -1.2392172589063308 -2.4792646365448343" fill="#ff0d01" stroke="none" /><path d="M 109.3889696526874 118.78422872680471 l 2.5442523568177764 5.090209040722341 a26.69064566929134,26.69064566929134 0 0,0 -0.41159485907513016,0.20133167085505826 l -2.456497248480577 -5.133134461674623" fill="#ff3705" stroke="none" /><path d="M 108.4095320186766 119.2426549942271 l 3.836789861389456 8.779326058108563 a30.581102362204724,30.581102362204724 0 0,0 -0.48283909075855996,0.20609529645774546 l -3.685515695460465 -8.843896004225712" fill="#ff6e0a" stroke="none" /><path d="M 108.07796709384702 119.3841803445677 l 3.6643621438356324 8.79313518100619 a30.52611023622047,30.52611023622047 0 0,0 -0.48543134907593544,0.19742070367352765 l -3.512876333569256 -8.854743141259009" fill="#ff6d0a" stroke="none" /><path d="M 106.72888874123015 119.89276391827305 l 0.6144860557570617 1.8166188368291103 a22.917732283464566,22.917732283464566 0 0,0 -0.37375248627443264,0.12285986590607804 l -0.5832108318348949 -1.8268996241372075" fill="#ff0000" stroke="none" /><path d="M 106.38641147887787 120.00534299687104 l 0.828437538519906 2.5950687901002993 a23.724094488188975,23.724094488188975 0 0,0 -0.38902924588793053,0.12052225481893243 l -0.7837676597603511 -2.608907632725876" fill="#ff0c01" stroke="none" /><path d="M 106.0420521117495 120.11202640906438 l 3.5591696849054895 11.847318323845714 a33.3703937007874,33.3703937007874 0 0,0 -0.5500394124957837,0.16010845661723117 l -3.3552702600280986 -11.906670474765464" fill="#ff940d" stroke="none" /><path d="M 105.69591212413111 120.21278271476187 l 3.6850565242050117 13.076965583757838 a34.58626771653543,34.58626771653543 0 0,0 -0.5728451040029969,0.15613148042504624 l -3.46003001926732 -13.138297558327025" fill="#ffa40f" stroke="none" /><path d="M 104.29559338865022 120.5559693870025 l 1.703432295681881 8.15154018427032 a29.32762204724409,29.32762204724409 0 0,0 -0.4936865459390727,0.09875113568591407 l -1.5632492642118496 -8.179580716619096" fill="#ff5d08" stroke="none" /><path d="M 103.58742460773223 120.69131181640829 l 0.9866587922260542 5.690785719189083 a26.77568503937008,26.77568503937008 0 0,0 -0.4535577876032963,0.0746327613511398 l -0.8888235015696857 -5.706884479035893" fill="#ff3905" stroke="none" /><path d="M 103.2317021107853 120.74984581791261 l 3.3003058028378818 21.190330733858232 a42.445795275590555,42.445795275590555 0 0,0 -0.7209214070151935,0.1059506205391345 l -2.936059290215003 -21.24386242769625" fill="#f6ff19" stroke="none" /><path d="M 102.51750503828377 120.84855314841334 l 0.9151598067627538 7.578836022346955 a28.63388976377953,28.63388976377953 0 0,0 -0.48849974761345594,0.054737415633055286 l -0.7849241575484985 -7.593429198486982" fill="#ff5307" stroke="none" /><path d="M 102.15924093988457 120.88869738790638 l 0.44737334893050373 4.327931326516592 a25.350992125984252,25.350992125984252 0 0,0 -0.43326105441137086,0.041030272312576936 l -0.37301273113411765 -4.334973354334353" fill="#ff2403" stroke="none" /><path d="M 101.80034050326958 120.92268563240118 l 0.7421534138517544 8.624947636757398 a29.656818897637795,29.656818897637795 0 0,0 -0.5075990584831779,0.03929137740740833 l -0.5939853605933407 -8.636416781159861" fill="#ff6109" stroke="none" /><path d="M 101.08105385017728 120.97215588758144 l 0.5104325261188011 9.90225464355915 a30.91540157480315,30.91540157480315 0 0,0 -0.5302348213297448,0.022770564687915554 l -0.34037194418822675 -9.909557776672896" fill="#ff730a" stroke="none" /><path d="M 100.72087961077811 120.9876233191556 l 0.3895961015478157 11.342665409930518 a32.349354330708664,32.349354330708664 0 0,0 -0.5551560285331107,0.014298850021008589 l -0.1948267589439611 -11.347681977301571" fill="#ff860c" stroke="none" /><line stroke="#e1ed5e" stroke-width="0.3" x1="101.45913802915013" x2="101.54496967792366" y1="184.9874750549273" y2="189.98673829345242" /><path d="M 101.47630435890484 185.9873277026323 a86.0,86.0 0 0,1 -42.54439059252881,-10.42667462771756" fill="none" id="id43" stroke="none" /><text fill="#e1ed5e" style="font-size:6.75px; font-family:Arial;" text-anchor="middle"><textPath startOffset="22.145653131862474" xlink:href="#id43">July</textPath></text><path d="M 99.63950707515114 120.99690560180557 l -0.26910857665544496 15.674225459597578 a36.67653543307087,36.67653543307087 0 0,0 -0.6294159550519687,-0.016211522310036395 l 0.5381378457781576 -15.667296219937494" fill="#ffc011" stroke="none" /><path d="M 99.27912038922189 120.98762331915562 l -0.26386950774362405 7.682272811068379 a28.6868031496063,28.6868031496063 0 0,0 -0.4920117859620434,-0.021129103085631443 l 0.3957070543065062 -7.676611139556918" fill="#ff5407" stroke="none" /><path d="M 98.91894614982273 120.97215588758144 l -0.37469399409158716 7.268963385071649 a28.27861417322835,28.27861417322835 0 0,0 -0.4845818582906511,-0.029151241271858745 l 0.4994202045146846 -7.261460165975098" fill="#ff4e07" stroke="none" /><path d="M 98.19965949673042 120.92268563240118 l -1.2983350964366362 15.08862185732282 a36.1443779527559,36.1443779527559 0 0,0 -0.6177253823057677,-0.05849923595101502 l 1.5571600421274192 -15.064110865866622" fill="#ffb911" stroke="none" /><path d="M 97.48249496171623 120.84855314841334 l -1.1748507876747627 9.72944987827732 a30.800125984251967,30.800125984251967 0 0,0 -0.5243680060917959,-0.0678899366017952 l 1.3416966156573527 -9.707848345475128" fill="#ff710a" stroke="none" /><path d="M 97.12497278360702 120.80226474461374 l -1.025592385917066 7.420675606220321 a28.491212598425196,28.491212598425196 0 0,0 -0.48390953545963356,-0.07111803737251468 l 1.1528270269843843 -7.401976495548924" fill="#ff5107" stroke="none" /><path d="M 96.05791012581884 120.62667999033965 l -3.9686601807347066 20.765707061770605 a42.141543307086614,42.141543307086614 0 0,0 -0.70938969829545,-0.14189780727629744 l 4.324546364561114 -20.694519857831448" fill="#f9ff18" stroke="none" /><path d="M 95.70440661134978 120.55596938700252 l -1.9363317347515536 9.266048310764724 a30.466204724409447,30.466204724409447 0 0,0 -0.511016301281554,-0.11137362442345343 l 2.095110452652244 -9.231443228207551" fill="#ff6c0a" stroke="none" /><path d="M 95.00130118170881 120.39639698878247 l -1.3519540425983498 5.516433849249555 a26.679685039370078,26.679685039370078 0 0,0 -0.44389241576999805,-0.11283571626094549 l 1.4464517515937267 -5.4924129011533465" fill="#ff3705" stroke="none" /><path d="M 94.6519064749342 120.30758222061772 l -1.997648288309845 7.5853959308292485 a28.84403149606299,28.84403149606299 0 0,0 -0.4777376488741028,-0.13020952060559557 l 2.127567338118643 -7.549985916079509" fill="#ff5607" stroke="none" /><path d="M 94.30408787586889 120.21278271476187 l -2.56360895287665 9.097343779336919 a30.45165354330709,30.45165354330709 0 0,0 -0.5019302371638055,-0.14610457682872965 l 2.7193992024220623 -9.051995508205673" fill="#ff6c0a" stroke="none" /><path d="M 89.97174638481275 118.45085714620012 l -4.086925081886166 7.51948183070516 a29.55836220472441,29.55836220472441 0 0,0 -0.4437354987441127,-0.24613260111005592 l 4.215404768786382 -7.4482163141619555" fill="#ff6008" stroke="none" /><line stroke="#e1ed5e" stroke-width="0.3" x1="58.13341422392154" x2="55.67067388415222" y1="173.97424548756322" y2="178.32567169271397" /><path d="M 57.64086615596768 174.84453072859336 a86.0,86.0 0 0,1 -31.369924170532247,-30.572349798747897" fill="none" id="id44" stroke="none" /><text fill="#e1ed5e" style="font-size:6.75px; font-family:Arial;" text-anchor="middle"><textPath startOffset="22.145653131862474" xlink:href="#id44">August</textPath></text><path d="M 89.65649057296885 118.27599006163327 l -10.552846234242784 18.64586814171077 a42.42500787401575,42.42500787401575 0 0,0 -0.6307336671118842,-0.36415425249400885 l 10.871372369215068 -18.461966991940592" fill="#f6ff19" stroke="none" /><path d="M 89.03521579738668 117.91015095944536 l -7.692468312440379 12.565068876934257 a35.732787401574804,35.732787401574804 0 0,0 -0.5203984840825053,-0.3247671425729504 l 7.907030925312597 -12.431165937519758" fill="#ffb310" stroke="none" /><path d="M 88.72937992617639 117.7192867562869 l -11.148608321753331 17.527464016419067 a41.77266141732284,41.77266141732284 0 0,0 -0.6017538217906393,-0.3900495571012751 l 11.447847775800978 -17.333500617613897" fill="#feff18" stroke="none" /><path d="M 88.4268655584334 117.5232005979908 l -3.4432483321221583 5.213516833932703 a27.247937007874015,27.247937007874015 0 0,0 -0.3880932905120994,-0.2611264859097941 l 3.532237910731263 -5.153640673965787" fill="#ff3f05" stroke="none" /><path d="M 88.1277618465304 117.32195027204791 l -6.745033823002469 9.841205925538567 a32.93083464566929,32.93083464566929 0 0,0 -0.46354839871451803,-0.3235927832856155 l 6.912977312890753 -9.723968326447823" fill="#ff8e0d" stroke="none" /><path d="M 87.83215693770417 117.11559508785305 l -6.805670350451608 9.573027645358096 a32.74563779527559,32.74563779527559 0 0,0 -0.4553499077922308,-0.32963821765801216 l 6.9690012686177925 -9.454788656327016" fill="#ff8c0c" stroke="none" /><path d="M 87.54013794807813 116.9041958592261 l -5.6028734014356445 7.601373832040753 a30.44314960629921,30.44314960629921 0 0,0 -0.41800910462470275,-0.31368182499800695 l 5.732535494971113 -7.504072979778731" fill="#ff6c0a" stroke="none" /><path d="M 87.2517909369889 116.68781488649013 l -2.9858055098581775 3.908515258048849 a25.918488188976376,25.918488188976376 0 0,0 -0.35124495184152227,-0.273130199038065 l 3.052460406334928 -3.8566840073899904" fill="#ff2c04" stroke="none" /><path d="M 86.96720088162412 116.46651593811092 l -9.84288592853826 12.436164828993451 a36.860031496062994,36.860031496062994 0 0,0 -0.49278216415240333,-0.39695042922206053 l 10.054918863045925 -12.265366105977979" fill="#ffc212" stroke="none" /><path d="M 86.68645165197938 116.24036423190432 l -3.602715071975955 4.394726594534039 a26.682708661417323,26.682708661417323 0 0,0 -0.35173612340767063,-0.29343078407540674 l 3.677625529545518 -4.332233626546762" fill="#ff3705" stroke="none" /><path d="M 86.40962598614128 116.0094264158162 l -4.119243892326565 4.852458947469256 a27.365102362204723,27.365102362204723 0 0,0 -0.3555124506094862,-0.3070831874931919 l 4.201935822698913 -4.781031627511343" fill="#ff4106" stroke="none" /><path d="M 85.86807049272751 115.53346607816431 l -10.442430844820393 11.478060743093863 a36.517417322834646,36.517417322834646 0 0,0 -0.4600676881964598,-0.4258317837828723 l 10.637928304330819 -11.297111213178614" fill="#ffbe11" stroke="none" /><path d="M 85.60350026404147 115.28858382429668 l -3.675657957332871 3.903421374694673 a26.36163779527559,26.36163779527559 0 0,0 -0.3267933159887175,-0.3130606043533153 l 3.742123759186903 -3.8397486400357748" fill="#ff3304" stroke="none" /><path d="M 85.34317274990678 115.03919595460226 l -12.722983370310383 13.054901771597734 a39.22922834645669,39.22922834645669 0 0,0 -0.4782380677980773,-0.4741505875064391 l 12.945213358238423 -12.834571173862637" fill="#ffe015" stroke="none" /><path d="M 85.08716467003676 114.78537596483092 l -11.625502918329683 11.526140242585718 a37.37083464566929,37.37083464566929 0 0,0 -0.4477616785171908,-0.45944292780955387 l 11.821651397997684 -11.324874622708428" fill="#ffc912" stroke="none" /><path d="M 84.83555147118756 114.52719865689866 l -13.653530426576113 13.07977329330647 a39.907653543307084,39.907653543307084 0 0,0 -0.46966398869062376,-0.49876688028654625 l 13.87605024900299 -12.843464953075435" fill="#ffe915" stroke="none" /><path d="M 84.58840730492382 114.26474011684316 l -8.951690997492802 8.285551546292536 a33.197669291338585,33.197669291338585 0 0,0 -0.3835157569890315,-0.42155099900299514 l 9.092604455323713 -8.130662971731867" fill="#ff920d" stroke="none" /><path d="M 84.3458050057657 113.99807769240083 l -8.443756562019384 7.550459184544479 a32.32724409448819,32.32724409448819 0 0,0 -0.3663584012951484,-0.4168486091897407 l 8.572126027273125 -7.404398297543438" fill="#ff860c" stroke="none" /><path d="M 84.1078160697243 113.72728997021213 l -1.4947591130640416 1.2911373207528192 a22.975181102362203,22.975181102362203 0 0,0 -0.25524926931379815,-0.3006829974364952 l 1.516702945884952 -1.2652875408667696" fill="#ff0100" stroke="none" /><path d="M 83.8745106332314 113.45245675266167 l -7.244244590936532 6.043406488246357 a30.43407874015748,30.43407874015748 0 0,0 -0.331228833314523,-0.4040453195887734 l 7.346920243489685 -5.918158886959088" fill="#ff6c0a" stroke="none" /><path d="M 83.64595745247003 113.17365903436017 l -1.474770397019552 1.187970638320119 a22.893732283464566,22.893732283464566 0 0,0 -0.24390935427219232,-0.30817150123295484 l 1.4949461819333059 -1.1624791931724836" fill="#ff0000" stroke="none" /><path d="M 82.78059297857968 112.02048342749411 l -7.760625978436844 5.417519653535996 a30.464503937007876,30.464503937007876 0 0,0 -0.2956656459615306,-0.4313850135327534 l 7.852481361213699 -5.283499904933192" fill="#ff6c0a" stroke="none" /><path d="M 82.576782715395 111.72311816256416 l -12.56462869324086 8.45404292637484 a36.144,36.144 0 0,0 -0.34194902284044065,-0.5177544036815703 l 12.707902155002026 -8.237108644354208" fill="#ffb911" stroke="none" /><line stroke="#e1ed5e" stroke-width="0.3" x1="26.387840678322732" x2="22.057713659400548" y1="142.50000000000003" y2="145.00000000000006" /><path d="M 25.521815274538298 143.00000000000003 a86.0,86.0 0 0,1 -11.493303480769221,-40.785679425670985" fill="none" id="id45" stroke="none" /><text fill="#e1ed5e" style="font-size:6.75px; font-family:Arial;" text-anchor="middle"><textPath startOffset="21.40746469413373" xlink:href="#id45">September</textPath></text><path d="M 81.29705330413844 109.54985784667822 l -4.000116392535805 2.042487931986513 a25.49140157480315,25.49140157480315 0 0,0 -0.1956526818181541,-0.39143642617196006 l 4.034588987565696 -1.9735196496508" fill="#ff2603" stroke="none" /><path d="M 80.83023694016515 108.57439118712176 l -6.09464772916954 2.72605840846805 a27.676535433070867,27.676535433070867 0 0,0 -0.19026447522344164,-0.4353623538445713 l 6.14054608640995 -2.62103398484763" fill="#ff4506" stroke="none" /><path d="M 80.68587082218212 108.24405325689762 l -14.56472180852157 6.216813668164347 a36.836031496062986,36.836031496062986 0 0,0 -0.24324788373066447,-0.5837063696708001 l 14.669295536788722 -5.965874789052266" fill="#ffc212" stroke="none" /><path d="M 80.5471966667186 107.91128576633889 l -4.319616423415538 1.7567503943323166 a25.663181102362206,25.663181102362206 0 0,0 -0.16246177620630226,-0.4095098039269347 l 4.349136874587964 -1.6823395731918165" fill="#ff2903" stroke="none" /><path d="M 80.41425534168474 107.57618678355246 l -10.59859769883582 4.09976527372008 a32.363905511811026,32.363905511811026 0 0,0 -0.19598551109672455,-0.5198748526634955 l 10.66741389374698 -3.9172221408624397" fill="#ff860c" stroke="none" /><path d="M 80.28708602549918 107.23885506374661 l -2.071785127632803 0.7607881960809597 a23.207055118110237,23.207055118110237 0 0,0 -0.13411448871022358,-0.3751420941876024 l 2.0845397863869697 -0.7251111455124358" fill="#ff0500" stroke="none" /><path d="M 80.16572619554312 106.89939002012753 l -2.1514720939385694 0.7483936765139916 a23.277921259842522,23.277921259842522 0 0,0 -0.128044726714397,-0.37854148247421593 l 2.164002242225334 -0.711350519565614" fill="#ff0600" stroke="none" /><path d="M 80.05021161711548 106.5578916946017 l -2.980125868669363 0.9796265658527609 a24.137007874015747,24.137007874015747 0 0,0 -0.12601274850258828,-0.394733139903415 l 2.996503332949206 -0.9283243922579542" fill="#ff1202" stroke="none" /><path d="M 79.94057633289273 106.21446072829308 l -13.959192725318987 4.324593589018066 a35.61373228346457,35.61373228346457 0 0,0 -0.17590416051649918,-0.5855277406317807 l 14.031373205839115 -4.084328244795562" fill="#ffb210" stroke="none" /><path d="M 79.83685265289637 105.86919833188381 l -19.124915364020378 5.566984132963319 a40.91867716535433,40.91867716535433 0 0,0 -0.1905280931210476,-0.6761169876547326 l 19.217661949216 -5.237859221405591" fill="#fff617" stroke="none" /><path d="M 79.73907114497094 105.5222062557868 l -14.893264103694476 4.059225358865646 a36.436535433070866,36.436535433070866 0 0,0 -0.15929796360890444,-0.6048803145276034 l 14.960751548108114 -3.80296453996524" fill="#ffbd11" stroke="none" /><path d="M 79.56144815229197 104.8234425847677 l -2.193477339354473 0.5176546795585115 a23.253732283464565,23.253732283464565 0 0,0 -0.08835215545077697,-0.389295898982847 l 2.2020403563629163 -0.4799244466366382" fill="#ff0500" stroke="none" /><path d="M 79.34024301695615 103.76489593502545 l -6.225163579934671 1.1344321753736095 a27.32768503937008,27.32768503937008 0 0,0 -0.08014192717449257,-0.4622373390540924 l 6.243720324601398 -1.0274018033989243" fill="#ff4006" stroke="none" /><path d="M 79.2786578344484 103.40968896794605 l -3.6467697523661915 0.6000745749932137 a24.69581102362205,24.69581102362205 0 0,0 -0.06524222600123215,-0.4189018925429404 l 3.6565334705056913 -0.5373845005188232" fill="#ff1b02" stroke="none" /><path d="M 79.22317932658666 103.0534771498775 l -11.238647385186734 1.6516941415445336 a32.359370078740156,32.359370078740156 0 0,0 -0.07605296924785765,-0.5502813997332583 l 11.265344870989804 -1.4585244336111898" fill="#ff860c" stroke="none" /><path d="M 79.13060592940153 102.33845913500099 l -13.166545321895054 1.4753388661037914 a34.24894488188976,34.24894488188976 0 0,0 -0.06045364032375912,-0.5848341310108005 l 13.189931354700478 -1.2491002128100595" fill="#ffa00e" stroke="none" /><path d="M 79.0935383218832 101.97986365728391 l -3.764009707933255 0.35645563276741743 a24.78085039370079,24.78085039370079 0 0,0 -0.03647077676850262,-0.42384570902618396 l 3.7695741073994986 -0.29178887636557144" fill="#ff1c02" stroke="none" /><path d="M 79.06263194458094 101.62068470465958 l -6.468963732866214 0.5007387055098479 a27.48831496062992,27.48831496062992 0 0,0 -0.032378667922525556,-0.47077872545271876 l 6.476606361953806 -0.3896165559027858" fill="#ff4306" stroke="none" /><path d="M 79.03789590574601 101.26102812881392 l -46.39015027563026 2.7907162436766058 a67.47401574803149,67.47401574803149 0 0,0 -0.05962907072693568,-1.156788042068286 l 46.43122093581377 -1.9939564082315893" fill="#38ff82" stroke="none" /><path d="M 79.01933749520258 100.90099992219065 l -4.065481266283941 0.1745892582634983 a25.069228346456693,25.069228346456693 0 0,0 -0.014773311787375662,-0.4301088535923778 l 4.067879265068165 -0.1047741401070006" fill="#ff2003" stroke="none" /><path d="M 79.00696218219943 100.54070618675478 l -13.237562618393001 0.34095265618249887 a34.241952755905515,34.241952755905515 0 0,0 -0.010090888896436551,-0.5877436892432452 l 13.241464938888104 -0.11366205097020128" fill="#ffa00e" stroke="none" /><line stroke="#e1ed5e" stroke-width="0.3" x1="15.003131293944662" x2="10.003315487706104" y1="100.72959589197737" y2="100.7725132973878" /><path d="M 14.003168132696942 100.73817937305945 a86.0,86.0 0 0,1 10.791469493833604,-42.45332614584628" fill="none" id="id46" stroke="none" /><text fill="#e1ed5e" style="font-size:6.75px; font-family:Arial;" text-anchor="middle"><textPath startOffset="22.145653131862435" xlink:href="#id46">October</textPath></text><path d="M 79.00077361379809 100.18025310272382 l -22.462605546019663 0.19281445280250106 a43.463433070866145,43.463433070866145 0 0,0 0.0,-0.746135111052629 l 22.462605546019663 0.1928144528024928" fill="#e9ff1a" stroke="none" /><path d="M 79.00077361379809 99.81974689727619 l -31.709823932600447 -0.2721907010075755 a52.71099212598425,52.71099212598425 0 0,0 0.015533599060658567,-0.904754270197239 l 31.70047890194112 0.8164918871738669" fill="#7fff26" stroke="none" /><path d="M 79.01933749520258 99.09900007780938 l -20.79544738743224 -0.8930459881193608 a41.81461417322835,41.81461417322835 0 0,0 0.03695298935913735,-0.7168781214967678 l 20.777052808616535 1.2498959029928405" fill="#fdff18" stroke="none" /><path d="M 79.03789590574601 98.7389718711861 l -18.87428795823417 -1.1354302945757795 a39.9084094488189,39.9084094488189 0 0,0 0.0470083793317391,-0.6834915185623519 l 18.85201561773737 1.4592652372924564" fill="#ffe915" stroke="none" /><path d="M 79.13060592940154 97.66154086499901 l -2.2419691915842925 -0.2512173242172495 a23.256,23.256 0 0,0 0.047860752473578745,-0.3963556880699317 l 2.2373263528510456 0.2896666892106175" fill="#ff0500" stroke="none" /><path d="M 79.17382384314186 97.30363454192245 l -7.060190849774213 -0.914083055448348 a28.11911811023622,28.11911811023622 0 0,0 0.0660872699224723,-0.4781745638223139 l 7.043459063296533 1.0351459274707289" fill="#ff4c07" stroke="none" /><path d="M 79.22317932658666 96.9465228501225 l -18.724846708142593 -2.751907640587001 a39.9259842519685,39.9259842519685 0 0,0 0.1054778110100115,-0.677243211360476 l 18.674847404994317 3.072939033878927" fill="#ffe915" stroke="none" /><path d="M 79.407916724674 95.88100663000787 l -2.7575324294274557 -0.5515837150852901 a23.81215748031496,23.81215748031496 0 0,0 0.0836172858480525,-0.400138982581154 l 2.7476574327550365 0.5988391489518532" fill="#ff0e01" stroke="none" /><path d="M 79.48165901384962 95.52812308129327 l -9.272905310825267 -2.020986553290172 a30.490582677165357,30.490582677165357 0 0,0 0.11584844392456702,-0.5104496194040655 l 9.23684600534304 2.1798705066332458" fill="#ff6d0a" stroke="none" /><path d="M 79.94057633289273 93.78553927170692 l -5.498222591463849 -1.7033634134810238 a26.75603149606299,26.75603149606299 0 0,0 0.1396859579877869,-0.4375642738703082 l 5.468171917698805 1.7974967210427237" fill="#ff3805" stroke="none" /><path d="M 80.05021161711548 93.44210830539832 l -38.23304011282581 -12.567959689756913 a61.24573228346457,61.24573228346457 0 0,0 0.3368940450102955,-0.9959673819241396 l 38.01166064624316 13.222428746155215" fill="#30ff39" stroke="none" /><path d="M 80.68587082218212 91.75594674310238 l -2.419197876499861 -1.0326117190799355 a23.63036220472441,23.63036220472441 0 0,0 0.16244874562041925,-0.37171452100739266 l 2.4011152488624647 1.073988309863195" fill="#ff0b01" stroke="none" /><path d="M 80.9802524753101 91.09779779509293 l -26.4388610990677 -12.374721970721303 a50.191559055118105,50.191559055118105 0 0,0 0.371945126871749,-0.777222262218394 l 26.222536714236046 12.826756735004786" fill="#9bff22" stroke="none" /><path d="M 81.1358732173502 90.77261029715801 l -1.936915064927194 -0.9474422183075555 a23.156220472440946,23.156220472440946 0 0,0 0.17772960121123915,-0.3555782587624064 l 1.9203655505042108 0.9805523332337321" fill="#ff0400" stroke="none" /><path d="M 81.29705330413844 90.45014215332179 l -1.9432550960667476 -0.9922398982924326 a23.181921259842518,23.181921259842518 0 0,0 0.18401139141304967,-0.35286610584593503 l 1.925935635678758 1.0254522472428542" fill="#ff0400" stroke="none" /><line stroke="#e1ed5e" stroke-width="0.3" x1="26.387840678322718" x2="22.05771365940052" y1="57.49999999999999" y2="54.99999999999999" /><path d="M 25.521815274538284 56.99999999999999 a86.0,86.0 0 0,1 29.574782752854787,-30.34633250058573" fill="none" id="id47" stroke="none" /><text fill="#e1ed5e" style="font-size:6.75px; font-family:Arial;" text-anchor="middle"><textPath startOffset="21.40746469413373" xlink:href="#id47">November</textPath></text><path d="M 81.81346652052679 89.5 l -4.361331209849104 -2.518015748031497 a26.036031496062993,26.036031496062993 0 0,0 0.2267940306913816,-0.3851458460249386 l 4.317463469027943 2.592512762350008" fill="#ff2e04" stroke="none" /><path d="M 81.99639281039701 89.18935116829357 l -18.718729098578535 -11.240058990924895 a42.83414173228346,42.83414173228346 0 0,0 0.38394084233685305,-0.6271385116827588 l 18.52302029178629 11.559734618732199" fill="#f1ff19" stroke="none" /><path d="M 83.2033758604659 87.39550010848427 l -4.875215433039666 -3.658452548939918 a27.095244094488187,27.095244094488187 0 0,0 0.28236859967529226,-0.36962956112877615 l 4.811694856010067 3.7416030233095787" fill="#ff3d05" stroke="none" /><path d="M 84.83555147118756 85.47280134310135 l -2.8875566332478853 -2.766213935477843 a24.998740157480313,24.998740157480313 0 0,0 0.299524427534453,-0.3073384493122186 l 2.83964540456263 2.8153750768577916" fill="#ff1f03" stroke="none" /><path d="M 85.08716467003674 85.21462403516908 l -2.0056002160297033 -1.9884584368449771 a23.824251968503937,23.824251968503937 0 0,0 0.29043814289506287,-0.2879557805216751 l 1.971170153004664 2.0225942275953255" fill="#ff0e01" stroke="none" /><path d="M 85.34317274990677 84.96080404539775 l -13.201893964191958 -13.546306230640784 a39.91540157480315,39.91540157480315 0 0,0 0.49481320322175126,-0.47401985555894827 l 12.967408275104908 13.7709382165053" fill="#ffe915" stroke="none" /><path d="M 85.86807049272753 84.46653392183569 l -8.072717689018221 -8.873330872223102 a32.99603149606299,32.99603149606299 0 0,0 0.42224703042995254,-0.37757589831485855 l 7.919205631764876 9.010602300421361" fill="#ff8f0d" stroke="none" /><path d="M 86.40962598614128 83.9905735841838 l -6.133126356994383 -7.22480742701252 a30.476976377952752,30.476976377952752 0 0,0 0.40175282278850194,-0.3351564936044559 l 6.008199200043972 7.329026104528858" fill="#ff6d0a" stroke="none" /><path d="M 86.68645165197937 83.75963576809568 l -2.3518106103185152 -2.8688265455323445 a24.7096062992126,24.7096062992126 0 0,0 0.3303429968251957,-0.26610093448858607 l 2.302216843138074 2.9087757738143294" fill="#ff1b02" stroke="none" /><path d="M 86.96720088162412 83.53348406188908 l -6.152888550257401 -7.77397368423949 a30.914267716535434,30.914267716535434 0 0,0 0.41894729338141373,-0.32577594931343784 l 6.018531312240743 7.878450685173732" fill="#ff730a" stroke="none" /><path d="M 87.25179093698888 83.31218511350988 l -2.6761774670139338 -3.503202210772025 a25.40844094488189,25.40844094488189 0 0,0 0.3488784763283025,-0.26180491273136813 l 2.615646001774879 3.548626150767394" fill="#ff2503" stroke="none" /><path d="M 88.4268655584334 82.4767994020092 l -4.174035143159034 -6.320021208250828 a28.573984251968504,28.573984251968504 0 0,0 0.41162098951818804,-0.2668077523419802 l 4.06492852138382 6.390742802296714" fill="#ff5207" stroke="none" /><path d="M 88.72937992617638 82.28071324371311 l -6.0902424674282205 -9.574872721183493 a32.34765354330709,32.34765354330709 0 0,0 0.47109870490601513,-0.2940004341709224 l 5.924979633732507 9.67800895219595" fill="#ff860c" stroke="none" /><path d="M 89.03521579738668 82.08984904055464 l -9.761790735812315 -15.945151539894777 a39.696,39.696 0 0,0 0.5842253950331471,-0.35081056355838025 l 9.486632584221734 16.110376103989083" fill="#ffe615" stroke="none" /><line stroke="#e1ed5e" stroke-width="0.3" x1="56.869717070023135" x2="54.33264160355391" y1="26.7553504044142" y2="22.446841604673864" /><path d="M 56.362301976729285 25.89364864446614 a86.0,86.0 0 0,1 42.16139366436587,-11.88097634709845" fill="none" id="id48" stroke="none" /><text fill="#e1ed5e" style="font-size:6.75px; font-family:Arial;" text-anchor="middle"><textPath startOffset="22.145653131862474" xlink:href="#id48">December</textPath></text><path d="M 89.34428304082924 81.90426304109057 l -9.59546712864161 -16.295200953918098 a39.91048818897637,39.91048818897637 0 0,0 0.5933502392365227,-0.3425709203469334 l 9.314324421544686 16.457518771541206" fill="#ffe915" stroke="none" /><path d="M 90.28995756902619 81.37971332152246 l -5.255787106237519 -10.078664777716494 a32.366740157480315,32.366740157480315 0 0,0 0.49486091363984613,-0.2526795085281174 l 5.08199897088409 10.167402237917445" fill="#ff870c" stroke="none" /><path d="M 90.93487009805054 81.0573650232925 l -4.088832450622385 -8.544087225534394 a30.472062992125984,30.472062992125984 0 0,0 0.47378440374033504,-0.22175502372745196 l 3.9415593330105274 8.613018480832388" fill="#ff6d0a" stroke="none" /><path d="M 91.5904679813234 80.7573450057729 l -7.567632862701097 -17.31622496668355 a39.897637795275585,39.897637795275585 0 0,0 0.6299360607841864,-0.26888224603517075 l 7.269261726746479 17.443581862378124" fill="#ffe915" stroke="none" /><path d="M 92.25597844496254 80.48000691201159 l -5.63269988077002 -14.198083251436913 a36.274582677165355,36.274582677165355 0 0,0 0.5807867077397485,-0.22466077527323913 l 5.388140910536743 14.292683914848192" fill="#ffba11" stroke="none" /><path d="M 92.592206182469 80.34994680014964 l -4.338750671836423 -11.509051631635192 a33.29971653543307,33.29971653543307 0 0,0 0.5366183486872858,-0.1970536905765949 l 4.14054317149501 11.581836171220509" fill="#ff930d" stroke="none" /><path d="M 92.93061703081487 80.22567764915836 l -5.467137934657371 -15.292557826852462 a37.24044094488189,37.24044094488189 0 0,0 0.6038169137252938,-0.21003886654042034 l 5.203815248887073 15.384155125961469" fill="#ffc712" stroke="none" /><path d="M 93.61358852112211 79.99465700312896 l -6.8987611601754955 -21.610271076215056 a43.68472440944882,43.68472440944882 0 0,0 0.7163449548007456,-0.22192549812983214 l 6.526775572503134 21.725513162151532" fill="#e7ff1a" stroke="none" /><path d="M 93.95794788825049 79.88797359093562 l -0.8275368561604274 -2.754601052382092 a23.876220472440945,23.876220472440945 0 0,0 0.393548317081158,-0.11455617946769885 l 0.7801285266976451 2.7684009261523115" fill="#ff0f01" stroke="none" /><path d="M 94.6519064749342 79.69241777938228 l -5.423171373426686 -20.592665039642817 a42.294803149606295,42.294803149606295 0 0,0 0.7036943021212879,-0.17887633982407006 l 5.06887177808002 20.68272661130215" fill="#f7ff18" stroke="none" /><path d="M 95.00130118170881 79.60360301121753 l -3.7071564968443775 -15.126463577381587 a36.57411023622047,36.57411023622047 0 0,0 0.611079966069616,-0.14421320810794622 l 3.4469443770348556 15.187872929135764" fill="#ffbe11" stroke="none" /><path d="M 95.35216902796891 79.52079915486377 l -2.1278596238657537 -9.375742119201854 a30.61417322834646,30.61417322834646 0 0,0 0.5134982092931638,-0.11191454472295448 l 1.9665989979534715 9.410888122058521" fill="#ff6f0a" stroke="none" /><path d="M 96.41257539226777 79.30868818359171 l -5.292084846082665 -30.523339075383532 a51.97870866141733,51.97870866141733 0 0,0 0.8804760015769639,-0.14488199099907703 l 4.767331341452628 30.60968706487828" fill="#87ff25" stroke="none" /><path d="M 97.12497278360702 79.19773525538626 l -1.9095355119038646 -13.816447730085095 a34.94777952755906,34.94777952755906 0 0,0 0.5949812503225348,-0.07703223479386824 l 1.6720764396905359 13.847191561079358" fill="#ffa90f" stroke="none" /><path d="M 97.84075906011542 79.11130261209362 l -1.899782273785331 -18.378670155324023 a39.476598425196855,39.476598425196855 0 0,0 0.6746746862322647,-0.06389239424282242 l 1.5840080241680505 18.40857430507203" fill="#ffe415" stroke="none" /><path d="M 98.5590905019552 79.04949213459386 l -0.42916735717693694 -6.239999184064903 a27.254740157480317,27.254740157480317 0 0,0 0.46703677032528046,-0.028095772348158802 l 0.3219862347191727 6.246446934237756" fill="#ff3f05" stroke="none" /><path d="M 98.9189461498227 79.02784411241856 l -0.23628991646304864 -4.583961254024437 a25.59004724409449,25.59004724409449 0 0,0 0.4388988477300387,-0.018848204987040245 l 0.15756530813218986 4.587342027437306" fill="#ff2803" stroke="none" /></svg>