<?xml version="1.0" encoding="utf-8" ?>
<svg baseProfile="full" height="200mm" version="1.1" viewBox="0,0,200,200" width="200mm" xmlns="http://www.w3.org/2000/svg" xmlns:ev="http://www.w3.org/2001/xml-events" xmlns:xlink="http://www.w3.org/1999/xlink"><defs /><rect fill="#1a1a1a" height="200" width="200" x="0" y="0" /><rect fill="#1a1a1a" height="200" width="180" x="10" y="0" /><text alignment-baseline="middle" fill="#e1ed5e" style="dominant-baseline: central; font-size:9.0px; font-family:Arial;" text-anchor="middle" x="100.0" y="100.0">2023</text><line stroke="#e1ed5e" stroke-width="0.3" x1="100.0" x2="100.0" y1="15.0" y2="10.0" /><path d="M 100.0 14.0 a86.0,86.0 0 0,1 42.46469731375804,11.215312516191453" fill="none" id="id25" stroke="none" /><text fill="#e1ed5e" style="font-size:6.75px; font-family:Arial;" text-anchor="middle"><textPath startOffset="22.20632615414155" xlink:href="#id25">January</textPath></text><line stroke="#e1ed5e" stroke-width="0.3" x1="143.23703022742887" x2="145.7803849466894" y1="26.81831364943548" y2="22.513508569990506" /><path d="M 143.74570117128098 25.957352633546492 a86.0,86.0 0 0,1 28.547481713284135,27.462654790039103" fill="none" id="id26" stroke="none" /><text fill="#e1ed5e" style="font-size:6.75px; font-family:Arial;" text-anchor="middle"><textPath startOffset="19.985693538727396" xlink:href="#id26">February</textPath></text><line stroke="#e1ed5e" stroke-width="0.3" x1="172.23445277983987" x2="176.4835382374775" y1="55.19839476539836" y2="52.563006222186495" /><path d="M 173.08426987136738 54.67131705675599 a86.0,86.0 0 0,1 12.851231095245387,41.99856678651699" fill="none" id="id27" stroke="none" /><text fill="#e1ed5e" style="font-size:6.75px; font-family:Arial;" text-anchor="middle"><textPath startOffset="22.20632615414155" xlink:href="#id27">March</textPath></text><line stroke="#e1ed5e" stroke-width="0.3" x1="184.98032266829074" x2="189.97916517819016" y1="98.17113171792111" y2="98.06355123074" /><path d="M 185.9800911702706 98.14961562048488 a86.0,86.0 0 0,1 -9.607161424134198,41.387399972396054" fill="none" id="id28" stroke="none" /><text fill="#e1ed5e" style="font-size:6.75px; font-family:Arial;" text-anchor="middle"><textPath startOffset="21.466115282336823" xlink:href="#id28">April</textPath></text><path d="M 119.79798401119884 107.00284435728193 l 3.929696447908147 1.3899926669552862 a25.168284273761973,25.168284273761973 0 0,0 -0.1479844047587281,0.40718952512317025 l -3.9051877821441923 -1.4574299890845877" fill="red" stroke="none" /><line stroke="#e1ed5e" stroke-width="0.3" x1="174.80103733775053" x2="179.2010983576182" y1="140.37084112569926" y2="142.7455964860345" /><path d="M 175.68104954172406 140.8457921977663 a86.0,86.0 0 0,1 -30.038265399797805,32.042727171017184" fill="none" id="id29" stroke="none" /><text fill="#e1ed5e" style="font-size:6.75px; font-family:Arial;" text-anchor="middle"><textPath startOffset="22.206326154141568" xlink:href="#id29">May</textPath></text><path d="M 118.48025628344425 109.97397251340804 l 7.728674926881965 4.171240382355774 a29.78246334764965,29.78246334764965 0 0,0 -0.24736972345123173,0.44904790145727047 l -7.655728793979224 -4.303658802210849" fill="red" stroke="none" /><path d="M 118.12598468904814 110.60418214915192 l 8.450311722699032 4.943656648830593 a30.79017411859011,30.79017411859011 0 0,0 -0.2715680517783033,0.45516367534558966 l -8.363962795222502 -5.088382418062286" fill="red" stroke="none" /><line stroke="#e1ed5e" stroke-width="0.3" x1="143.8653032363475" x2="146.44561519142675" y1="172.8068346515853" y2="177.08958963109032" /><path d="M 144.38136562736335 173.6633856474863 a86.0,86.0 0 0,1 -40.68145358897372,12.25698825130547" fill="none" id="id30" stroke="none" /><text fill="#e1ed5e" style="font-size:6.75px; font-family:Arial;" text-anchor="middle"><textPath startOffset="21.466115282336833" xlink:href="#id30">June</textPath></text><line stroke="#e1ed5e" stroke-width="0.3" x1="102.19456741930631" x2="102.32365962044197" y1="184.97166512339345" y2="189.96999836594603" /><path d="M 102.22038585953345 185.97133177190398 a86.0,86.0 0 0,1 -42.740103519485714,-10.115201625700543" fill="none" id="id31" stroke="none" /><text fill="#e1ed5e" style="font-size:6.75px; font-family:Arial;" text-anchor="middle"><textPath startOffset="22.20632615414155" xlink:href="#id31">July</textPath></text><path d="M 95.51606077576429 120.51570834832081 l -1.1663269905918843 5.336384634391725 a26.462354768335285,26.462354768335285 0 0,0 -0.44416413597409,-0.10109031127342538 l 1.2580112759588369 -5.315517589540613" fill="red" stroke="none" /><path d="M 94.81253420990036 120.34920634021253 l -1.306441013874604 5.124860353467533 a26.288759945892522,26.288759945892522 0 0,0 -0.4375320403678073,-0.1155561885279708 l 1.3944634970539007 -5.101612815635981" fill="red" stroke="none" /><path d="M 94.11515582081647 120.15858648285463 l -1.6101620676728368 5.515624595025083 a26.745845156059993,26.745845156059993 0 0,0 -0.4408288732504044,-0.13281812333595874 l 1.704865915363487 -5.487091102583399" fill="red" stroke="none" /><path d="M 93.76903079525671 120.05430185196036 l -1.8077112599706822 5.818097646998916 a27.092460933763885,27.092460933763885 0 0,0 -0.4441598099263084,-0.14220594503390005 l 1.9075924149879309 -5.786118855305309" fill="red" stroke="none" /><line stroke="#e1ed5e" stroke-width="0.3" x1="58.666819895761336" x2="56.23545636021788" y1="174.27360380694188" y2="178.64263932499728" /><path d="M 58.180547188652646 175.14741091055294 a86.0,86.0 0 0,1 -31.652253787137756,-30.449443065178592" fill="none" id="id32" stroke="none" /><text fill="#e1ed5e" style="font-size:6.75px; font-family:Arial;" text-anchor="middle"><textPath startOffset="22.20632615414155" xlink:href="#id32">August</textPath></text><path d="M 88.54995079064634 117.60387380957326 l -3.0967276915957593 4.761062813680261 a26.679563496581846,26.679563496581846 0 0,0 -0.38282035752827825,-0.25371245841367707 l 3.178222747863999 -4.707052334175265" fill="red" stroke="none" /><path d="M 87.95078237400918 117.19931262002967 l -1.6590222307553124 2.3681240455637673 a23.89142979463753,23.89142979463753 0 0,0 -0.3347902327227955,-0.23886394181572074 l 1.6995397913269947 -2.3392158419038274" fill="red" stroke="none" /><path d="M 86.51685102203217 116.09983520530335 l -3.9338005054569365 4.697236526265931 a27.12689296466162,27.12689296466162 0 0,0 -0.3554068937036844,-0.30288546520217907 l 4.014072875737678 -4.6288266708408" fill="red" stroke="none" /><path d="M 86.24171649860922 115.8653595955263 l -4.002793693770543 4.615820086274209 a27.109676949212755,27.109676949212755 0 0,0 -0.3499183451102917,-0.30876225525147183 l 4.081654391787422 -4.546234689250449" fill="red" stroke="none" /><path d="M 84.67929136418377 114.36230785411682 l -6.641557861140651 6.226089203839869 a30.103542035771053,30.103542035771053 0 0,0 -0.3511414644625564,-0.38109470839260595 l 6.747745733598936 -6.110843240645919" fill="red" stroke="none" /><path d="M 84.19399662182784 113.82643327865904 l -4.380210151748078 3.8316253616196136 a26.81958708889931,26.81958708889931 0 0,0 -0.3009636470341883,-0.35008871486185944 l 4.445516308353046 -3.755659547596224" fill="red" stroke="none" /><path d="M 83.95833913139862 113.55231037782056 l -4.414830365982008 3.7297354603926225 a26.779416386185286,26.779416386185286 0 0,0 -0.29445116019460765,-0.35468539089908196 l 4.478377526070151 -3.653188812379779" fill="red" stroke="none" /><path d="M 82.44556493220864 111.52570212397912 l -4.837157790868431 3.1759290235734636 a26.786589725955647,26.786589725955647 0 0,0 -0.2497468569074529,-0.38761266807066536 l 4.891109511152929 -3.09219475558135" fill="red" stroke="none" /><path d="M 82.05923443525364 110.91462005526583 l -4.914440976512916 2.989797500507408 a26.752444628648725,26.752444628648725 0 0,0 -0.2359554460499932,-0.39547489971168875 l 4.965177298261141 -2.904760506909608" fill="red" stroke="none" /><line stroke="#e1ed5e" stroke-width="0.3" x1="26.63291911575756" x2="22.317208475507996" y1="142.92168965132927" y2="145.44649492493687" /><path d="M 25.769776987707644 143.4266507060508 a86.0,86.0 0 0,1 -11.730757126820373,-40.83630448921669" fill="none" id="id33" stroke="none" /><text fill="#e1ed5e" style="font-size:6.75px; font-family:Arial;" text-anchor="middle"><textPath startOffset="21.46611528233685" xlink:href="#id33">September</textPath></text><path d="M 81.69416730710424 110.29060199501025 l -5.065467182947829 2.8475463297952865 a26.810979081174878,26.810979081174878 0 0,0 -0.22268891606946675,-0.40424506703424884 l 5.1137325084688126 -2.759930744363215" fill="red" stroke="none" /><path d="M 79.76711848015287 105.62410040840567 l -5.570509092491714 1.5484251430711133 a26.7817118549118,26.7817118549118 0 0,0 -0.11964018609378896,-0.44522563969666024 l 5.596337354927278 -1.452308570198914" fill="red" stroke="none" /><path d="M 79.67330655649465 105.27499134158121 l -3.651367106959254 0.9475682765461604 a24.77231591843799,24.77231591843799 0 0,0 -0.1035585264927272,-0.41366483553566824 l 3.6671369477470392 -0.8845756016131003" fill="red" stroke="none" /><path d="M 79.0235259727143 100.99374915477108 l -14.799504646132426 0.7011185585334426 a35.81610289529657,35.81610289529657 0 0,0 -0.023873764291241974,-0.6160757756699518 l 14.80938054327487 -0.44626553584949413" fill="red" stroke="none" /><line stroke="#e1ed5e" stroke-width="0.3" x1="15.007084014347285" x2="10.007500721073583" y1="101.09737516637583" y2="101.16192664675087" /><path d="M 14.007167355692545 101.11028546245083 a86.0,86.0 0 0,1 10.666146001902534,-42.60595125391555" fill="none" id="id34" stroke="none" /><text fill="#e1ed5e" style="font-size:6.75px; font-family:Arial;" text-anchor="middle"><textPath startOffset="22.20632615414155" xlink:href="#id34">October</textPath></text><path d="M 79.00175016825051 100.2711162175752 l -3.7128981350136883 0.047938609487582856 a24.713207598730204,24.713207598730204 0 0,0 -0.001830781145067586,-0.4254090623869465 l 3.713173213448259 0.01597993110303899" fill="red" stroke="none" /><path d="M 79.00019446554 99.90962569577889 l -5.790553173680497 -0.024920098106052845 a26.79060679622705,26.79060679622705 0 0,0 0.005953884344289191,-0.4611349038759419 l 5.789266282218492 0.1245912600424667" fill="red" stroke="none" /><path d="M 79.00486145842228 99.54816195383935 l -5.795003625543621 -0.12471473386442056 a26.79634546804334,26.79634546804334 0 0,0 0.013893656996578409,-0.461062836072239 l 5.791998274091397 0.224447717361654" fill="red" stroke="none" /><path d="M 79.05617556472873 98.46500227214037 l -5.117507217189909 -0.37506817224186884 a26.131233404535372,26.131233404535372 0 0,0 0.03673991212867179,-0.4483199867547285 l 5.110292821241741 0.4631020762043757" fill="red" stroke="none" /><path d="M 79.46518482838121 95.60439243477599 l -2.8220488560842454 -0.6040774751350143 a23.885978056412053,23.885978056412053 0 0,0 0.08952193071360903,-0.4013092619025147 l 2.811232538368599 0.6525649065874882" fill="red" stroke="none" /><path d="M 80.02781315780177 93.51064311812611 l -2.7733816928707538 -0.9011263371854682 a23.916106083447573,23.916106083447573 0 0,0 0.13058502123664173,-0.39043259232232885 l 2.7574593778623395 0.9487320324301192" fill="red" stroke="none" /><path d="M 81.10775173730289 90.83032412892265 l -2.6244515891134883 -1.2738224734756316 a23.917253817810835,23.917253817810835 0 0,0 0.18295558778490814,-0.3688273008730783 l 2.6021359883751676 1.3188093628476714" fill="red" stroke="none" /><path d="M 81.6062741919709 89.86733742301443 l -2.627830696184044 -1.4476089309896634 a24.00017762555622,24.00017762555622 0 0,0 0.20244990828531712,-0.3601357968717615 l 2.602523146606296 1.4926282377962095" fill="red" stroke="none" /><line stroke="#e1ed5e" stroke-width="0.3" x1="26.266209847984243" x2="21.928928074336255" y1="57.711370442889674" y2="55.22380399835377" /><path d="M 25.398753493254645 57.213857153982495 a86.0,86.0 0 0,1 29.58750427330803,-30.492523968695096" fill="none" id="id35" stroke="none" /><text fill="#e1ed5e" style="font-size:6.75px; font-family:Arial;" text-anchor="middle"><textPath startOffset="21.46611528233685" xlink:href="#id35">November</textPath></text><path d="M 81.78341655067845 89.55222093294921 l -2.5711614483973815 -1.4746413252137367 a23.964023993113592,23.964023993113592 0 0,0 0.2083047971763761,-0.3560604213665114 l 2.54539697675068 1.51868115893414" fill="red" stroke="none" /><path d="M 82.95767976084542 87.72973835380427 l -2.6257047364543267 -1.890475221086929 a24.235463170024094,24.235463170024094 0 0,0 0.24666783726109556,-0.33645465281324616 l 2.5927742866795978 1.9353923175716758" fill="red" stroke="none" /><path d="M 83.6137871275137 86.86637796730984 l -2.64328182579815 -2.1186020648006254 a24.387537973155766,24.387537973155766 0 0,0 0.26536139054334906,-0.3253016881221407 l 2.6064219431784084 2.1637879225308483" fill="red" stroke="none" /><path d="M 83.84228863543731 86.58626213691792 l -4.875726631805453 -4.047709323148721 a27.33692835313782,27.33692835313782 0 0,0 0.30368644022142677,-0.3594689575880515 l 4.805329578096901 4.131037230365889" fill="red" stroke="none" /><path d="M 84.07557802195018 86.31012108654704 l -3.450002526162756 -2.96589206813138 a25.549619015954416,25.549619015954416 0 0,0 0.2895722480134953,-0.33103113710393645 l 3.398438414571417 3.0248387614382595" fill="red" stroke="none" /><path d="M 84.31358615837235 86.03803664274999 l -4.561186169304637 -4.0597624673415496 a27.106233746122978,27.106233746122978 0 0,0 0.3132142855926051,-0.3458590371377882 l 4.490628243095987 4.137674291748893" fill="red" stroke="none" /><path d="M 84.5562425177563 85.77008943001954 l -4.252391351669112 -3.91816231978402 a26.78228572209343,26.78228572209343 0 0,0 0.31530743918217047,-0.33634799194411297 l 4.184316590516485 3.990779728606183" fill="red" stroke="none" /><path d="M 84.80347519578584 85.50635884689758 l -2.333641036165877 -2.2257033232336676 a24.224846627163956,24.224846627163956 0 0,0 0.2903933143984832,-0.2992758367806264 l 2.2949834580642756 2.265543355564418" fill="red" stroke="none" /><path d="M 85.05521093208273 85.24692304244772 l -4.501753298023404 -4.44400469941927 a27.32573794309606,27.32573794309606 0 0,0 0.33332741881099476,-0.33189600494351557 l 4.424590079045096 4.520836555012895" fill="red" stroke="none" /><path d="M 85.31137513191541 84.99185889309783 l -2.293176369553173 -2.3430589892759373 a24.278503208646264,24.278503208646264 0 0,0 0.30118842408865687,-0.28974302534200913 l 2.252504701852088 2.38218510138026" fill="red" stroke="none" /><path d="M 86.10567301691215 84.25364557470407 l -2.2293521462505144 -2.526510933302745 a24.369461156934456,24.369461156934456 0 0,0 0.3169262364569225,-0.2748353092124481 l 2.1855321111468182 2.564511235934874" fill="red" stroke="none" /><path d="M 86.37877921826538 84.01681056812374 l -4.101571716380276 -4.812798996639083 a27.323442474369543,27.323442474369543 0 0,0 0.3605945783858493,-0.3019875892532342 l 4.018119601035316 4.882687743286129" fill="red" stroke="none" /><path d="M 87.22198572758235 83.33499621200491 l -2.1705333790487877 -2.8307956316732104 a24.567158401005635,24.567158401005635 0 0,0 0.33780292759606,-0.2544261616762194 l 2.1214842976943378 2.867738382855284" fill="red" stroke="none" /><path d="M 88.39885842347998 82.49532879139004 l -1.861884866181518 -2.8093513208008534 a24.3703219577069,24.3703219577069 0 0,0 0.3516671974018293,-0.2287341274496446 l 1.8132506429954016 2.8409843724100328" fill="red" stroke="none" /><path d="M 88.70189139769569 82.29822771554957 l -1.84535996819062 -2.891292966779288 a24.43000414459631,24.43000414459631 0 0,0 0.35642311320814535,-0.22319212079262235 l 1.7953177026102325 2.922629428894841" fill="red" stroke="none" /><path d="M 89.00827224532344 82.1063720568725 l -1.8158931188104677 -2.956124512695963 a24.469314046537896,24.469314046537896 0 0,0 0.36079180202102135,-0.2173730237906418 l 1.7647392505717971 2.9869441459452237" fill="red" stroke="none" /><line stroke="#e1ed5e" stroke-width="0.3" x1="56.762969772571076" x2="54.21961505331055" y1="26.818313649435495" y2="22.513508569990535" /><path d="M 56.25429882871897 25.957352633546506 a86.0,86.0 0 0,1 42.265352541879196,-11.944610805530505" fill="none" id="id36" stroke="none" /><text fill="#e1ed5e" style="font-size:6.75px; font-family:Arial;" text-anchor="middle"><textPath startOffset="22.20632615414155" xlink:href="#id36">December</textPath></text><path d="M 90.91171255644093 81.06846463323043 l -1.9492197865971954 -4.0603604977001835 a25.503996575014916,25.503996575014916 0 0,0 0.39740301801357336,-0.18658604555007635 l 1.8790385572840136 4.093311525890267" fill="red" stroke="none" /><path d="M 91.56875222667455 80.76684994638697 l -2.4083793619481666 -5.49393433803738 a26.998633649567548,26.998633649567548 0 0,0 0.4272421180581154,-0.1829227780962036 l 2.313453486099743 5.5345766440963695" fill="red" stroke="none" /><path d="M 97.83486435360386 79.11191278185805 l -6.495406939188433 -62.66426165442583 a84.0,84.0 0 0,0 1.4394994916390547,-0.13669782193927782 l 5.415782320459142 62.766785020880285" fill="red" stroke="none" /><path d="M 98.91598698831166 79.02799685794201 l -0.34612799155793234 -6.696411618898721 a27.70535108374362,27.70535108374362 0 0,0 0.47647816836982776,-0.020518152228459156 l 0.2308089907987805 6.7013774976513725" fill="red" stroke="none" /><path d="M 99.27714615592234 79.0124445844662 l -0.26062679828825447 -7.567116667723239 a28.571603594412537,28.571603594412537 0 0,0 0.49166745375194987,-0.012698319770131266 l 0.13033270934142557 7.57048177963573" fill="red" stroke="none" /><path d="M 99.63851952072746 79.00311137660856 l -0.16448157823587062 -9.554046696431296 a30.55546244130386,30.55546244130386 0 0,0 0.525962057508404,-0.004527121481122471 l 2.340413298623105e-15 9.55546244130386" fill="red" stroke="none" /></svg>